{
.appVersion = "3260";
.formatVersion = 3;
customParameters = (
{
name = macintoshFONDFamilyID;
value = 128;
},
{
name = macintoshFONDName;
value = "Libre Baskerville";
},
{
name = openTypeHeadLowestRecPPEM;
value = 9;
},
{
name = compatibleFullNames;
value = "Libre Baskerville Bold";
},
{
name = descriptions;
value = "Libre Baskerville is webfont optimized for web body text (typically 16px). It's based on 1941 ATF Specimens, but it has a taller x height, wider counters and minor contrast that allow it to work on small sizes in any screen.";
},
{
name = licenses;
value = "This Font Software is licensed under the SIL Open Font License, Version 1.1. This license is available with a FAQ at: http://scripts.sil.org/OFL";
},
{
name = licenseURL;
value = "http://scripts.sil.org/OFL";
},
{
name = preferredFamilyNames;
value = "Libre Baskerville";
},
{
name = uniqueID;
value = "PabloImpallari,RodrigoFuenzalida: Libre Baskerville Bold: 2012";
},
{
name = versionString;
value = "Version 1.000";
},
{
name = codePageRanges;
value = (
"1252",
"1250",
"1254",
"1257"
);
},
{
name = openTypeOS2FamilyClass;
value = (
0,
0
);
},
{
name = panose;
value = (
2,
0,
0,
0,
0,
0,
0,
0,
0,
0
);
},
{
name = fsType;
value = (
);
},
{
name = unicodeRanges;
value = (
0,
1,
2,
3,
4,
5,
7,
29,
31,
32,
33,
35,
36,
38,
60,
62
);
},
{
name = vendorID;
value = pyrs;
},
{
name = blueFuzz;
value = 0;
},
{
name = blueScale;
value = 0.016667;
},
{
name = blueShift;
value = 10;
},
{
name = postscriptDefaultWidthX;
value = 500;
},
{
name = postscriptForceBold;
value = 0;
},
{
name = postscriptIsFixedPitch;
value = 0;
},
{
name = postscriptSlantAngle;
value = 0;
},
{
name = postscriptUniqueID;
value = -1;
},
{
name = postscriptWindowsCharacterSet;
value = 1;
},
{
name = trademarks;
value = "Libre Baskerville is a trademark of Pablo Impallari";
},
{
name = year;
value = 2012;
}
);
date = "2024-09-02 00:55:09 +0000";
familyName = "Libre Baskerville";
features = (
{
code = "	sub f f i by f_f_i;

glyphs = (
{
glyphname = A;
kernLeft = KERN_A;
kernRight = KERN_A;
layers = (
{
anchors = (
{
name = bottom;
pos = (666,0);
},
{
name = topcap;
pos = (399,830);
}
);
layerId = m001;
shapes = (
{
closed = 1;
nodes = (
(540,131,o),
(550,102,o),
(550,83,cs),
(550,51,o),
(524,44,o),
(460,41,c),
(460,0,l),
(838,0,l),
(838,41,l),
(748,50,o),
(733,61,o),
(678,196,cs),
(439,780,l),
(365,780,l),
(102,121,ls),
(79,64,o),
(51,47,o),
(-13,40,c),
(-13,0,l),
(261,0,l),
(261,40,l),
(201,40,o),
(171,46,o),
(171,86,cs),
(171,114,o),
(186,161,o),
(218,233,c),
(501,233,l),
(524,173,ls)
);
},
{
closed = 1;
nodes = (
(364,596,l),
(479,293,l),
(241,293,l),
(360,596,l)
);
}
);
width = 809;
}
);
unicode = 65;
},
{
glyphname = Aringacute;
kernLeft = KERN_A;
kernRight = KERN_A;
layers = (
{
layerId = m001;
shapes = (
{
closed = 1;
nodes = (
(570,122,o),
(574,106,o),
(574,86,cs),
(574,50,o),
(544,39,o),
(474,39,c),
(474,0,l),
(817,0,l),
(817,39,l),
(759,39,o),
(722,64,o),
(687,140,cs),
(419,720,l),
(374,720,l),
(101,119,ls),
(75,63,o),
(50,45,o),
(-14,38,c),
(-14,0,l),
(241,0,l),
(241,38,l),
(185,38,o),
(159,50,o),
(159,87,cs),
(159,114,o),
(182,185,o),
(226,279,c),
(500,279,l),
(548,171,ls)
);
},
{
closed = 1;
nodes = (
(477,329,l),
(250,329,l),
(368,574,l)
);
},
{
closed = 1;
nodes = (
(326,870,o),
(326,863,o),
(328,857,c),
(266,801,l),
(322,801,l),
(356,816,l),
(370,805,o),
(389,799,o),
(409,799,cs),
(458,799,o),
(493,834,o),
(493,878,cs),
(493,883,o),
(492,889,o),
(491,894,c),
(519,909,o),
(536,926,o),
(536,944,cs),
(536,960,o),
(524,970,o),
(506,970,cs),
(489,970,o),
(474,964,o),
(457,947,c),
(443,955,o),
(427,960,o),
(409,960,cs),
(362,960,o),
(326,926,o),
(326,878,cs)
);
},
{
closed = 1;
nodes = (
(365,903,o),
(383,920,o),
(409,920,cs),
(436,920,o),
(454,903,o),
(454,878,cs),
(454,854,o),
(436,837,o),
(409,837,cs),
(383,837,o),
(365,854,o),
(365,878,cs)
);
}
);
width = 789;
}
);
unicode = 506;
},
{
glyphname = AE;
kernLeft = KERN_AE_2ND;
kernRight = KERN_E_1ST;
layers = (
{
layerId = m001;
shapes = (
{
closed = 1;
nodes = (
(406,0,l),
(1085,0,l),
(1100,227,l),
(1056,227,l),
(1029,93,o),
(978,53,o),
(833,53,cs),
(700,53,o),
(658,80,o),
(658,167,cs),
(658,376,l),
(832,375,o),
(850,355,o),
(866,255,c),
(903,255,l),
(903,548,l),
(866,548,l),
(854,441,o),
(830,426,o),
(658,426,c),
(658,700,ls),
(658,710,o),
(665,717,o),
(676,717,cs),
(810,717,ls),
(949,717,o),
(996,688,o),
(1012,574,c),
(1054,574,l),
(1054,770,l),
(331,770,l),
(331,722,l),
(389,722,o),
(414,717,o),
(414,699,cs),
(414,692,o),
(411,684,o),
(406,674,cs),
(169,242,o),
(142,189,o),
(103,122,cs),
(70,66,o),
(42,48,o),
(-22,41,c),
(-22,0,l),
(250,0,l),
(250,41,l),
(214,44,o),
(173,41,o),
(173,83,cs),
(173,107,o),
(174,114,o),
(263,274,c),
(511,274,l),
(511,155,ls),
(511,61,o),
(495,44,o),
(406,41,c)
);
},
{
closed = 1;
nodes = (
(511,721,l),
(511,334,l),
(297,334,l)
);
}
);
width = 1136;
}
);
unicode = 198;
},
{
glyphname = B;
kernLeft = KERN_I_2ND;
layers = (
{
layerId = m001;
shapes = (
{
closed = 1;
nodes = (
(33,40,l),
(123,43,o),
(139,60,o),
(139,154,cs),
(139,616,ls),
(139,709,o),
(126,726,o),
(54,730,c),
(54,770,l),
(375,770,ls),
(575,770,o),
(689,702,o),
(689,583,cs),
(689,503,o),
(633,448,o),
(518,415,c),
(518,411,l),
(665,411,o),
(758,323,o),
(758,203,cs),
(758,135,o),
(724,84,o),
(663,50,cs),
(604,17,o),
(521,0,o),
(418,0,cs),
(33,0,l)
);
},
{
closed = 1;
nodes = (
(533,61,o),
(586,108,o),
(586,206,cs),
(586,265,o),
(568,308,o),
(528,336,cs),
(488,364,o),
(425,375,o),
(334,375,cs),
(286,375,l),
(286,175,ls),
(286,93,o),
(325,61,o),
(425,61,cs)
);
},
{
closed = 1;
nodes = (
(405,435,o),
(449,447,o),
(479,468,cs),
(512,491,o),
(527,526,o),
(527,571,cs),
(527,668,o),
(481,709,o),
(375,709,cs),
(304,709,ls),
(293,709,o),
(286,702,o),
(286,692,cs),
(286,435,l),
(345,435,ls)
);
}
);
width = 797;
}
);
unicode = 66;
},
{
glyphname = C;
kernLeft = KERN_C;
kernRight = KERN_C;
layers = (
{
anchors = (
{
name = bottom;
pos = (442,0);
},
{
name = topcap;
pos = (459,830);
}
);
layerId = m001;
shapes = (
{
closed = 1;
nodes = (
(606,759,o),
(540,780,o),
(459,780,cs),
(215,780,o),
(47,614,o),
(47,372,cs),
(47,139,o),
(204,-10,o),
(447,-10,cs),
(551,-10,o),
(640,19,o),
(714,79,c),
(728,0,l),
(775,0,l),
(775,271,l),
(731,271,l),
(694,129,o),
(604,56,o),
(472,56,cs),
(308,56,o),
(221,172,o),
(221,378,cs),
(221,587,o),
(311,715,o),
(468,715,cs),
(582,715,o),
(668,639,o),
(696,517,c),
(736,517,l),
(756,770,l),
(707,770,l),
(688,708,l)
);
}
);
width = 823;
}
);
unicode = 67;
},
{
glyphname = D;
kernLeft = KERN_I_2ND;
kernRight = KERN_D_1ST;
layers = (
{
anchors = (
{
name = bottom;
pos = (466,0);
},
{
name = topcap;
pos = (466,830);
}
);
layerId = m001;
shapes = (
{
closed = 1;
nodes = (
(35,40,l),
(123,43,o),
(140,59,o),
(140,154,cs),
(140,616,ls),
(140,709,o),
(127,726,o),
(51,730,c),
(51,770,l),
(431,770,ls),
(687,770,o),
(873,602,o),
(873,372,cs),
(873,153,o),
(700,0,o),
(452,0,cs),
(35,0,l)
);
},
{
closed = 1;
nodes = (
(293,709,o),
(287,702,o),
(287,692,cs),
(287,175,ls),
(287,98,o),
(334,61,o),
(434,61,cs),
(608,61,o),
(706,170,o),
(706,370,cs),
(706,583,o),
(601,709,o),
(429,709,cs),
(304,709,ls)
);
}
);
width = 919;
}
);
unicode = 68;
},
{
glyphname = Dcroat;
kernLeft = KERN_I_2ND;
kernRight = KERN_D_1ST;
layers = (
{
layerId = m001;
shapes = (
{
closed = 1;
nodes = (
(54,430,l),
(421,430,l),
(421,370,l),
(54,370,l)
);
},
{
pos = (1,0);
ref = D;
}
);
width = 920;
}
);
unicode = 272;
},
{
glyphname = Eth;
kernLeft = KERN_I_2ND;
kernRight = KERN_D_1ST;
layers = (
{
layerId = m001;
shapes = (
{
closed = 1;
nodes = (
(54,436,l),
(421,436,l),
(421,376,l),
(54,376,l)
);
},
{
pos = (1,0);
ref = D;
}
);
width = 920;
}
);
unicode = 208;
},
{
glyphname = E;
kernLeft = KERN_I_2ND;
kernRight = KERN_E_1ST;
layers = (
{
anchors = (
{
name = bottom;
pos = (404,0);
},
{
name = topcap;
pos = (404,830);
}
);
layerId = m001;
shapes = (
{
closed = 1;
nodes = (
(287,712,o),
(291,717,o),
(325,717,cs),
(438,717,ls),
(580,717,o),
(625,686,o),
(642,574,c),
(685,574,l),
(678,770,l),
(46,770,l),
(46,730,l),
(126,726,o),
(140,709,o),
(140,616,cs),
(140,154,ls),
(140,60,o),
(124,43,o),
(35,40,c),
(35,0,l),
(713,0,l),
(729,229,l),
(689,229,l),
(661,93,o),
(610,55,o),
(458,55,cs),
(329,55,o),
(287,83,o),
(287,169,cs),
(287,375,l),
(454,375,o),
(478,363,o),
(495,255,c),
(532,255,l),
(532,548,l),
(495,548,l),
(483,440,o),
(458,426,o),
(287,426,c),
(287,680,ls)
);
}
);
width = 764;
}
);
unicode = 69;
},
{
glyphname = Schwa;
kernRight = KERN_O_1ST;
layers = (
{
layerId = m001;
shapes = (
{
closed = 1;
nodes = (
(191,685,o),
(258,714,o),
(361,714,cs),
(528,714,o),
(634,586,o),
(634,382,cs),
(634,357,o),
(634,334,o),
(628,318,c),
(86,318,ls),
(45,318,o),
(39,315,o),
(39,289,cs),
(39,102,o),
(160,-10,o),
(365,-10,cs),
(624,-10,o),
(807,158,o),
(807,394,cs),
(807,624,o),
(636,781,o),
(383,781,cs),
(255,781,o),
(147,738,o),
(60,637,c),
(107,596,l)
);
},
{
closed = 1;
nodes = (
(591,121,o),
(511,58,o),
(390,58,cs),
(265,58,o),
(188,116,o),
(188,204,cs),
(188,239,o),
(196,245,o),
(278,245,cs),
(618,245,l)
);
}
);
width = 853;
}
);
unicode = 399;
},
{
glyphname = F;
kernLeft = KERN_I_2ND;
layers = (
{
layerId = m001;
shapes = (
{
closed = 1;
nodes = (
(287,59,o),
(306,43,o),
(433,40,c),
(433,0,l),
(35,0,l),
(35,40,l),
(124,43,o),
(140,60,o),
(140,154,cs),
(140,616,ls),
(140,709,o),
(126,726,o),
(46,730,c),
(46,770,l),
(658,770,l),
(670,559,l),
(628,559,l),
(612,673,o),
(572,714,o),
(443,714,cs),
(305,714,ls),
(294,714,o),
(287,708,o),
(287,697,cs),
(287,408,l),
(449,408,o),
(485,430,o),
(495,538,c),
(532,538,l),
(532,225,l),
(495,225,l),
(479,337,o),
(445,354,o),
(287,355,c),
(287,161,ls)
);
}
);
width = 689;
}
);
unicode = 70;
},
{
glyphname = G;
kernLeft = KERN_G;
kernRight = KERN_G;
layers = (
{
anchors = (
{
name = bottom;
pos = (441,0);
},
{
name = topcap;
pos = (457,830);
}
);
layerId = m001;
shapes = (
{
closed = 1;
nodes = (
(514,-10,o),
(579,5,o),
(630,35,cs),
(703,79,o),
(716,83,o),
(774,83,c),
(774,216,ls),
(774,291,o),
(796,315,o),
(861,315,c),
(861,355,l),
(537,355,l),
(537,315,l),
(612,309,o),
(642,282,o),
(642,221,cs),
(642,119,o),
(574,57,o),
(462,57,cs),
(306,57,o),
(220,172,o),
(220,379,cs),
(220,590,o),
(310,715,o),
(462,715,cs),
(583,715,o),
(668,642,o),
(694,517,c),
(744,517,l),
(744,770,l),
(708,770,l),
(689,708,l),
(602,759,o),
(533,780,o),
(450,780,cs),
(211,780,o),
(47,614,o),
(47,371,cs),
(47,137,o),
(198,-10,o),
(438,-10,cs)
);
}
);
width = 876;
}
);
unicode = 71;
},
{
glyphname = H;
kernLeft = KERN_I_2ND;
kernRight = KERN_I_1ST;
layers = (
{
anchors = (
{
name = bottom;
pos = (498,0);
},
{
name = topcap;
pos = (498,830);
}
);
layerId = m001;
shapes = (
{
closed = 1;
nodes = (
(805,59,o),
(820,43,o),
(910,40,c),
(910,0,l),
(543,0,l),
(543,40,l),
(641,43,o),
(658,60,o),
(658,154,cs),
(658,363,l),
(287,363,l),
(287,161,ls),
(287,59,o),
(303,43,o),
(401,40,c),
(401,0,l),
(35,0,l),
(35,40,l),
(125,43,o),
(140,60,o),
(140,154,cs),
(140,616,ls),
(140,709,o),
(127,726,o),
(46,730,c),
(46,770,l),
(391,770,l),
(391,730,l),
(301,727,o),
(287,710,o),
(287,609,cs),
(287,425,l),
(658,425,l),
(658,616,ls),
(658,709,o),
(643,726,o),
(553,730,c),
(553,770,l),
(899,770,l),
(899,730,l),
(818,727,o),
(805,710,o),
(805,609,cs),
(805,161,ls)
);
}
);
width = 945;
}
);
unicode = 72;
},
{
glyphname = Hbar;
kernLeft = KERN_I_2ND;
kernRight = KERN_I_1ST;
layers = (
{
layerId = m001;
shapes = (
{
closed = 1;
nodes = (
(70,601,l),
(882,601,l),
(882,541,l),
(70,541,l)
);
},
{
pos = (2,0);
ref = H;
}
);
width = 949;
}
);
unicode = 294;
},
{
glyphname = I;
kernLeft = KERN_I_2ND;
kernRight = KERN_I_1ST;
layers = (
{
anchors = (
{
name = bottom;
pos = (215,0);
},
{
name = topcap;
pos = (215,830);
}
);
layerId = m001;
shapes = (
{
closed = 1;
nodes = (
(303,43,o),
(288,60,o),
(288,184,cs),
(288,586,ls),
(288,699,o),
(301,726,o),
(383,730,c),
(383,770,l),
(46,770,l),
(46,730,l),
(128,726,o),
(141,699,o),
(141,586,cs),
(141,184,ls),
(141,60,o),
(126,43,o),
(36,40,c),
(36,0,l),
(393,0,l),
(393,40,l)
);
}
);
width = 429;
}
);
unicode = 73;
},
{
glyphname = J;
kernLeft = KERN_J_2ND;
kernRight = KERN_J_1ST;
layers = (
{
anchors = (
{
name = topcap;
pos = (203,830);
}
);
layerId = m001;
shapes = (
{
closed = 1;
nodes = (
(130,709,o),
(117,726,o),
(35,730,c),
(35,770,l),
(372,770,l),
(372,730,l),
(289,727,o),
(277,710,o),
(277,609,cs),
(277,-2,ls),
(277,-169,o),
(190,-260,o),
(22,-260,cs),
(-98,-260,o),
(-168,-214,o),
(-168,-150,cs),
(-168,-112,o),
(-140,-90,o),
(-104,-90,cs),
(-74,-90,o),
(-60,-103,o),
(-34,-147,cs),
(-8,-191,o),
(10,-202,o),
(41,-202,cs),
(98,-202,o),
(130,-136,o),
(130,-23,cs),
(130,616,ls)
);
}
);
width = 407;
}
);
unicode = 74;
},
{
glyphname = K;
kernLeft = KERN_I_2ND;
kernRight = KERN_K_1ST;
layers = (
{
anchors = (
{
name = bottom;
pos = (438,0);
}
);
layerId = m001;
shapes = (
{
closed = 1;
nodes = (
(287,60,o),
(300,43,o),
(382,40,c),
(382,0,l),
(35,0,l),
(35,40,l),
(124,43,o),
(140,60,o),
(140,154,cs),
(140,616,ls),
(140,708,o),
(126,726,o),
(46,730,c),
(46,770,l),
(391,770,l),
(391,730,l),
(301,727,o),
(287,710,o),
(287,609,cs),
(287,387,l),
(546,665,ls),
(561,681,o),
(569,694,o),
(569,707,cs),
(569,721,o),
(553,730,o),
(501,730,c),
(501,770,l),
(774,770,l),
(774,731,l),
(715,729,o),
(695,719,o),
(615,636,cs),
(437,450,l),
(731,92,ls),
(759,57,o),
(790,43,o),
(843,40,c),
(843,0,l),
(473,0,l),
(473,40,l),
(527,41,o),
(550,49,o),
(550,67,cs),
(550,80,o),
(545,89,o),
(514,127,cs),
(337,345,l),
(287,293,l),
(287,161,ls)
);
}
);
width = 822;
}
);
unicode = 75;
},
{
glyphname = L;
kernLeft = KERN_I_2ND;
kernRight = KERN_L_1ST;
layers = (
{
anchors = (
{
name = bottom;
pos = (410,0);
},
{
name = topcap;
pos = (226,830);
}
);
layerId = m001;
shapes = (
{
closed = 1;
nodes = (
(35,0,l),
(35,40,l),
(124,43,o),
(140,60,o),
(140,154,cs),
(140,616,ls),
(140,709,o),
(126,726,o),
(46,730,c),
(46,770,l),
(391,770,l),
(391,730,l),
(301,727,o),
(287,710,o),
(287,609,cs),
(287,190,ls),
(287,78,o),
(329,55,o),
(468,55,cs),
(622,55,o),
(670,87,o),
(700,227,c),
(740,227,l),
(724,0,l)
);
}
);
width = 755;
}
);
unicode = 76;
},
{
glyphname = Lslash;
kernLeft = KERN_I_2ND;
kernRight = KERN_L_1ST;
layers = (
{
layerId = m001;
shapes = (
{
closed = 1;
nodes = (
(67,334,l),
(407,537,l),
(407,463,l),
(67,260,l)
);
},
{
pos = (2,0);
ref = L;
}
);
width = 757;
}
);
unicode = 321;
},
{
glyphname = M;
kernLeft = KERN_N_2ND;
kernRight = KERN_I_1ST;
layers = (
{
layerId = m001;
shapes = (
{
closed = 1;
nodes = (
(812,770,l),
(1104,770,l),
(1104,730,l),
(1015,730,o),
(1001,700,o),
(1001,579,cs),
(1001,191,ls),
(1001,59,o),
(1016,43,o),
(1115,40,c),
(1115,0,l),
(739,0,l),
(739,40,l),
(838,43,o),
(854,60,o),
(854,184,cs),
(854,652,l),
(849,652,l),
(580,-10,l),
(506,-10,l),
(228,652,l),
(224,652,l),
(224,191,ls),
(224,59,o),
(239,43,o),
(338,40,c),
(338,0,l),
(30,0,l),
(30,40,l),
(129,43,o),
(146,60,o),
(146,184,cs),
(146,586,ls),
(146,699,o),
(131,730,o),
(41,730,c),
(41,770,l),
(344,770,l),
(577,187,l),
(581,187,l)
);
}
);
width = 1145;
}
);
unicode = 77;
},
{
glyphname = N;
kernLeft = KERN_N_2ND;
kernRight = KERN_N_1ST;
layers = (
{
anchors = (
{
name = bottom;
pos = (492,0);
},
{
name = topcap;
pos = (498,830);
}
);
layerId = m001;
shapes = (
{
closed = 1;
nodes = (
(227,621,l),
(223,621,l),
(223,191,ls),
(223,59,o),
(238,43,o),
(327,40,c),
(327,0,l),
(30,0,l),
(30,40,l),
(128,43,o),
(145,60,o),
(145,184,cs),
(145,586,ls),
(145,699,o),
(130,726,o),
(40,730,c),
(40,770,l),
(319,770,l),
(722,192,l),
(726,192,l),
(726,579,ls),
(726,711,o),
(711,727,o),
(622,730,c),
(622,770,l),
(919,770,l),
(919,730,l),
(821,727,o),
(804,710,o),
(804,586,cs),
(804,-10,l),
(670,-10,l)
);
}
);
width = 940;
}
);
unicode = 78;
},
{
glyphname = Eng;
kernLeft = KERN_N_2ND;
kernRight = KERN_N_1ST;
layers = (
{
layerId = m001;
shapes = (
{
closed = 1;
nodes = (
(804,-10,ls),
(804,-172,o),
(721,-260,o),
(578,-260,cs),
(481,-260,o),
(416,-217,o),
(416,-153,cs),
(416,-118,o),
(435,-100,o),
(467,-100,cs),
(492,-100,o),
(503,-111,o),
(524,-147,cs),
(550,-191,o),
(566,-202,o),
(596,-202,cs),
(672,-202,o),
(718,-152,o),
(725,-64,c),
(227,631,l),
(223,631,l),
(223,191,ls),
(223,59,o),
(238,43,o),
(327,40,c),
(327,0,l),
(30,0,l),
(30,40,l),
(128,43,o),
(145,60,o),
(145,184,cs),
(145,586,ls),
(145,699,o),
(130,726,o),
(40,730,c),
(40,770,l),
(319,770,l),
(722,192,l),
(726,192,l),
(726,579,ls),
(726,711,o),
(711,727,o),
(622,730,c),
(622,770,l),
(919,770,l),
(919,730,l),
(821,727,o),
(804,710,o),
(804,588,c)
);
}
);
width = 940;
}
);
unicode = 330;
},
{
glyphname = O;
kernLeft = KERN_O_2ND;
kernRight = KERN_O_1ST;
layers = (
{
anchors = (
{
name = bottom;
pos = (472,0);
},
{
name = topcap;
pos = (472,830);
}
);
layerId = m001;
shapes = (
{
closed = 1;
nodes = (
(232,780,o),
(45,605,o),
(45,379,cs),
(45,162,o),
(234,-10,o),
(472,-10,cs),
(710,-10,o),
(899,162,o),
(899,379,cs),
(899,605,o),
(712,780,o),
(472,780,cs)
);
},
{
closed = 1;
nodes = (
(316,55,o),
(219,179,o),
(219,376,cs),
(219,584,o),
(316,715,o),
(472,715,cs),
(628,715,o),
(725,584,o),
(725,376,cs),
(725,179,o),
(627,55,o),
(472,55,cs)
);
}
);
width = 943;
}
);
unicode = 79;
},
{
glyphname = Oslash;
kernLeft = KERN_O_2ND;
kernRight = KERN_O_1ST;
layers = (
{
layerId = m001;
shapes = (
{
closed = 1;
nodes = (
(802,830,l),
(47,-81,l),
(135,-81,l),
(891,830,l)
);
},
{
ref = O;
}
);
width = 943;
}
);
unicode = 216;
},
{
glyphname = Oslashacute;
kernLeft = KERN_O_2ND;
kernRight = KERN_O_1ST;
layers = (
{
layerId = m001;
shapes = (
{
closed = 1;
nodes = (
(802,830,l),
(47,-81,l),
(135,-81,l),
(891,830,l)
);
},
{
pos = (363,0);
ref = acute.cap;
},
{
ref = O;
}
);
width = 943;
}
);
unicode = 510;
},
{
glyphname = OE;
kernLeft = KERN_O_2ND;
kernRight = KERN_E_1ST;
layers = (
{
layerId = m001;
shapes = (
{
closed = 1;
nodes = (
(236,770,o),
(45,599,o),
(45,379,cs),
(45,168,o),
(235,0,o),
(478,0,cs),
(1130,0,l),
(1151,229,l),
(1111,229,l),
(1082,102,o),
(1039,55,o),
(878,55,cs),
(746,55,o),
(704,82,o),
(704,169,cs),
(704,383,l),
(859,382,o),
(892,356,o),
(908,255,c),
(949,255,l),
(949,548,l),
(908,548,l),
(897,445,o),
(858,423,o),
(704,423,c),
(704,700,ls),
(704,710,o),
(710,717,o),
(722,717,cs),
(855,717,ls),
(998,717,o),
(1046,680,o),
(1063,574,c),
(1105,574,l),
(1096,770,l),
(482,770,ls)
);
},
{
closed = 1;
nodes = (
(536,705,o),
(557,684,o),
(557,618,cs),
(557,152,ls),
(557,87,o),
(537,65,o),
(482,65,cs),
(318,65,o),
(219,185,o),
(219,376,cs),
(219,582,o),
(318,705,o),
(482,705,cs)
);
}
);
width = 1181;
}
);
unicode = 338;
},
{
glyphname = P;
kernLeft = KERN_I_2ND;
layers = (
{
layerId = m001;
shapes = (
{
closed = 1;
nodes = (
(700,696,o),
(594,770,o),
(392,770,cs),
(46,770,l),
(46,730,l),
(127,726,o),
(140,709,o),
(140,616,cs),
(140,154,ls),
(140,60,o),
(124,43,o),
(35,40,c),
(35,0,l),
(432,0,l),
(432,40,l),
(308,40,o),
(287,57,o),
(287,159,cs),
(287,335,l),
(372,335,ls),
(584,335,o),
(700,413,o),
(700,556,cs)
);
},
{
closed = 1;
nodes = (
(287,707,o),
(294,714,o),
(305,714,cs),
(382,714,ls),
(489,714,o),
(539,657,o),
(539,557,cs),
(539,446,o),
(480,395,o),
(352,395,cs),
(287,395,l),
(287,697,ls)
);
}
);
width = 717;
}
);
unicode = 80;
},
{
glyphname = Thorn;
kernLeft = KERN_I_2ND;
layers = (
{
layerId = m001;
shapes = (
{
closed = 1;
nodes = (
(294,713,o),
(302,732,o),
(429,732,c),
(429,770,l),
(32,770,l),
(32,729,l),
(130,726,o),
(147,709,o),
(147,615,cs),
(147,152,ls),
(147,58,o),
(130,44,o),
(32,41,c),
(32,0,l),
(429,0,l),
(429,41,l),
(302,41,o),
(294,57,o),
(294,147,cs),
(294,166,l),
(379,166,ls),
(617,166,o),
(707,244,o),
(707,391,cs),
(707,515,o),
(594,601,o),
(399,601,cs),
(294,601,l),
(294,618,ls)
);
},
{
closed = 1;
nodes = (
(294,537,o),
(301,544,o),
(312,544,cs),
(399,544,ls),
(487,544,o),
(540,490,o),
(540,391,cs),
(540,274,o),
(480,226,o),
(359,226,cs),
(294,226,l),
(294,527,ls)
);
}
);
width = 734;
}
);
unicode = 222;
},
{
glyphname = Q;
kernRight = KERN_O_1ST;
layers = (
{
layerId = m001;
shapes = (
{
closed = 1;
nodes = (
(230,780,o),
(46,605,o),
(46,377,cs),
(46,165,o),
(209,-9,o),
(423,-27,c),
(297,-98,ls),
(241,-129,o),
(224,-144,o),
(224,-167,cs),
(224,-183,o),
(238,-195,o),
(261,-195,cs),
(312,-195,o),
(324,-138,o),
(395,-138,cs),
(499,-138,o),
(606,-260,o),
(754,-260,cs),
(859,-260,o),
(939,-198,o),
(939,-115,cs),
(939,-104,o),
(938,-89,o),
(935,-72,c),
(898,-72,l),
(878,-125,o),
(844,-146,o),
(781,-146,cs),
(669,-146,o),
(582,-86,o),
(468,-86,cs),
(455,-86,o),
(438,-87,o),
(429,-88,c),
(429,-84,l),
(454,-68,o),
(475,-57,o),
(534,-36,cs),
(634,-1,o),
(668,15,o),
(712,43,cs),
(833,121,o),
(904,241,o),
(904,378,cs),
(904,603,o),
(713,780,o),
(471,780,cs)
);
},
{
closed = 1;
nodes = (
(316,30,o),
(220,162,o),
(220,375,cs),
(220,586,o),
(315,715,o),
(471,715,cs),
(629,715,o),
(730,583,o),
(730,375,cs),
(730,166,o),
(628,30,o),
(471,30,cs)
);
}
);
width = 949;
}
);
unicode = 81;
},
{
glyphname = R;
kernLeft = KERN_I_2ND;
kernRight = KERN_R_1ST;
layers = (
{
anchors = (
{
name = bottom;
pos = (438,0);
},
{
name = topcap;
pos = (399,830);
}
);
layerId = m001;
shapes = (
{
closed = 1;
nodes = (
(695,698,o),
(584,770,o),
(392,770,cs),
(46,770,l),
(46,730,l),
(128,726,o),
(140,709,o),
(140,616,cs),
(140,154,ls),
(140,60,o),
(123,40,o),
(35,40,c),
(35,0,l),
(432,0,l),
(432,40,l),
(305,40,o),
(287,60,o),
(287,159,cs),
(287,355,l),
(308,355,o),
(332,344,o),
(365,304,cs),
(613,0,l),
(850,0,l),
(850,40,l),
(805,40,o),
(758,60,o),
(726,97,cs),
(494,363,l),
(634,388,o),
(695,466,o),
(695,577,cs)
);
},
{
closed = 1;
nodes = (
(287,707,o),
(294,714,o),
(305,714,cs),
(392,714,ls),
(484,714,o),
(539,657,o),
(539,572,cs),
(539,461,o),
(477,415,o),
(352,415,cs),
(287,415,l),
(287,697,ls)
);
}
);
width = 815;
}
);
unicode = 82;
},
{
glyphname = S;
kernLeft = KERN_S;
kernRight = KERN_S;
layers = (
{
anchors = (
{
name = bottom;
pos = (322,0);
},
{
name = topcap;
pos = (320,830);
}
);
layerId = m001;
shapes = (
{
closed = 1;
nodes = (
(93,0,l),
(113,60,l),
(180,11,o),
(241,-10,o),
(320,-10,cs),
(495,-10,o),
(618,84,o),
(618,219,cs),
(618,330,o),
(542,405,o),
(356,476,cs),
(218,528,o),
(186,553,o),
(186,610,cs),
(186,674,o),
(243,719,o),
(325,719,cs),
(414,719,o),
(486,659,o),
(518,550,c),
(557,550,l),
(546,766,l),
(522,766,l),
(504,716,l),
(446,759,o),
(387,780,o),
(319,780,cs),
(173,780,o),
(72,693,o),
(72,568,cs),
(72,461,o),
(146,382,o),
(301,323,cs),
(456,265,o),
(489,238,o),
(489,175,cs),
(489,101,o),
(422,51,o),
(322,51,cs),
(202,51,o),
(111,129,o),
(93,255,c),
(54,255,l),
(69,0,l)
);
}
);
width = 663;
}
);
unicode = 83;
},
{
glyphname = T;
kernLeft = KERN_T;
kernRight = KERN_T;
layers = (
{
anchors = (
{
name = bottom;
pos = (413,0);
},
{
name = topcap;
pos = (413,830);
}
);
layerId = m001;
shapes = (
{
closed = 1;
nodes = (
(22,770,l),
(12,550,l),
(51,550,l),
(55,712,o),
(138,718,o),
(235,718,cs),
(324,718,o),
(338,711,o),
(338,687,cs),
(338,163,ls),
(338,77,o),
(320,44,o),
(201,40,c),
(201,0,l),
(620,0,l),
(620,40,l),
(502,44,o),
(485,77,o),
(485,163,cs),
(485,687,ls),
(485,711,o),
(500,718,o),
(604,718,cs),
(711,718,o),
(764,682,o),
(772,550,c),
(815,550,l),
(805,770,l)
);
}
);
width = 827;
}
);
unicode = 84;
},
{
glyphname = Tbar;
kernLeft = KERN_T;
kernRight = KERN_T;
layers = (
{
layerId = m001;
shapes = (
{
closed = 1;
nodes = (
(688,467,l),
(135,467,l),
(135,407,l),
(688,407,l)
);
},
{
ref = T;
}
);
width = 827;
}
);
unicode = 358;
},
{
glyphname = U;
kernLeft = KERN_U;
kernRight = KERN_U;
layers = (
{
anchors = (
{
name = bottom;
pos = (474,0);
},
{
name = topcap;
pos = (482,830);
}
);
layerId = m001;
shapes = (
{
closed = 1;
nodes = (
(757,633,o),
(764,680,o),
(784,705,cs),
(799,723,o),
(823,730,o),
(872,730,c),
(872,770,l),
(548,770,l),
(548,730,l),
(600,730,o),
(627,722,o),
(645,703,cs),
(667,678,o),
(674,633,o),
(674,522,cs),
(674,291,ls),
(674,138,o),
(606,62,o),
(468,62,cs),
(334,62,o),
(270,134,o),
(270,285,cs),
(270,547,ls),
(270,651,o),
(275,687,o),
(293,708,cs),
(307,725,o),
(330,730,o),
(386,730,c),
(386,770,l),
(27,770,l),
(27,730,l),
(74,730,o),
(93,724,o),
(105,706,cs),
(119,685,o),
(123,650,o),
(123,547,cs),
(123,273,ls),
(123,76,o),
(218,-10,o),
(433,-10,cs),
(662,-10,o),
(757,84,o),
(757,310,cs),
(757,522,ls)
);
}
);
width = 880;
}
);
unicode = 85;
},
{
glyphname = V;
layers = (
{
layerId = m001;
shapes = (
{
closed = 1;
nodes = (
(265,646,o),
(258,671,o),
(258,689,cs),
(258,718,o),
(277,727,o),
(347,729,c),
(347,770,l),
(-31,770,l),
(-31,729,l),
(47,729,o),
(77,700,o),
(129,574,cs),
(368,-10,l),
(442,-10,l),
(705,649,ls),
(727,704,o),
(764,730,o),
(820,730,c),
(820,770,l),
(536,770,l),
(536,730,l),
(608,730,o),
(626,723,o),
(626,691,cs),
(626,662,o),
(619,636,o),
(568,505,cs),
(438,172,l),
(278,610,ls)
);
}
);
width = 805;
}
);
unicode = 86;
},
{
glyphname = W;
kernLeft = KERN_W;
kernRight = KERN_W;
layers = (
{
anchors = (
{
name = topcap;
pos = (628,830);
}
);
layerId = m001;
shapes = (
{
closed = 1;
nodes = (
(750,632,o),
(744,658,o),
(744,678,cs),
(744,718,o),
(771,729,o),
(826,729,c),
(826,770,l),
(473,770,l),
(473,729,l),
(536,722,o),
(562,709,o),
(588,636,c),
(426,194,l),
(286,597,ls),
(266,653,o),
(261,667,o),
(261,688,cs),
(261,717,o),
(283,729,o),
(350,729,c),
(350,770,l),
(-28,770,l),
(-28,729,l),
(49,729,o),
(80,711,o),
(130,574,cs),
(342,-10,l),
(425,-10,l),
(623,518,l),
(797,-10,l),
(886,-10,l),
(1127,649,ls),
(1148,707,o),
(1192,730,o),
(1242,730,c),
(1242,770,l),
(958,770,l),
(958,730,l),
(1018,730,o),
(1046,721,o),
(1046,680,cs),
(1046,657,o),
(1038,625,o),
(1022,580,cs),
(887,194,l),
(761,597,ls)
);
}
);
width = 1227;
}
);
unicode = 87;
},
{
glyphname = X;
layers = (
{
layerId = m001;
shapes = (
{
closed = 1;
nodes = (
(722,700,ls),
(742,724,o),
(770,730,o),
(825,730,c),
(825,770,l),
(527,770,l),
(527,730,l),
(596,730,o),
(608,719,o),
(608,699,cs),
(608,682,o),
(600,663,o),
(580,639,cs),
(451,485,l),
(348,627,ls),
(328,654,o),
(318,677,o),
(318,694,cs),
(318,718,o),
(338,730,o),
(386,730,c),
(386,770,l),
(10,770,l),
(10,730,l),
(55,730,o),
(89,719,o),
(125,673,cs),
(358,371,l),
(139,104,ls),
(95,51,o),
(71,40,o),
(-2,40,c),
(-2,0,l),
(305,0,l),
(305,40,l),
(244,40,o),
(219,47,o),
(219,68,cs),
(219,99,o),
(277,153,o),
(335,224,cs),
(404,309,l),
(511,157,ls),
(553,98,o),
(564,82,o),
(564,66,cs),
(564,50,o),
(554,40,o),
(486,40,c),
(486,0,l),
(859,0,l),
(859,40,l),
(805,40,o),
(759,66,o),
(726,111,cs),
(499,424,l)
);
}
);
width = 848;
}
);
unicode = 88;
},
{
glyphname = Y;
kernLeft = KERN_Y;
kernRight = KERN_Y;
layers = (
{
anchors = (
{
name = topcap;
pos = (391,830);
}
);
layerId = m001;
shapes = (
{
closed = 1;
nodes = (
(61,714,o),
(38,730,o),
(-14,730,c),
(-14,770,l),
(322,770,l),
(322,730,l),
(266,730,o),
(246,719,o),
(246,698,cs),
(246,685,o),
(254,668,o),
(271,636,cs),
(414,363,l),
(418,363,l),
(544,573,ls),
(588,647,o),
(603,679,o),
(603,700,cs),
(603,723,o),
(586,730,o),
(530,730,c),
(530,770,l),
(781,770,l),
(781,730,l),
(723,730,o),
(693,700,o),
(601,543,cs),
(455,293,l),
(455,191,ls),
(455,58,o),
(474,40,o),
(559,40,c),
(559,0,l),
(203,0,l),
(203,40,l),
(286,40,o),
(308,58,o),
(308,184,cs),
(308,276,l),
(101,644,ls)
);
}
);
width = 760;
}
);
unicode = 89;
},
{
glyphname = Z;
kernLeft = KERN_Z_2ND;
kernRight = KERN_Z_1ST;
layers = (
{
anchors = (
{
name = bottom;
pos = (448,0);
},
{
name = topcap;
pos = (452,830);
}
);
layerId = m001;
shapes = (
{
closed = 1;
nodes = (
(714,255,l),
(689,99,o),
(659,56,o),
(515,56,cs),
(229,56,l),
(727,747,l),
(727,770,l),
(79,770,l),
(63,566,l),
(102,566,l),
(121,670,o),
(166,718,o),
(265,718,cs),
(518,718,l),
(15,23,l),
(15,0,l),
(747,0,l),
(760,255,l)
);
}
);
width = 797;
}
);
unicode = 90;
},
{
glyphname = a;
kernLeft = KERN_a_2ND;
kernRight = KERN_a_1ST;
layers = (
{
anchors = (
{
name = bottom;
pos = (433,0);
},
{
name = top;
pos = (243,651);
}
);
layerId = m001;
shapes = (
{
closed = 1;
nodes = (
(344,131,o),
(296,84,o),
(231,84,cs),
(199,84,o),
(175,108,o),
(175,147,cs),
(175,194,o),
(233,234,o),
(344,285,c),
(344,190,ls)
);
},
{
closed = 1;
nodes = (
(82,228,o),
(34,177,o),
(34,119,cs),
(34,43,o),
(90,-9,o),
(173,-9,cs),
(251,-9,o),
(315,28,o),
(353,97,c),
(358,97,l),
(358,29,o),
(391,-10,o),
(452,-10,cs),
(501,-10,o),
(544,11,o),
(562,44,c),
(547,73,l),
(536,64,o),
(525,60,o),
(512,60,cs),
(489,60,o),
(478,88,o),
(478,145,cs),
(478,364,ls),
(478,491,o),
(420,540,o),
(270,540,cs),
(130,540,o),
(59,499,o),
(59,436,cs),
(59,395,o),
(80,371,o),
(117,371,cs),
(155,371,o),
(176,391,o),
(188,424,cs),
(205,472,o),
(222,491,o),
(260,491,cs),
(317,491,o),
(344,457,o),
(344,380,cs),
(344,338,l),
(203,277,ls)
);
}
);
width = 574;
}
);
unicode = 97;
},
{
glyphname = aringacute;
kernLeft = KERN_a_2ND;
kernRight = KERN_a_1ST;
layers = (
{
layerId = m001;
shapes = (
{
closed = 1;
nodes = (
(155,731,o),
(155,724,o),
(157,717,c),
(90,661,l),
(156,661,l),
(186,676,l),
(200,665,o),
(218,659,o),
(238,659,cs),
(287,659,o),
(322,694,o),
(322,738,cs),
(322,743,o),
(322,748,o),
(321,753,c),
(354,768,o),
(375,785,o),
(375,804,cs),
(375,826,o),
(359,840,o),
(335,840,cs),
(317,840,o),
(302,832,o),
(283,808,c),
(270,816,o),
(255,820,o),
(238,820,cs),
(191,820,o),
(155,786,o),
(155,738,cs)
);
},
{
closed = 1;
nodes = (
(202,758,o),
(217,772,o),
(238,772,cs),
(260,772,o),
(274,758,o),
(274,738,cs),
(274,719,o),
(260,705,o),
(238,705,cs),
(217,705,o),
(202,719,o),
(202,738,cs)
);
},
{
ref = a;
}
);
width = 574;
}
);
unicode = 507;
},
{
glyphname = ae;
kernLeft = KERN_a_2ND;
kernRight = KERN_e_1ST;
layers = (
{
anchors = (
{
name = top;
pos = (435,651);
}
);
layerId = m001;
shapes = (
{
closed = 1;
nodes = (
(753,75,o),
(707,55,o),
(650,55,cs),
(545,55,o),
(488,127,o),
(488,260,cs),
(488,279,o),
(489,293,o),
(492,300,c),
(821,300,ls),
(852,300,o),
(853,301,o),
(853,317,cs),
(853,459,o),
(772,540,o),
(630,540,cs),
(557,540,o),
(491,519,o),
(448,482,c),
(416,521,o),
(355,540,o),
(262,540,cs),
(130,540,o),
(59,503,o),
(59,433,cs),
(59,394,o),
(82,371,o),
(120,371,cs),
(153,371,o),
(173,387,o),
(189,427,cs),
(211,479,o),
(224,491,o),
(262,491,cs),
(318,491,o),
(344,456,o),
(344,380,cs),
(344,338,l),
(198,276,ls),
(78,225,o),
(34,181,o),
(34,113,cs),
(34,37,o),
(87,-9,o),
(175,-9,cs),
(262,-9,o),
(334,37,o),
(371,117,c),
(419,33,o),
(500,-10,o),
(614,-10,cs),
(708,-10,o),
(777,21,o),
(845,93,c),
(817,128,l)
);
},
{
closed = 1;
nodes = (
(344,133,o),
(299,84,o),
(241,84,cs),
(201,84,o),
(175,107,o),
(175,143,cs),
(175,189,o),
(219,226,o),
(344,286,c),
(344,197,ls)
);
},
{
closed = 1;
nodes = (
(518,434,o),
(565,482,o),
(623,482,cs),
(677,482,o),
(714,443,o),
(714,385,cs),
(714,359,o),
(707,356,o),
(652,356,cs),
(499,356,l)
);
}
);
width = 889;
}
);
unicode = 230;
},
{
glyphname = b;
kernLeft = KERN_b_2ND;
kernRight = KERN_b_1ST;
layers = (
{
layerId = m001;
shapes = (
{
closed = 1;
nodes = (
(225,331,o),
(233,372,o),
(248,403,cs),
(271,450,o),
(314,477,o),
(362,477,cs),
(443,477,o),
(484,402,o),
(484,264,cs),
(484,122,o),
(441,47,o),
(362,47,cs),
(283,47,o),
(225,120,o),
(225,219,cs),
(225,282,ls)
);
},
{
closed = 1;
nodes = (
(-1,790,l),
(-1,756,l),
(56,748,o),
(64,744,o),
(72,724,cs),
(81,700,o),
(85,659,o),
(85,595,cs),
(85,0,l),
(119,0,l),
(195,67,l),
(234,20,o),
(303,-11,o),
(376,-11,cs),
(518,-11,o),
(636,107,o),
(636,266,cs),
(636,419,o),
(528,540,o),
(387,540,cs),
(318,540,o),
(261,511,o),
(227,461,c),
(223,461,l),
(223,830,l)
);
}
);
width = 674;
}
);
unicode = 98;
},
{
glyphname = c;
kernLeft = KERN_e_2ND;
kernRight = KERN_c_1ST;
layers = (
{
anchors = (
{
name = bottom;
pos = (293,0);
},
{
name = top;
pos = (320,651);
}
);
layerId = m001;
shapes = (
{
closed = 1;
nodes = (
(453,83,o),
(396,61,o),
(342,61,cs),
(246,61,o),
(193,139,o),
(193,277,cs),
(193,406,o),
(238,482,o),
(315,482,cs),
(349,482,o),
(360,473,o),
(400,410,cs),
(423,374,o),
(444,359,o),
(475,359,cs),
(512,359,o),
(536,383,o),
(536,422,cs),
(536,489,o),
(447,540,o),
(327,540,cs),
(156,540,o),
(39,428,o),
(39,263,cs),
(39,103,o),
(149,-5,o),
(311,-5,cs),
(398,-5,o),
(478,27,o),
(528,83,c),
(502,121,l)
);
}
);
width = 564;
}
);
unicode = 99;
},
{
glyphname = d;
kernLeft = KERN_d_2ND;
kernRight = KERN_d_1ST;
layers = (
{
anchors = (
{
name = bottom;
pos = (305,0);
}
);
layerId = m001;
shapes = (
{
closed = 1;
nodes = (
(671,1,l),
(671,40,l),
(614,40,o),
(603,46,o),
(597,81,cs),
(592,109,o),
(590,159,o),
(590,258,cs),
(590,830,l),
(337,790,l),
(337,756,l),
(407,756,o),
(440,744,o),
(446,716,cs),
(450,699,o),
(452,637,o),
(452,559,cs),
(452,474,l),
(448,474,l),
(410,522,o),
(358,540,o),
(292,540,cs),
(148,540,o),
(39,420,o),
(39,261,cs),
(39,102,o),
(146,-10,o),
(298,-10,cs),
(370,-10,o),
(431,15,o),
(477,64,c),
(481,64,l),
(481,-10,l)
);
},
{
closed = 1;
nodes = (
(450,180,o),
(442,139,o),
(423,110,cs),
(398,71,o),
(355,47,o),
(311,47,cs),
(234,47,o),
(191,125,o),
(191,263,cs),
(191,399,o),
(234,474,o),
(312,474,cs),
(355,474,o),
(394,453,o),
(418,415,cs),
(439,382,o),
(450,337,o),
(450,287,cs),
(450,248,ls)
);
}
);
width = 694;
}
);
unicode = 100;
},
{
glyphname = dcroat;
kernLeft = KERN_d_2ND;
kernRight = KERN_d_1ST;
layers = (
{
layerId = m001;
shapes = (
{
closed = 1;
nodes = (
(660,651,l),
(367,651,l),
(367,601,l),
(660,601,l)
);
},
{
ref = d;
}
);
width = 694;
}
);
unicode = 273;
},
{
glyphname = eth;
kernLeft = KERN_o_2ND;
layers = (
{
layerId = m001;
shapes = (
{
closed = 1;
nodes = (
(200,376,o),
(249,454,o),
(322,454,cs),
(403,454,o),
(455,374,o),
(455,244,cs),
(455,121,o),
(402,45,o),
(321,45,cs),
(249,45,o),
(200,118,o),
(200,244,cs)
);
},
{
closed = 1;
nodes = (
(236,712,o),
(274,699,o),
(305,675,c),
(181,609,l),
(205,566,l),
(345,642,l),
(406,589,o),
(447,516,o),
(475,414,c),
(472,412,l),
(443,478,o),
(386,513,o),
(311,513,cs),
(155,513,o),
(39,394,o),
(39,244,cs),
(39,98,o),
(162,-10,o),
(320,-10,cs),
(492,-10,o),
(619,122,o),
(619,308,cs),
(619,459,o),
(550,598,o),
(416,680,c),
(532,744,l),
(502,787,l),
(366,712,l),
(317,740,o),
(249,762,o),
(184,780,c),
(164,736,l)
);
}
);
width = 661;
}
);
unicode = 240;
},
{
glyphname = e;
kernLeft = KERN_e_2ND;
kernRight = KERN_e_1ST;
layers = (
{
anchors = (
{
name = bottom;
pos = (313,0);
},
{
name = top;
pos = (314,651);
}
);
layerId = m001;
shapes = (
{
closed = 1;
nodes = (
(460,81,o),
(404,55,o),
(348,55,cs),
(251,55,o),
(190,137,o),
(190,267,cs),
(190,283,o),
(191,293,o),
(194,300,c),
(516,300,ls),
(547,300,o),
(549,302,o),
(549,323,cs),
(549,459,o),
(466,540,o),
(325,540,cs),
(157,540,o),
(38,423,o),
(38,258,cs),
(38,99,o),
(149,-10,o),
(313,-10,cs),
(404,-10,o),
(478,23,o),
(540,93,c),
(512,128,l)
);
},
{
closed = 1;
nodes = (
(214,429,o),
(264,482,o),
(321,482,cs),
(372,482,o),
(409,440,o),
(409,382,cs),
(409,359,o),
(400,356,o),
(346,356,cs),
(201,356,l)
);
}
);
width = 585;
}
);
unicode = 101;
},
{
glyphname = schwa;
kernRight = KERN_o_1ST;
layers = (
{
layerId = m001;
shapes = (
{
closed = 1;
nodes = (
(126,449,o),
(182,475,o),
(238,475,cs),
(335,475,o),
(396,401,o),
(396,283,cs),
(396,267,o),
(395,257,o),
(392,250,c),
(70,250,ls),
(39,250,o),
(37,248,o),
(37,227,cs),
(37,79,o),
(120,-10,o),
(261,-10,cs),
(429,-10,o),
(548,107,o),
(548,272,cs),
(548,431,o),
(437,540,o),
(273,540,cs),
(182,540,o),
(108,507,o),
(46,437,c),
(74,402,l)
);
},
{
closed = 1;
nodes = (
(382,109,o),
(332,48,o),
(265,48,cs),
(209,48,o),
(177,98,o),
(177,168,cs),
(177,191,o),
(186,194,o),
(240,194,cs),
(385,194,l)
);
}
);
width = 586;
}
);
unicode = 601;
},
{
glyphname = f;
kernLeft = KERN_f_2ND;
kernRight = KERN_f_1ST;
layers = (
{
layerId = m001;
shapes = (
{
closed = 1;
nodes = (
(125,475,l),
(125,158,ls),
(125,57,o),
(115,44,o),
(35,40,c),
(35,0,l),
(373,0,l),
(373,40,l),
(285,42,o),
(264,66,o),
(264,166,cs),
(264,475,l),
(433,475,l),
(433,530,l),
(264,530,l),
(264,592,ls),
(264,704,o),
(297,774,o),
(350,774,cs),
(369,774,o),
(386,767,o),
(402,748,cs),
(438,705,o),
(450,692,o),
(474,692,cs),
(508,692,o),
(534,715,o),
(534,745,cs),
(534,794,o),
(468,830,o),
(378,830,cs),
(227,830,o),
(125,731,o),
(125,586,cs),
(125,530,l),
(17,530,l),
(17,475,l)
);
}
);
width = 443;
}
);
unicode = 102;
},
{
glyphname = g;
kernLeft = KERN_g;
kernRight = KERN_g;
layers = (
{
layerId = m001;
shapes = (
{
closed = 1;
nodes = (
(198,111,o),
(183,120,o),
(183,136,cs),
(183,157,o),
(205,166,o),
(268,173,cs),
(419,190,o),
(480,264,o),
(480,364,cs),
(480,398,o),
(475,423,o),
(462,446,c),
(474,463,o),
(489,473,o),
(502,473,cs),
(542,473,o),
(545,430,o),
(585,430,cs),
(613,430,o),
(632,450,o),
(632,478,cs),
(632,515,o),
(598,540,o),
(547,540,cs),
(514,540,o),
(486,529,o),
(425,491,c),
(386,521,o),
(328,540,o),
(271,540,cs),
(154,540,o),
(66,465,o),
(66,365,cs),
(66,297,o),
(109,231,o),
(169,207,c),
(169,203,l),
(104,190,o),
(67,154,o),
(67,100,cs),
(67,45,o),
(104,11,o),
(178,1,cs),
(353,-23,ls),
(409,-30,o),
(440,-66,o),
(440,-111,cs),
(440,-174,o),
(389,-206,o),
(290,-206,cs),
(199,-206,o),
(150,-176,o),
(150,-123,cs),
(150,-90,o),
(174,-63,o),
(209,-56,c),
(187,-30,o),
(152,-15,o),
(117,-15,cs),
(63,-15,o),
(22,-51,o),
(22,-120,cs),
(22,-209,o),
(117,-260,o),
(282,-260,cs),
(462,-260,o),
(558,-200,o),
(558,-87,cs),
(558,6,o),
(494,74,o),
(391,89,cs),
(334,98,o),
(299,102,o),
(228,108,cs)
);
},
{
closed = 1;
nodes = (
(231,230,o),
(201,282,o),
(201,361,cs),
(201,439,o),
(230,488,o),
(275,488,cs),
(319,488,o),
(344,441,o),
(344,359,cs),
(344,278,o),
(319,230,o),
(276,230,cs)
);
}
);
width = 610;
}
);
unicode = 103;
},
{
glyphname = gcommaaccent;
kernLeft = KERN_g;
kernRight = KERN_g;
layers = (
{
layerId = m001;
shapes = (
{
closed = 1;
nodes = (
(258,817,o),
(232,775,o),
(232,730,cs),
(232,680,o),
(256,651,o),
(298,651,cs),
(341,651,o),
(370,680,o),
(370,711,cs),
(370,741,o),
(349,761,o),
(324,761,cs),
(312,761,o),
(303,758,o),
(297,753,c),
(297,778,o),
(315,803,o),
(355,825,c),
(327,856,l)
);
},
{
ref = g;
}
);
width = 610;
}
);
unicode = 291;
},
{
glyphname = h;
kernLeft = KERN_h_2ND;
kernRight = KERN_n_1ST;
layers = (
{
anchors = (
{
name = bottom;
pos = (359,0);
},
{
name = top;
pos = (402,651);
}
);
layerId = m001;
shapes = (
{
closed = 1;
nodes = (
(244,353,o),
(257,399,o),
(280,430,cs),
(303,459,o),
(334,474,o),
(375,474,cs),
(450,474,o),
(477,422,o),
(477,280,cs),
(477,157,ls),
(477,56,o),
(468,44,o),
(388,40,c),
(388,0,l),
(701,0,l),
(701,40,l),
(622,45,o),
(616,53,o),
(616,164,cs),
(616,319,ls),
(616,380,o),
(595,440,o),
(560,480,cs),
(524,520,o),
(473,540,o),
(408,540,cs),
(337,540,o),
(287,515,o),
(246,461,c),
(242,461,l),
(242,830,l),
(19,792,l),
(19,755,l),
(79,755,o),
(91,749,o),
(98,715,cs),
(103,691,o),
(105,647,o),
(105,568,cs),
(105,157,ls),
(105,56,o),
(97,45,o),
(16,40,c),
(16,0,l),
(331,0,l),
(331,40,l),
(251,45,o),
(244,55,o),
(244,164,cs),
(244,297,ls)
);
}
);
width = 714;
}
);
unicode = 104;
},
{
glyphname = hbar;
kernLeft = KERN_h_2ND;
kernRight = KERN_n_1ST;
layers = (
{
layerId = m001;
shapes = (
{
closed = 1;
nodes = (
(313,651,l),
(20,651,l),
(20,601,l),
(313,601,l)
);
},
{
ref = h;
}
);
width = 714;
}
);
unicode = 295;
},
{
glyphname = i;
kernLeft = KERN_i_2ND;
kernRight = KERN_i_1ST;
layers = (
{
anchors = (
{
name = bottom;
pos = (188,0);
},
{
name = top;
pos = (184,651);
}
);
layerId = m001;
shapes = (
{
closed = 1;
nodes = (
(25,502,l),
(25,468,l),
(86,468,o),
(104,460,o),
(111,427,cs),
(115,409,o),
(118,357,o),
(118,280,cs),
(118,157,ls),
(118,63,o),
(104,44,o),
(29,40,c),
(29,0,l),
(344,0,l),
(344,40,l),
(267,43,o),
(257,58,o),
(257,164,cs),
(257,540,l)
);
},
{
closed = 1;
nodes = (
(110,709,o),
(144,675,o),
(187,675,cs),
(231,675,o),
(265,709,o),
(265,752,cs),
(265,796,o),
(231,830,o),
(187,830,cs),
(144,830,o),
(110,796,o),
(110,752,cs)
);
}
);
width = 361;
}
);
unicode = 105;
},
{
glyphname = idotless;
kernLeft = KERN_i_2ND;
kernRight = KERN_i_1ST;
layers = (
{
anchors = (
{
name = top;
pos = (188,651);
}
);
layerId = m001;
shapes = (
{
closed = 1;
nodes = (
(25,502,l),
(25,468,l),
(86,468,o),
(104,460,o),
(111,427,cs),
(115,409,o),
(118,357,o),
(118,280,cs),
(118,157,ls),
(118,63,o),
(104,44,o),
(29,40,c),
(29,0,l),
(344,0,l),
(344,40,l),
(267,43,o),
(257,58,o),
(257,164,cs),
(257,540,l)
);
}
);
width = 361;
}
);
unicode = 305;
},
{
glyphname = j;
kernLeft = KERN_j_2ND;
kernRight = KERN_j_1ST;
layers = (
{
anchors = (
{
name = top;
pos = (173,651);
}
);
layerId = m001;
shapes = (
{
closed = 1;
nodes = (
(14,502,l),
(14,468,l),
(76,468,o),
(92,459,o),
(99,428,cs),
(103,411,o),
(107,363,o),
(107,290,cs),
(107,-78,ls),
(107,-172,o),
(82,-207,o),
(33,-207,cs),
(-39,-207,o),
(-24,-109,o),
(-99,-109,cs),
(-127,-109,o),
(-153,-128,o),
(-153,-161,cs),
(-153,-217,o),
(-91,-260,o),
(11,-260,cs),
(162,-260,o),
(246,-168,o),
(246,-2,cs),
(246,540,l)
);
},
{
closed = 1;
nodes = (
(99,709,o),
(133,675,o),
(176,675,cs),
(220,675,o),
(254,709,o),
(254,752,cs),
(254,796,o),
(220,830,o),
(176,830,cs),
(133,830,o),
(99,796,o),
(99,752,cs)
);
}
);
width = 331;
}
);
unicode = 106;
},
{
glyphname = jdotless;
kernLeft = KERN_j_2ND;
kernRight = KERN_j_1ST;
layers = (
{
anchors = (
{
name = top;
pos = (172,651);
}
);
layerId = m001;
shapes = (
{
closed = 1;
nodes = (
(14,502,l),
(14,468,l),
(76,468,o),
(92,459,o),
(99,428,cs),
(103,411,o),
(107,363,o),
(107,290,cs),
(107,-78,ls),
(107,-172,o),
(82,-207,o),
(33,-207,cs),
(-39,-207,o),
(-24,-109,o),
(-99,-109,cs),
(-127,-109,o),
(-153,-128,o),
(-153,-161,cs),
(-153,-217,o),
(-91,-260,o),
(11,-260,cs),
(162,-260,o),
(246,-168,o),
(246,-2,cs),
(246,540,l)
);
}
);
width = 331;
}
);
unicode = 567;
},
{
glyphname = k;
kernLeft = KERN_h_2ND;
kernRight = KERN_k_1ST;
layers = (
{
anchors = (
{
name = bottom;
pos = (345,0);
}
);
layerId = m001;
shapes = (
{
closed = 1;
nodes = (
(669,0,l),
(669,40,l),
(621,40,o),
(597,53,o),
(566,96,cs),
(393,341,l),
(490,432,ls),
(536,475,o),
(569,490,o),
(620,490,c),
(620,530,l),
(347,530,l),
(347,490,l),
(413,490,o),
(434,486,o),
(434,474,cs),
(434,460,o),
(407,430,o),
(338,365,cs),
(242,274,l),
(242,830,l),
(19,792,l),
(19,755,l),
(100,755,o),
(105,745,o),
(105,581,cs),
(105,157,ls),
(105,62,o),
(90,42,o),
(16,40,c),
(16,0,l),
(311,0,l),
(311,40,l),
(254,40,o),
(242,61,o),
(242,164,cs),
(242,203,l),
(292,251,l),
(368,137,ls),
(396,96,o),
(416,61,o),
(416,53,cs),
(416,43,o),
(401,40,o),
(358,40,c),
(358,0,l)
);
}
);
width = 664;
}
);
unicode = 107;
},
{
glyphname = kgreenlandic;
layers = (
{
layerId = m001;
shapes = (
{
closed = 1;
nodes = (
(680,0,l),
(680,40,l),
(636,40,o),
(610,49,o),
(577,96,cs),
(404,341,l),
(501,432,ls),
(547,475,o),
(581,490,o),
(631,490,c),
(631,530,l),
(358,530,l),
(358,490,l),
(430,490,o),
(445,485,o),
(445,474,cs),
(445,462,o),
(428,440,o),
(349,365,cs),
(253,274,l),
(253,540,l),
(30,502,l),
(30,465,l),
(109,465,o),
(116,460,o),
(116,291,cs),
(116,157,ls),
(116,62,o),
(99,40,o),
(27,40,c),
(27,0,l),
(322,0,l),
(322,40,l),
(265,40,o),
(253,61,o),
(253,164,cs),
(253,203,l),
(303,251,l),
(403,98,ls),
(414,81,o),
(420,69,o),
(420,60,cs),
(420,46,o),
(406,40,o),
(369,40,c),
(369,0,l)
);
}
);
width = 675;
}
);
unicode = 312;
},
{
glyphname = l;
kernLeft = KERN_l_2ND;
kernRight = KERN_l_1ST;
layers = (
{
anchors = (
{
name = bottom;
pos = (190,0);
},
{
name = topcap;
pos = (189,830);
}
);
layerId = m001;
shapes = (
{
closed = 1;
nodes = (
(15,792,l),
(15,758,l),
(76,758,o),
(94,750,o),
(101,717,cs),
(105,699,o),
(108,647,o),
(108,570,cs),
(108,157,ls),
(108,63,o),
(94,44,o),
(19,40,c),
(19,0,l),
(334,0,l),
(334,40,l),
(257,43,o),
(247,58,o),
(247,164,cs),
(247,830,l)
);
}
);
width = 355;
}
);
unicode = 108;
},
{
glyphname = lslash;
kernLeft = KERN_l_2ND;
kernRight = KERN_l_1ST;
layers = (
{
layerId = m001;
shapes = (
{
closed = 1;
nodes = (
(321,514,l),
(37,347,l),
(37,282,l),
(321,449,l)
);
},
{
pos = (1,0);
ref = l;
}
);
width = 357;
}
);
unicode = 322;
},
{
glyphname = m;
kernLeft = KERN_n_2ND;
layers = (
{
layerId = m001;
shapes = (
{
closed = 1;
nodes = (
(258,341,o),
(268,384,o),
(285,416,cs),
(304,452,o),
(331,475,o),
(375,475,cs),
(462,475,o),
(491,428,o),
(491,288,cs),
(491,157,ls),
(491,56,o),
(482,45,o),
(402,40,c),
(402,0,l),
(719,0,l),
(719,40,l),
(637,45,o),
(631,55,o),
(631,165,cs),
(631,297,ls),
(631,342,o),
(640,383,o),
(657,414,cs),
(677,450,o),
(705,475,o),
(752,475,cs),
(835,475,o),
(864,427,o),
(864,288,cs),
(864,157,ls),
(864,57,o),
(855,44,o),
(775,40,c),
(775,0,l),
(1091,0,l),
(1091,40,l),
(1012,45,o),
(1004,55,o),
(1004,165,cs),
(1004,319,ls),
(1004,406,o),
(991,452,o),
(965,482,cs),
(932,519,o),
(870,540,o),
(791,540,cs),
(716,540,o),
(646,507,o),
(598,451,c),
(594,451,l),
(565,508,o),
(508,540,o),
(420,540,cs),
(346,540,o),
(293,515,o),
(237,453,c),
(231,453,l),
(219,540,l),
(26,502,l),
(26,468,l),
(90,468,o),
(103,462,o),
(111,428,cs),
(116,410,o),
(118,357,o),
(118,281,cs),
(118,157,ls),
(118,56,o),
(108,45,o),
(28,40,c),
(28,0,l),
(344,0,l),
(344,40,l),
(264,45,o),
(258,54,o),
(258,165,cs),
(258,297,ls)
);
}
);
width = 1106;
}
);
unicode = 109;
},
{
glyphname = n;
kernLeft = KERN_n_2ND;
kernRight = KERN_n_1ST;
layers = (
{
anchors = (
{
name = bottom;
pos = (372,0);
},
{
name = top;
pos = (372,651);
}
);
layerId = m001;
shapes = (
{
closed = 1;
nodes = (
(257,342,o),
(267,383,o),
(279,407,cs),
(301,450,o),
(331,475,o),
(374,475,cs),
(461,475,o),
(490,428,o),
(490,292,cs),
(490,156,ls),
(490,57,o),
(480,44,o),
(401,40,c),
(401,0,l),
(714,0,l),
(714,40,l),
(637,45,o),
(629,55,o),
(629,163,cs),
(629,304,ls),
(629,389,o),
(609,433,o),
(586,464,cs),
(545,518,o),
(497,540,o),
(412,540,cs),
(341,540,o),
(279,507,o),
(235,452,c),
(231,452,l),
(218,540,l),
(25,502,l),
(25,468,l),
(86,468,o),
(103,461,o),
(111,426,cs),
(115,409,o),
(118,359,o),
(118,281,cs),
(118,156,ls),
(118,56,o),
(107,45,o),
(29,40,c),
(29,0,l),
(344,0,l),
(344,40,l),
(264,45,o),
(257,55,o),
(257,163,cs),
(257,301,ls)
);
}
);
width = 727;
}
);
unicode = 110;
},
{
glyphname = eng;
kernLeft = KERN_n_2ND;
layers = (
{
layerId = m001;
shapes = (
{
closed = 1;
nodes = (
(257,342,o),
(267,383,o),
(279,407,cs),
(301,450,o),
(331,475,o),
(374,475,cs),
(461,475,o),
(490,428,o),
(490,292,cs),
(490,-78,ls),
(490,-172,o),
(465,-207,o),
(416,-207,cs),
(344,-207,o),
(359,-109,o),
(284,-109,cs),
(256,-109,o),
(230,-128,o),
(230,-161,cs),
(230,-217,o),
(292,-260,o),
(394,-260,cs),
(545,-260,o),
(629,-168,o),
(629,-2,cs),
(629,304,ls),
(629,389,o),
(609,433,o),
(586,464,cs),
(545,518,o),
(497,540,o),
(412,540,cs),
(341,540,o),
(279,507,o),
(235,452,c),
(231,452,l),
(218,540,l),
(25,502,l),
(25,468,l),
(86,468,o),
(103,461,o),
(111,426,cs),
(115,409,o),
(118,359,o),
(118,281,cs),
(118,156,ls),
(118,56,o),
(107,45,o),
(29,40,c),
(29,0,l),
(344,0,l),
(344,40,l),
(264,45,o),
(257,55,o),
(257,163,cs),
(257,301,ls)
);
}
);
width = 700;
}
);
unicode = 331;
},
{
glyphname = o;
kernLeft = KERN_o_2ND;
kernRight = KERN_o_1ST;
layers = (
{
anchors = (
{
name = bottom;
pos = (329,0);
},
{
name = top;
pos = (329,651);
}
);
layerId = m001;
shapes = (
{
closed = 1;
nodes = (
(170,540,o),
(37,427,o),
(37,269,cs),
(37,106,o),
(170,-10,o),
(328,-10,cs),
(487,-10,o),
(623,107,o),
(623,269,cs),
(623,426,o),
(487,540,o),
(328,540,cs)
);
},
{
closed = 1;
nodes = (
(411,482,o),
(466,395,o),
(466,268,cs),
(466,137,o),
(412,51,o),
(328,51,cs),
(246,51,o),
(194,136,o),
(194,268,cs),
(194,396,o),
(247,482,o),
(328,482,cs)
);
}
);
width = 660;
}
);
unicode = 111;
},
{
glyphname = oslash;
kernLeft = KERN_o_2ND;
kernRight = KERN_o_1ST;
layers = (
{
layerId = m001;
shapes = (
{
closed = 1;
nodes = (
(565,592,l),
(23,-61,l),
(103,-61,l),
(646,592,l)
);
},
{
pos = (-1,0);
ref = o;
}
);
width = 658;
}
);
unicode = 248;
},
{
glyphname = oslashacute;
kernLeft = KERN_o_2ND;
kernRight = KERN_o_1ST;
layers = (
{
layerId = m001;
shapes = (
{
closed = 1;
nodes = (
(564,592,l),
(22,-61,l),
(103,-61,l),
(646,592,l)
);
},
{
pos = (250,0);
ref = acute;
},
{
pos = (-1,0);
ref = o;
}
);
width = 658;
}
);
unicode = 511;
},
{
glyphname = p;
kernRight = KERN_b_1ST;
layers = (
{
layerId = m001;
shapes = (
{
closed = 1;
nodes = (
(17,508,l),
(17,469,l),
(73,469,o),
(93,459,o),
(99,428,cs),
(103,406,o),
(106,343,o),
(106,282,cs),
(106,-90,ls),
(106,-186,o),
(91,-206,o),
(19,-208,c),
(19,-250,l),
(364,-250,l),
(364,-208,l),
(260,-205,o),
(244,-189,o),
(244,-83,cs),
(244,56,l),
(248,56,l),
(283,11,o),
(330,-10,o),
(396,-10,cs),
(549,-10,o),
(659,106,o),
(659,265,cs),
(659,425,o),
(549,540,o),
(394,540,cs),
(323,540,o),
(266,515,o),
(222,465,c),
(218,465,l),
(218,536,l)
);
},
{
closed = 1;
nodes = (
(467,483,o),
(508,408,o),
(508,263,cs),
(508,123,o),
(469,56,o),
(388,56,cs),
(343,56,o),
(306,75,o),
(281,111,cs),
(258,144,o),
(246,186,o),
(246,232,cs),
(246,300,ls),
(246,353,o),
(259,402,o),
(281,432,cs),
(304,463,o),
(345,483,o),
(388,483,cs)
);
}
);
width = 697;
}
);
unicode = 112;
},
{
glyphname = thorn;
kernLeft = KERN_b_2ND;
kernRight = KERN_b_1ST;
layers = (
{
layerId = m001;
shapes = (
{
closed = 1;
nodes = (
(85,-194,o),
(70,-212,o),
(-13,-215,c),
(-13,-250,l),
(347,-250,l),
(347,-215,l),
(243,-212,o),
(227,-196,o),
(227,-90,cs),
(227,56,l),
(264,10,o),
(309,-11,o),
(371,-11,cs),
(520,-11,o),
(636,111,o),
(636,268,cs),
(636,422,o),
(527,540,o),
(385,540,cs),
(316,540,o),
(263,513,o),
(227,459,c),
(223,459,l),
(223,830,l),
(-11,790,l),
(-11,755,l),
(50,747,o),
(64,741,o),
(72,723,cs),
(81,703,o),
(85,658,o),
(85,594,cs),
(85,-97,ls)
);
},
{
closed = 1;
nodes = (
(225,338,o),
(232,369,o),
(248,403,cs),
(274,455,o),
(306,477,o),
(355,477,cs),
(441,477,o),
(485,405,o),
(485,263,cs),
(485,122,o),
(440,47,o),
(357,47,cs),
(279,47,o),
(225,113,o),
(225,209,cs),
(225,298,ls)
);
}
);
width = 674;
}
);
unicode = 254;
},
{
glyphname = q;
kernLeft = KERN_d_2ND;
layers = (
{
layerId = m001;
shapes = (
{
closed = 1;
nodes = (
(449,202,o),
(441,160,o),
(426,128,cs),
(404,82,o),
(362,55,o),
(314,55,cs),
(234,55,o),
(190,131,o),
(190,269,cs),
(190,405,o),
(235,482,o),
(314,482,cs),
(391,482,o),
(449,409,o),
(449,311,cs),
(449,249,ls)
);
},
{
closed = 1;
nodes = (
(451,-183,o),
(425,-208,o),
(328,-210,c),
(328,-250,l),
(686,-250,l),
(686,-210,l),
(597,-207,o),
(589,-196,o),
(589,-85,cs),
(589,530,l),
(545,530,l),
(469,472,l),
(422,517,o),
(365,540,o),
(298,540,cs),
(147,540,o),
(39,425,o),
(39,263,cs),
(39,105,o),
(146,-10,o),
(293,-10,cs),
(355,-10,o),
(400,11,o),
(446,62,c),
(451,62,l),
(451,-92,ls)
);
}
);
width = 674;
}
);
unicode = 113;
},
{
glyphname = r;
kernLeft = KERN_n_2ND;
kernRight = KERN_r_1ST;
layers = (
{
anchors = (
{
name = bottom;
pos = (190,0);
},
{
name = top;
pos = (289,651);
}
);
layerId = m001;
shapes = (
{
closed = 1;
nodes = (
(258,252,o),
(265,305,o),
(276,345,cs),
(290,401,o),
(315,437,o),
(340,437,cs),
(368,437,o),
(386,397,o),
(427,397,cs),
(469,397,o),
(496,430,o),
(496,473,cs),
(496,512,o),
(461,540,o),
(410,540,cs),
(345,540,o),
(282,495,o),
(246,425,c),
(242,425,l),
(226,540,l),
(26,503,l),
(26,468,l),
(107,468,o),
(119,444,o),
(119,279,cs),
(119,157,ls),
(119,56,o),
(111,45,o),
(30,40,c),
(30,0,l),
(364,0,l),
(364,40,l),
(271,41,o),
(258,52,o),
(258,155,cs),
(258,203,ls)
);
}
);
width = 498;
}
);
unicode = 114;
},
{
glyphname = s;
kernLeft = KERN_s_2ND;
kernRight = KERN_s_1ST;
layers = (
{
anchors = (
{
name = bottom;
pos = (240,1);
},
{
name = top;
pos = (222,651);
}
);
layerId = m001;
shapes = (
{
closed = 1;
nodes = (
(139,6,o),
(191,-10,o),
(248,-10,cs),
(358,-10,o),
(430,51,o),
(430,143,cs),
(430,215,o),
(387,266,o),
(279,324,cs),
(204,364,o),
(173,395,o),
(173,432,cs),
(173,465,o),
(197,487,o),
(234,487,cs),
(280,487,o),
(310,456,o),
(341,380,c),
(380,380,l),
(380,531,l),
(354,531,l),
(336,507,l),
(306,528,o),
(262,541,o),
(221,541,cs),
(128,541,o),
(58,475,o),
(58,386,cs),
(58,318,o),
(99,268,o),
(200,213,cs),
(274,173,o),
(306,139,o),
(306,102,cs),
(306,66,o),
(277,44,o),
(228,44,cs),
(160,44,o),
(119,87,o),
(96,182,c),
(54,182,l),
(54,0,l),
(85,0,l),
(107,35,l)
);
}
);
width = 466;
}
);
unicode = 115;
},
{
glyphname = germandbls;
kernLeft = KERN_h_2ND;
layers = (
{
layerId = m001;
shapes = (
{
closed = 1;
nodes = (
(198,830,o),
(107,742,o),
(107,586,cs),
(107,156,ls),
(107,56,o),
(95,41,o),
(16,41,c),
(16,0,l),
(294,0,l),
(294,41,l),
(255,41,o),
(246,65,o),
(246,164,cs),
(246,592,ls),
(246,718,o),
(278,770,o),
(356,770,cs),
(429,770,o),
(463,726,o),
(463,633,cs),
(463,536,o),
(425,492,o),
(342,492,c),
(342,431,l),
(456,431,o),
(522,351,o),
(522,211,cs),
(522,116,o),
(494,46,o),
(455,46,cs),
(414,46,o),
(424,123,o),
(368,123,cs),
(339,123,o),
(321,104,o),
(321,76,cs),
(321,25,o),
(373,-10,o),
(449,-10,cs),
(578,-10,o),
(673,89,o),
(673,223,cs),
(673,357,o),
(581,462,o),
(462,462,c),
(462,467,l),
(559,485,o),
(614,546,o),
(614,636,cs),
(614,752,o),
(512,830,o),
(358,830,cs)
);
}
);
width = 711;
}
);
unicode = 223;
},
{
glyphname = t;
kernLeft = KERN_t_2ND;
kernRight = KERN_t_1ST;
layers = (
{
anchors = (
{
name = bottom;
pos = (256,0);
}
);
layerId = m001;
shapes = (
{
closed = 1;
nodes = (
(98,112,ls),
(98,35,o),
(152,-10,o),
(244,-10,cs),
(312,-10,o),
(358,15,o),
(376,61,c),
(355,90,l),
(341,65,o),
(323,54,o),
(296,54,cs),
(254,54,o),
(237,86,o),
(237,168,cs),
(237,475,l),
(352,475,l),
(352,530,l),
(237,530,l),
(237,651,l),
(186,651,l),
(159,592,o),
(104,543,o),
(25,520,c),
(25,475,l),
(98,475,l)
);
}
);
width = 382;
}
);
unicode = 116;
},
{
glyphname = tbar;
kernLeft = KERN_t_2ND;
kernRight = KERN_t_1ST;
layers = (
{
layerId = m001;
shapes = (
{
closed = 1;
nodes = (
(342,381,l),
(49,381,l),
(49,331,l),
(342,331,l)
);
},
{
pos = (3,0);
ref = t;
}
);
width = 385;
}
);
unicode = 359;
},
{
glyphname = u;
kernLeft = KERN_u;
kernRight = KERN_u;
layers = (
{
anchors = (
{
name = bottom;
pos = (297,0);
},
{
name = top;
pos = (320,651);
}
);
layerId = m001;
shapes = (
{
closed = 1;
nodes = (
(465,193,o),
(455,145,o),
(433,109,cs),
(412,73,o),
(382,55,o),
(342,55,cs),
(269,55,o),
(237,113,o),
(237,247,cs),
(237,530,l),
(13,530,l),
(13,490,l),
(93,481,o),
(98,476,o),
(98,366,cs),
(98,231,ls),
(98,158,o),
(112,105,o),
(141,66,cs),
(178,16,o),
(234,-10,o),
(304,-10,cs),
(381,-10,o),
(448,23,o),
(482,78,c),
(486,78,l),
(497,-11,l),
(696,1,l),
(696,40,l),
(630,40,o),
(618,46,o),
(611,80,cs),
(606,102,o),
(604,146,o),
(604,227,cs),
(604,530,l),
(378,530,l),
(378,490,l),
(459,482,o),
(465,474,o),
(465,366,cs),
(465,262,ls)
);
}
);
width = 709;
}
);
unicode = 117;
},
{
glyphname = v;
layers = (
{
layerId = m001;
shapes = (
{
closed = 1;
nodes = (
(350,-10,l),
(537,414,ls),
(565,478,o),
(588,490,o),
(624,490,c),
(624,530,l),
(403,530,l),
(403,490,l),
(453,489,o),
(471,476,o),
(471,447,cs),
(471,432,o),
(465,414,o),
(456,392,cs),
(349,131,l),
(345,131,l),
(250,393,ls),
(241,416,o),
(233,440,o),
(233,457,cs),
(233,479,o),
(239,490,o),
(306,490,c),
(306,530,l),
(7,530,l),
(7,490,l),
(53,490,o),
(71,478,o),
(101,401,cs),
(259,-10,l)
);
}
);
width = 624;
}
);
unicode = 118;
},
{
glyphname = w;
kernLeft = KERN_w;
kernRight = KERN_w;
layers = (
{
anchors = (
{
name = top;
pos = (469,651);
}
);
layerId = m001;
shapes = (
{
closed = 1;
nodes = (
(238,-10,l),
(101,401,ls),
(80,465,o),
(54,487,o),
(8,490,c),
(8,530,l),
(294,530,l),
(294,490,l),
(246,489,o),
(230,477,o),
(230,447,cs),
(230,433,o),
(235,415,o),
(241,393,cs),
(304,159,l),
(308,159,l),
(448,530,l),
(530,530,l),
(635,159,l),
(640,159,l),
(720,366,ls),
(733,399,o),
(738,424,o),
(738,442,cs),
(738,477,o),
(713,490,o),
(675,490,c),
(675,530,l),
(890,530,l),
(890,490,l),
(843,490,o),
(832,480,o),
(775,336,cs),
(637,-10,l),
(558,-10,l),
(452,345,l),
(448,345,l),
(313,-10,l)
);
}
);
width = 891;
}
);
unicode = 119;
},
{
glyphname = x;
layers = (
{
layerId = m001;
shapes = (
{
closed = 1;
nodes = (
(282,436,ls),
(275,446,o),
(271,455,o),
(271,462,cs),
(271,480,o),
(289,490,o),
(322,490,c),
(322,530,l),
(17,530,l),
(17,490,l),
(50,490,o),
(65,486,o),
(90,454,cs),
(257,242,l),
(118,79,ls),
(95,52,o),
(51,40,o),
(9,40,c),
(9,0,l),
(260,0,l),
(260,40,l),
(217,40,o),
(199,49,o),
(199,71,cs),
(199,81,o),
(203,92,o),
(249,147,cs),
(293,200,l),
(351,120,ls),
(370,94,o),
(379,79,o),
(379,64,cs),
(379,46,o),
(366,40,o),
(327,40,c),
(327,0,l),
(645,0,l),
(645,40,l),
(601,40,o),
(576,51,o),
(545,91,cs),
(387,294,l),
(489,412,ls),
(545,477,o),
(571,488,o),
(621,490,c),
(621,530,l),
(391,530,l),
(391,490,l),
(427,490,o),
(441,483,o),
(441,464,cs),
(441,449,o),
(434,440,o),
(406,404,cs),
(353,336,l)
);
}
);
width = 648;
}
);
unicode = 120;
},
{
glyphname = y;
kernLeft = KERN_y;
kernRight = KERN_y;
layers = (
{
anchors = (
{
name = top;
pos = (370,651);
}
);
layerId = m001;
shapes = (
{
closed = 1;
nodes = (
(586,471,o),
(602,490,o),
(654,490,c),
(654,530,l),
(413,530,l),
(413,490,l),
(471,490,o),
(486,481,o),
(486,446,cs),
(486,423,o),
(478,401,o),
(442,318,cs),
(356,123,l),
(352,123,l),
(250,415,ls),
(245,430,o),
(241,445,o),
(241,455,cs),
(241,481,o),
(259,490,o),
(311,490,c),
(311,530,l),
(8,530,l),
(8,490,l),
(60,488,o),
(71,478,o),
(102,401,cs),
(279,-37,l),
(252,-89,ls),
(235,-121,o),
(198,-140,o),
(137,-145,cs),
(85,-149,o),
(63,-168,o),
(63,-201,cs),
(63,-237,o),
(92,-260,o),
(136,-260,cs),
(194,-260,o),
(259,-216,o),
(287,-157,cs),
(516,323,ls)
);
}
);
width = 646;
}
);
unicode = 121;
},
{
glyphname = z;
kernLeft = KERN_z_2ND;
kernRight = KERN_z_1ST;
layers = (
{
anchors = (
{
name = bottom;
pos = (304,0);
},
{
name = top;
pos = (300,651);
}
);
layerId = m001;
shapes = (
{
closed = 1;
nodes = (
(493,170,l),
(468,72,o),
(438,54,o),
(298,54,cs),
(210,54,l),
(518,507,l),
(518,530,l),
(67,530,l),
(55,374,l),
(94,374,l),
(110,462,o),
(133,477,o),
(247,477,cs),
(339,477,l),
(26,23,l),
(26,0,l),
(520,0,l),
(532,170,l)
);
}
);
width = 568;
}
);
unicode = 122;
},
{
glyphname = c_t;
kernLeft = KERN_e_2ND;
kernRight = KERN_t_1ST;
layers = (
{
layerId = m001;
shapes = (
{
closed = 1;
nodes = (
(452,83,o),
(395,61,o),
(343,61,cs),
(246,61,o),
(193,138,o),
(193,278,cs),
(193,407,o),
(238,482,o),
(316,482,cs),
(349,482,o),
(354,478,o),
(400,410,cs),
(425,373,o),
(445,359,o),
(474,359,cs),
(511,359,o),
(536,383,o),
(536,420,cs),
(536,446,o),
(523,470,o),
(500,489,c),
(469,523,o),
(455,560,o),
(455,606,cs),
(455,694,o),
(510,749,o),
(599,749,cs),
(679,749,o),
(733,703,o),
(733,635,cs),
(733,570,o),
(678,526,o),
(590,520,c),
(590,475,l),
(663,475,l),
(663,112,ls),
(663,35,o),
(717,-10,o),
(809,-10,cs),
(877,-10,o),
(923,15,o),
(941,61,c),
(920,90,l),
(905,65,o),
(888,54,o),
(862,54,cs),
(819,54,o),
(802,86,o),
(802,168,cs),
(802,475,l),
(917,475,l),
(917,530,l),
(802,530,l),
(802,609,ls),
(802,737,o),
(734,804,o),
(604,804,cs),
(469,804,o),
(395,734,o),
(395,611,cs),
(395,580,o),
(399,555,o),
(409,531,c),
(385,537,o),
(358,540,o),
(330,540,cs),
(156,540,o),
(39,429,o),
(39,263,cs),
(39,103,o),
(149,-5,o),
(311,-5,cs),
(398,-5,o),
(478,27,o),
(528,83,c),
(502,121,l)
);
}
);
width = 947;
}
);
},
{
glyphname = f_b;
kernLeft = KERN_f_2ND;
kernRight = KERN_b_1ST;
layers = (
{
layerId = m001;
shapes = (
{
closed = 1;
nodes = (
(516,804,l),
(488,819,o),
(428,830,o),
(374,830,cs),
(216,830,o),
(121,739,o),
(121,586,cs),
(121,514,l),
(18,514,l),
(18,457,l),
(121,457,l),
(121,158,ls),
(121,58,o),
(112,44,o),
(47,40,c),
(47,0,l),
(344,0,l),
(344,40,l),
(277,42,o),
(260,67,o),
(260,166,cs),
(260,457,l),
(375,457,l),
(375,514,l),
(260,514,l),
(260,592,ls),
(260,711,o),
(291,772,o),
(352,772,cs),
(386,772,o),
(428,752,o),
(461,718,c),
(461,0,l),
(495,0,l),
(571,67,l),
(610,20,o),
(678,-11,o),
(753,-11,cs),
(894,-11,o),
(1012,109,o),
(1012,265,cs),
(1012,420,o),
(904,540,o),
(764,540,cs),
(694,540,o),
(637,511,o),
(603,461,c),
(599,461,l),
(599,830,l)
);
},
{
closed = 1;
nodes = (
(601,406,o),
(654,477,o),
(738,477,cs),
(818,477,o),
(860,402,o),
(860,261,cs),
(860,123,o),
(817,47,o),
(738,47,cs),
(659,47,o),
(601,120,o),
(601,219,cs),
(601,282,ls)
);
}
);
width = 1050;
}
);
},
{
glyphname = f_f;
kernLeft = KERN_f_2ND;
kernRight = KERN_f_1ST;
layers = (
{
layerId = m001;
shapes = (
{
closed = 1;
nodes = (
(462,457,l),
(462,158,ls),
(462,59,o),
(454,43,o),
(401,40,c),
(401,0,l),
(700,0,l),
(700,40,l),
(620,42,o),
(601,66,o),
(601,166,cs),
(601,457,l),
(758,457,l),
(758,514,l),
(601,514,l),
(601,592,ls),
(601,730,o),
(641,772,o),
(698,772,cs),
(718,772,o),
(730,763,o),
(757,728,cs),
(777,702,o),
(800,688,o),
(832,688,cs),
(859,688,o),
(882,705,o),
(882,741,cs),
(882,795,o),
(823,830,o),
(732,830,cs),
(641,830,o),
(547,801,o),
(498,757,c),
(463,781,o),
(431,790,o),
(381,790,cs),
(225,790,o),
(126,696,o),
(126,546,cs),
(126,514,l),
(19,514,l),
(19,457,l),
(126,457,l),
(126,158,ls),
(126,57,o),
(116,44,o),
(37,40,c),
(37,0,l),
(340,0,l),
(340,40,l),
(280,42,o),
(265,67,o),
(265,166,cs),
(265,457,l)
);
},
{
closed = 1;
nodes = (
(265,552,ls),
(265,666,o),
(286,732,o),
(349,732,cs),
(387,732,o),
(418,718,o),
(462,660,c),
(462,514,l),
(265,514,l)
);
}
);
width = 772;
}
);
unicode = 64256;
},
{
glyphname = f_f_b;
kernLeft = KERN_f_2ND;
kernRight = KERN_b_1ST;
layers = (
{
layerId = m001;
shapes = (
{
closed = 1;
nodes = (
(878,801,l),
(845,819,o),
(794,830,o),
(732,830,cs),
(641,830,o),
(547,801,o),
(498,757,c),
(463,781,o),
(431,790,o),
(381,790,cs),
(225,790,o),
(126,696,o),
(126,546,cs),
(126,514,l),
(19,514,l),
(19,457,l),
(126,457,l),
(126,158,ls),
(126,57,o),
(116,44,o),
(37,40,c),
(37,0,l),
(340,0,l),
(340,40,l),
(280,42,o),
(265,67,o),
(265,166,cs),
(265,457,l),
(462,457,l),
(462,158,ls),
(462,59,o),
(453,43,o),
(391,40,c),
(391,0,l),
(685,0,l),
(685,40,l),
(617,42,o),
(601,66,o),
(601,166,cs),
(601,457,l),
(733,457,l),
(733,514,l),
(601,514,l),
(601,592,ls),
(601,730,o),
(641,772,o),
(698,772,cs),
(730,772,o),
(769,758,o),
(802,725,c),
(802,0,l),
(836,0,l),
(912,67,l),
(951,20,o),
(1019,-11,o),
(1094,-11,cs),
(1235,-11,o),
(1353,109,o),
(1353,265,cs),
(1353,420,o),
(1245,540,o),
(1105,540,cs),
(1035,540,o),
(978,511,o),
(944,461,c),
(940,461,l),
(940,830,l)
);
},
{
closed = 1;
nodes = (
(942,406,o),
(995,477,o),
(1079,477,cs),
(1159,477,o),
(1201,402,o),
(1201,261,cs),
(1201,123,o),
(1158,47,o),
(1079,47,cs),
(1000,47,o),
(942,120,o),
(942,219,cs),
(942,282,ls)
);
},
{
closed = 1;
nodes = (
(265,552,ls),
(265,666,o),
(286,732,o),
(349,732,cs),
(387,732,o),
(418,718,o),
(462,660,c),
(462,514,l),
(265,514,l)
);
}
);
width = 1391;
}
);
},
{
glyphname = f_f_h;
kernLeft = KERN_f_2ND;
kernRight = KERN_n_1ST;
layers = (
{
layerId = m001;
shapes = (
{
closed = 1;
nodes = (
(942,353,o),
(955,399,o),
(978,430,cs),
(1001,459,o),
(1032,474,o),
(1073,474,cs),
(1148,474,o),
(1175,422,o),
(1175,280,cs),
(1175,157,ls),
(1175,56,o),
(1166,44,o),
(1086,40,c),
(1086,0,l),
(1399,0,l),
(1399,40,l),
(1320,45,o),
(1314,53,o),
(1314,164,cs),
(1314,319,ls),
(1314,380,o),
(1293,440,o),
(1258,480,cs),
(1222,520,o),
(1171,540,o),
(1106,540,cs),
(1035,540,o),
(985,515,o),
(944,461,c),
(940,461,l),
(940,830,l),
(870,805,l),
(837,821,o),
(790,830,o),
(732,830,cs),
(641,830,o),
(547,801,o),
(498,757,c),
(463,781,o),
(431,790,o),
(381,790,cs),
(225,790,o),
(126,696,o),
(126,546,cs),
(126,514,l),
(19,514,l),
(19,457,l),
(126,457,l),
(126,158,ls),
(126,57,o),
(116,44,o),
(37,40,c),
(37,0,l),
(340,0,l),
(340,40,l),
(280,42,o),
(265,67,o),
(265,166,cs),
(265,457,l),
(462,457,l),
(462,158,ls),
(462,59,o),
(453,43,o),
(391,40,c),
(391,0,l),
(685,0,l),
(685,40,l),
(617,42,o),
(601,66,o),
(601,166,cs),
(601,457,l),
(733,457,l),
(733,514,l),
(601,514,l),
(601,592,ls),
(601,730,o),
(641,772,o),
(698,772,cs),
(730,772,o),
(768,758,o),
(801,725,c),
(801,724,o),
(802,723,o),
(803,723,c),
(803,157,ls),
(803,56,o),
(797,45,o),
(734,40,c),
(734,0,l),
(1029,0,l),
(1029,40,l),
(949,45,o),
(942,55,o),
(942,164,cs),
(942,297,ls)
);
},
{
closed = 1;
nodes = (
(265,552,ls),
(265,666,o),
(286,732,o),
(349,732,cs),
(387,732,o),
(418,718,o),
(462,660,c),
(462,514,l),
(265,514,l)
);
}
);
width = 1412;
}
);
},
{
glyphname = f_f_i;
kernLeft = KERN_f_2ND;
kernRight = KERN_i_1ST;
layers = (
{
layerId = m001;
shapes = (
{
closed = 1;
nodes = (
(757,514,l),
(601,514,l),
(601,592,ls),
(601,730,o),
(641,772,o),
(698,772,cs),
(730,772,o),
(764,761,o),
(797,728,cs),
(827,698,o),
(846,688,o),
(872,688,cs),
(899,688,o),
(922,705,o),
(922,741,cs),
(922,795,o),
(847,830,o),
(732,830,cs),
(641,830,o),
(547,801,o),
(498,757,c),
(463,781,o),
(431,790,o),
(381,790,cs),
(225,790,o),
(126,696,o),
(126,546,cs),
(126,514,l),
(19,514,l),
(19,457,l),
(126,457,l),
(126,158,ls),
(126,57,o),
(116,44,o),
(37,40,c),
(37,0,l),
(340,0,l),
(340,40,l),
(280,42,o),
(265,67,o),
(265,166,cs),
(265,457,l),
(462,457,l),
(462,158,ls),
(462,59,o),
(453,43,o),
(391,40,c),
(391,0,l),
(685,0,l),
(685,40,l),
(617,42,o),
(601,66,o),
(601,166,cs),
(601,457,l),
(708,457,ls),
(769,457,o),
(787,449,o),
(794,416,cs),
(798,398,o),
(801,346,o),
(801,269,cs),
(801,157,ls),
(801,64,o),
(791,44,o),
(732,40,c),
(732,0,l),
(1027,0,l),
(1027,40,l),
(950,43,o),
(940,59,o),
(940,164,cs),
(940,540,l)
);
},
{
closed = 1;
nodes = (
(265,552,ls),
(265,666,o),
(286,732,o),
(349,732,cs),
(387,732,o),
(418,718,o),
(462,660,c),
(462,514,l),
(265,514,l)
);
}
);
width = 1044;
}
);
unicode = 64259;
},
{
glyphname = f_f_j;
kernLeft = KERN_f_2ND;
kernRight = KERN_j_1ST;
layers = (
{
layerId = m001;
shapes = (
{
closed = 1;
nodes = (
(757,514,l),
(601,514,l),
(601,592,ls),
(601,730,o),
(641,772,o),
(698,772,cs),
(730,772,o),
(764,761,o),
(797,728,cs),
(827,698,o),
(846,688,o),
(872,688,cs),
(899,688,o),
(922,705,o),
(922,741,cs),
(922,795,o),
(847,830,o),
(732,830,cs),
(641,830,o),
(547,801,o),
(498,757,c),
(463,781,o),
(431,790,o),
(381,790,cs),
(225,790,o),
(126,696,o),
(126,546,cs),
(126,514,l),
(19,514,l),
(19,457,l),
(126,457,l),
(126,158,ls),
(126,57,o),
(116,44,o),
(37,40,c),
(37,0,l),
(340,0,l),
(340,40,l),
(280,42,o),
(265,67,o),
(265,166,cs),
(265,457,l),
(462,457,l),
(462,158,ls),
(462,59,o),
(453,43,o),
(391,40,c),
(391,0,l),
(685,0,l),
(685,40,l),
(617,42,o),
(601,66,o),
(601,166,cs),
(601,457,l),
(708,457,ls),
(769,457,o),
(794,449,o),
(801,416,c),
(801,-78,ls),
(801,-172,o),
(776,-207,o),
(727,-207,cs),
(655,-207,o),
(670,-109,o),
(595,-109,cs),
(567,-109,o),
(541,-128,o),
(541,-161,cs),
(541,-217,o),
(603,-260,o),
(705,-260,cs),
(856,-260,o),
(940,-168,o),
(940,-2,cs),
(940,540,l)
);
},
{
closed = 1;
nodes = (
(265,552,ls),
(265,666,o),
(286,732,o),
(349,732,cs),
(387,732,o),
(418,718,o),
(462,660,c),
(462,514,l),
(265,514,l)
);
}
);
width = 1025;
}
);
},
{
glyphname = f_f_k;
kernLeft = KERN_f_2ND;
kernRight = KERN_k_1ST;
layers = (
{
layerId = m001;
shapes = (
{
closed = 1;
nodes = (
(1367,0,l),
(1367,40,l),
(1323,40,o),
(1297,49,o),
(1264,96,cs),
(1091,341,l),
(1188,432,ls),
(1234,475,o),
(1268,490,o),
(1318,490,c),
(1318,530,l),
(1045,530,l),
(1045,490,l),
(1117,490,o),
(1132,485,o),
(1132,474,cs),
(1132,462,o),
(1115,440,o),
(1036,365,cs),
(940,274,l),
(940,830,l),
(879,801,l),
(846,819,o),
(795,830,o),
(732,830,cs),
(641,830,o),
(547,801,o),
(498,757,c),
(463,781,o),
(431,790,o),
(381,790,cs),
(225,790,o),
(126,696,o),
(126,546,cs),
(126,514,l),
(19,514,l),
(19,457,l),
(126,457,l),
(126,158,ls),
(126,57,o),
(116,44,o),
(37,40,c),
(37,0,l),
(340,0,l),
(340,40,l),
(280,42,o),
(265,67,o),
(265,166,cs),
(265,457,l),
(462,457,l),
(462,158,ls),
(462,59,o),
(453,43,o),
(391,40,c),
(391,0,l),
(685,0,l),
(685,40,l),
(617,42,o),
(601,66,o),
(601,166,cs),
(601,457,l),
(733,457,l),
(733,514,l),
(601,514,l),
(601,592,ls),
(601,730,o),
(641,772,o),
(698,772,cs),
(730,772,o),
(770,758,o),
(803,725,c),
(803,157,ls),
(803,62,o),
(785,40,o),
(714,40,c),
(714,0,l),
(1009,0,l),
(1009,40,l),
(954,40,o),
(940,61,o),
(940,164,cs),
(940,203,l),
(990,251,l),
(1078,113,ls),
(1105,71,o),
(1108,64,o),
(1108,56,cs),
(1108,44,o),
(1097,40,o),
(1056,40,c),
(1056,0,l)
);
},
{
closed = 1;
nodes = (
(265,552,ls),
(265,666,o),
(286,732,o),
(349,732,cs),
(387,732,o),
(418,718,o),
(462,660,c),
(462,514,l),
(265,514,l)
);
}
);
width = 1362;
}
);
},
{
glyphname = f_f_l;
kernLeft = KERN_f_2ND;
kernRight = KERN_l_1ST;
layers = (
{
layerId = m001;
shapes = (
{
closed = 1;
nodes = (
(462,457,l),
(462,158,ls),
(462,59,o),
(453,43,o),
(391,40,c),
(391,0,l),
(685,0,l),
(685,40,l),
(617,42,o),
(601,66,o),
(601,166,cs),
(601,457,l),
(733,457,l),
(733,514,l),
(601,514,l),
(601,592,ls),
(601,730,o),
(641,772,o),
(698,772,cs),
(730,772,o),
(768,758,o),
(801,725,c),
(801,157,ls),
(801,64,o),
(791,44,o),
(732,40,c),
(732,0,l),
(1027,0,l),
(1027,40,l),
(950,43,o),
(940,59,o),
(940,164,cs),
(940,830,l),
(867,807,l),
(834,822,o),
(788,830,o),
(732,830,cs),
(641,830,o),
(547,801,o),
(498,757,c),
(463,781,o),
(431,790,o),
(381,790,cs),
(225,790,o),
(126,696,o),
(126,546,cs),
(126,514,l),
(19,514,l),
(19,457,l),
(126,457,l),
(126,158,ls),
(126,57,o),
(116,44,o),
(37,40,c),
(37,0,l),
(340,0,l),
(340,40,l),
(280,42,o),
(265,67,o),
(265,166,cs),
(265,457,l)
);
},
{
closed = 1;
nodes = (
(265,552,ls),
(265,666,o),
(286,732,o),
(349,732,cs),
(387,732,o),
(418,718,o),
(462,660,c),
(462,514,l),
(265,514,l)
);
}
);
width = 1048;
}
);
unicode = 64260;
},
{
glyphname = f_f_t;
kernLeft = KERN_f_2ND;
kernRight = KERN_t_1ST;
layers = (
{
layerId = m001;
shapes = (
{
closed = 1;
nodes = (
(809,112,ls),
(809,35,o),
(863,-10,o),
(955,-10,cs),
(1023,-10,o),
(1069,15,o),
(1087,61,c),
(1066,90,l),
(1052,65,o),
(1034,54,o),
(1007,54,cs),
(965,54,o),
(948,86,o),
(948,168,cs),
(948,475,l),
(1063,475,l),
(1063,530,l),
(948,530,l),
(948,651,l),
(897,651,l),
(875,591,o),
(806,530,o),
(741,530,cs),
(599,530,l),
(599,592,ls),
(599,730,o),
(639,772,o),
(696,772,cs),
(716,772,o),
(728,763,o),
(755,728,cs),
(775,702,o),
(798,688,o),
(830,688,cs),
(857,688,o),
(880,705,o),
(880,741,cs),
(880,795,o),
(821,830,o),
(730,830,cs),
(639,830,o),
(545,801,o),
(496,757,c),
(461,781,o),
(429,790,o),
(379,790,cs),
(223,790,o),
(124,696,o),
(124,546,cs),
(124,530,l),
(17,530,l),
(17,475,l),
(124,475,l),
(124,158,ls),
(124,57,o),
(117,40,o),
(35,40,c),
(35,0,l),
(338,0,l),
(338,40,l),
(279,40,o),
(263,67,o),
(263,166,cs),
(263,475,l),
(460,475,l),
(460,158,ls),
(460,59,o),
(452,40,o),
(399,40,c),
(399,0,l),
(698,0,l),
(698,40,l),
(619,40,o),
(599,66,o),
(599,166,cs),
(599,475,l),
(809,475,l)
);
},
{
closed = 1;
nodes = (
(263,552,ls),
(263,666,o),
(284,732,o),
(347,732,cs),
(385,732,o),
(416,718,o),
(460,660,c),
(460,530,l),
(263,530,l)
);
}
);
width = 1093;
}
);
},
{
glyphname = f_h;
kernLeft = KERN_f_2ND;
kernRight = KERN_n_1ST;
layers = (
{
layerId = m001;
shapes = (
{
closed = 1;
nodes = (
(601,406,o),
(647,474,o),
(732,474,cs),
(807,474,o),
(834,422,o),
(834,280,cs),
(834,157,ls),
(834,56,o),
(825,44,o),
(745,40,c),
(745,0,l),
(1058,0,l),
(1058,40,l),
(979,45,o),
(973,53,o),
(973,164,cs),
(973,319,ls),
(973,445,o),
(898,540,o),
(765,540,cs),
(694,540,o),
(644,515,o),
(603,461,c),
(599,461,l),
(599,830,l),
(516,804,l),
(488,819,o),
(428,830,o),
(374,830,cs),
(216,830,o),
(121,739,o),
(121,586,cs),
(121,514,l),
(18,514,l),
(18,457,l),
(121,457,l),
(121,158,ls),
(121,58,o),
(112,44,o),
(47,40,c),
(47,0,l),
(334,0,l),
(334,40,l),
(275,42,o),
(260,67,o),
(260,166,cs),
(260,457,l),
(375,457,l),
(375,514,l),
(260,514,l),
(260,592,ls),
(260,711,o),
(291,772,o),
(352,772,cs),
(386,772,o),
(429,752,o),
(462,718,c),
(462,157,ls),
(462,56,o),
(456,45,o),
(393,40,c),
(393,0,l),
(688,0,l),
(688,40,l),
(608,45,o),
(601,55,o),
(601,164,cs),
(601,297,ls)
);
}
);
width = 1071;
}
);
},
{
glyphname = f_j;
kernLeft = KERN_f_2ND;
kernRight = KERN_j_1ST;
layers = (
{
layerId = m001;
shapes = (
{
closed = 1;
nodes = (
(383,514,l),
(256,514,l),
(256,592,ls),
(256,651,o),
(262,691,o),
(276,721,cs),
(291,755,o),
(316,772,o),
(353,772,cs),
(387,772,o),
(413,759,o),
(452,721,cs),
(475,699,o),
(498,688,o),
(521,688,cs),
(550,688,o),
(570,708,o),
(570,737,cs),
(570,792,o),
(497,830,o),
(392,830,cs),
(219,830,o),
(117,741,o),
(117,586,cs),
(117,514,l),
(18,514,l),
(18,457,l),
(117,457,l),
(117,156,ls),
(117,56,o),
(108,42,o),
(47,38,c),
(47,0,l),
(333,0,l),
(333,38,l),
(272,40,o),
(256,65,o),
(256,164,cs),
(256,457,l),
(354,457,ls),
(422,457,o),
(442,448,o),
(449,416,c),
(449,-78,ls),
(449,-172,o),
(424,-207,o),
(375,-207,cs),
(303,-207,o),
(318,-109,o),
(243,-109,cs),
(215,-109,o),
(189,-128,o),
(189,-161,cs),
(189,-217,o),
(251,-260,o),
(353,-260,cs),
(504,-260,o),
(588,-168,o),
(588,-2,cs),
(588,540,l)
);
}
);
width = 673;
}
);
},
{
glyphname = f_k;
kernLeft = KERN_f_2ND;
kernRight = KERN_k_1ST;
layers = (
{
layerId = m001;
shapes = (
{
closed = 1;
nodes = (
(1026,0,l),
(1026,40,l),
(977,40,o),
(953,53,o),
(923,96,cs),
(750,341,l),
(847,432,ls),
(893,475,o),
(927,490,o),
(977,490,c),
(977,530,l),
(704,530,l),
(704,490,l),
(768,490,o),
(787,485,o),
(787,469,cs),
(787,455,o),
(769,435,o),
(695,365,cs),
(599,274,l),
(599,830,l),
(516,804,l),
(488,819,o),
(428,830,o),
(374,830,cs),
(216,830,o),
(121,739,o),
(121,586,cs),
(121,514,l),
(18,514,l),
(18,457,l),
(121,457,l),
(121,158,ls),
(121,58,o),
(111,40,o),
(47,40,c),
(47,0,l),
(334,0,l),
(334,40,l),
(275,40,o),
(260,67,o),
(260,166,cs),
(260,457,l),
(375,457,l),
(375,514,l),
(260,514,l),
(260,592,ls),
(260,711,o),
(291,772,o),
(352,772,cs),
(386,772,o),
(429,752,o),
(462,718,c),
(462,157,ls),
(462,62,o),
(449,40,o),
(383,40,c),
(383,0,l),
(668,0,l),
(668,40,l),
(611,40,o),
(599,61,o),
(599,164,cs),
(599,203,l),
(649,251,l),
(735,116,ls),
(763,72,o),
(766,66,o),
(766,58,cs),
(766,44,o),
(755,40,o),
(715,40,c),
(715,0,l)
);
}
);
width = 1021;
}
);
},
{
glyphname = f_t;
kernLeft = KERN_f_2ND;
kernRight = KERN_t_1ST;
layers = (
{
layerId = m001;
shapes = (
{
closed = 1;
nodes = (
(490,112,ls),
(490,35,o),
(544,-10,o),
(636,-10,cs),
(704,-10,o),
(750,15,o),
(768,61,c),
(747,90,l),
(733,65,o),
(715,54,o),
(688,54,cs),
(646,54,o),
(629,86,o),
(629,168,cs),
(629,475,l),
(744,475,l),
(744,530,l),
(629,530,l),
(629,651,l),
(578,651,l),
(556,590,o),
(484,530,o),
(417,530,c),
(417,475,l),
(490,475,l)
);
},
{
ref = f;
}
);
width = 774;
}
);
},
{
glyphname = fi;
kernRight = KERN_i_1ST;
layers = (
{
layerId = m001;
shapes = (
{
closed = 1;
nodes = (
(383,514,l),
(256,514,l),
(256,592,ls),
(256,651,o),
(262,691,o),
(276,721,cs),
(291,755,o),
(316,772,o),
(353,772,cs),
(387,772,o),
(413,759,o),
(452,721,cs),
(475,699,o),
(498,688,o),
(521,688,cs),
(550,688,o),
(570,708,o),
(570,737,cs),
(570,792,o),
(497,830,o),
(392,830,cs),
(219,830,o),
(117,741,o),
(117,586,cs),
(117,514,l),
(18,514,l),
(18,457,l),
(117,457,l),
(117,156,ls),
(117,56,o),
(108,42,o),
(47,38,c),
(47,0,l),
(333,0,l),
(333,38,l),
(272,40,o),
(256,65,o),
(256,164,cs),
(256,457,l),
(347,457,ls),
(415,457,o),
(435,448,o),
(442,416,cs),
(446,396,o),
(449,341,o),
(449,270,cs),
(449,157,ls),
(449,62,o),
(438,43,o),
(380,40,c),
(380,0,l),
(675,0,l),
(675,40,l),
(599,43,o),
(588,59,o),
(588,165,cs),
(588,540,l)
);
}
);
width = 692;
}
);
unicode = 64257;
},
{
glyphname = fl;
kernRight = KERN_l_1ST;
layers = (
{
layerId = m001;
shapes = (
{
closed = 1;
nodes = (
(516,804,l),
(488,819,o),
(428,830,o),
(374,830,cs),
(216,830,o),
(121,739,o),
(121,586,cs),
(121,514,l),
(18,514,l),
(18,457,l),
(121,457,l),
(121,158,ls),
(121,58,o),
(112,44,o),
(47,40,c),
(47,0,l),
(344,0,l),
(344,40,l),
(277,42,o),
(260,67,o),
(260,166,cs),
(260,457,l),
(375,457,l),
(375,514,l),
(260,514,l),
(260,592,ls),
(260,644,o),
(265,681,o),
(276,711,cs),
(291,751,o),
(317,772,o),
(352,772,cs),
(386,772,o),
(427,752,o),
(460,718,c),
(460,154,ls),
(460,61,o),
(449,43,o),
(391,40,c),
(391,0,l),
(686,0,l),
(686,40,l),
(611,43,o),
(599,60,o),
(599,161,cs),
(599,830,l)
);
}
);
width = 707;
}
);
unicode = 64258;
},
{
glyphname = s_p;
kernLeft = KERN_s_2ND;
kernRight = KERN_b_1ST;
layers = (
{
layerId = m001;
shapes = (
{
closed = 1;
nodes = (
(137,6,o),
(189,-10,o),
(248,-10,cs),
(358,-10,o),
(430,51,o),
(430,143,cs),
(430,212,o),
(394,257,o),
(279,324,cs),
(198,370,o),
(173,393,o),
(173,432,cs),
(173,464,o),
(197,487,o),
(232,487,cs),
(302,487,o),
(305,394,o),
(373,394,cs),
(408,394,o),
(434,419,o),
(434,452,cs),
(434,481,o),
(409,506,o),
(370,524,cs),
(317,548,o),
(294,580,o),
(294,626,cs),
(294,687,o),
(344,732,o),
(410,732,cs),
(478,732,o),
(527,668,o),
(580,668,c),
(551,591,o),
(540,529,o),
(540,450,cs),
(540,-90,ls),
(540,-186,o),
(525,-206,o),
(453,-208,c),
(453,-250,l),
(798,-250,l),
(798,-208,l),
(694,-205,o),
(678,-189,o),
(678,-83,cs),
(678,56,l),
(682,56,l),
(717,11,o),
(764,-10,o),
(830,-10,cs),
(983,-10,o),
(1093,106,o),
(1093,265,cs),
(1093,425,o),
(983,540,o),
(828,540,cs),
(757,540,o),
(700,515,o),
(656,465,c),
(652,465,l),
(652,658,l),
(681,658,o),
(714,696,o),
(714,731,cs),
(714,762,o),
(695,782,o),
(657,782,cs),
(624,782,o),
(602,761,o),
(594,719,c),
(550,719,o),
(501,790,o),
(411,790,cs),
(315,790,o),
(237,716,o),
(237,624,cs),
(237,596,o),
(247,566,o),
(266,545,c),
(254,545,ls),
(135,545,o),
(58,483,o),
(58,386,cs),
(58,316,o),
(94,274,o),
(200,213,cs),
(290,160,o),
(306,133,o),
(306,102,cs),
(306,66,o),
(277,44,o),
(228,44,cs),
(160,44,o),
(119,87,o),
(96,182,c),
(54,182,l),
(54,0,l),
(85,0,l),
(107,35,l)
);
},
{
closed = 1;
nodes = (
(901,483,o),
(942,408,o),
(942,263,cs),
(942,123,o),
(903,56,o),
(822,56,cs),
(734,56,o),
(680,135,o),
(680,232,cs),
(680,300,ls),
(680,413,o),
(731,483,o),
(822,483,cs)
);
}
);
width = 1132;
}
);
},
{
glyphname = s_t;
kernLeft = KERN_s_2ND;
kernRight = KERN_t_1ST;
layers = (
{
layerId = m001;
shapes = (
{
closed = 1;
nodes = (
(138,6,o),
(190,-10,o),
(248,-10,cs),
(358,-10,o),
(430,51,o),
(430,143,cs),
(430,214,o),
(393,258,o),
(279,324,cs),
(198,370,o),
(173,395,o),
(173,432,cs),
(173,464,o),
(197,487,o),
(232,487,cs),
(302,487,o),
(305,394,o),
(373,394,cs),
(408,394,o),
(434,419,o),
(434,452,cs),
(434,467,o),
(427,482,o),
(415,495,cs),
(387,527,o),
(375,559,o),
(375,602,cs),
(375,694,o),
(429,749,o),
(518,749,cs),
(599,749,o),
(653,703,o),
(653,636,cs),
(653,570,o),
(601,520,o),
(510,520,c),
(510,475,l),
(583,475,l),
(583,112,ls),
(583,35,o),
(637,-10,o),
(729,-10,cs),
(797,-10,o),
(843,15,o),
(861,61,c),
(840,90,l),
(824,65,o),
(807,54,o),
(782,54,cs),
(739,54,o),
(722,86,o),
(722,168,cs),
(722,475,l),
(837,475,l),
(837,530,l),
(722,530,l),
(722,609,ls),
(722,737,o),
(654,804,o),
(523,804,cs),
(389,804,o),
(315,734,o),
(315,609,cs),
(315,585,o),
(318,561,o),
(323,538,c),
(302,543,o),
(279,545,o),
(254,545,cs),
(135,545,o),
(58,483,o),
(58,386,cs),
(58,318,o),
(94,274,o),
(200,213,cs),
(277,168,o),
(306,138,o),
(306,102,cs),
(306,66,o),
(277,44,o),
(228,44,cs),
(160,44,o),
(119,87,o),
(96,182,c),
(54,182,l),
(54,0,l),
(85,0,l),
(107,35,l)
);
}
);
width = 867;
}
);
unicode = 64262;
},
{
glyphname = ordfeminine;
layers = (
{
layerId = m001;
shapes = (
{
closed = 1;
nodes = (
(211,583,o),
(193,552,o),
(170,552,cs),
(151,552,o),
(138,564,o),
(138,580,cs),
(138,603,o),
(158,626,o),
(211,649,c),
(211,620,ls)
);
},
{
closed = 1;
nodes = (
(76,625,o),
(53,602,o),
(53,566,cs),
(53,531,o),
(85,507,o),
(134,507,cs),
(168,507,o),
(196,522,o),
(212,545,c),
(216,545,l),
(216,520,o),
(234,507,o),
(273,507,cs),
(301,507,o),
(330,518,o),
(341,534,c),
(333,556,l),
(327,546,o),
(320,543,o),
(308,543,cs),
(292,543,o),
(285,563,o),
(285,601,cs),
(285,703,ls),
(285,759,o),
(257,780,o),
(178,780,cs),
(99,780,o),
(57,748,o),
(57,714,cs),
(57,693,o),
(74,686,o),
(89,686,cs),
(106,686,o),
(114,696,o),
(121,715,cs),
(130,740,o),
(138,746,o),
(169,746,cs),
(198,746,o),
(211,732,o),
(211,701,cs),
(211,687,l),
(148,656,ls)
);
}
);
width = 381;
}
);
unicode = 170;
},
{
glyphname = ordmasculine;
layers = (
{
layerId = m001;
shapes = (
{
closed = 1;
nodes = (
(109,780,o),
(41,723,o),
(41,645,cs),
(41,565,o),
(109,507,o),
(190,507,cs),
(272,507,o),
(342,565,o),
(342,645,cs),
(342,723,o),
(272,780,o),
(190,780,cs)
);
},
{
closed = 1;
nodes = (
(228,744,o),
(254,703,o),
(254,645,cs),
(254,584,o),
(228,544,o),
(190,544,cs),
(153,544,o),
(128,584,o),
(128,645,cs),
(128,703,o),
(154,744,o),
(190,744,cs)
);
}
);
width = 383;
}
);
unicode = 186;
},
{
glyphname = mu;
layers = (
{
anchors = (
{
name = bottom;
pos = (333,0);
},
{
name = top;
pos = (356,651);
}
);
layerId = m001;
shapes = (
{
closed = 1;
nodes = (
(227,22,o),
(281,-10,o),
(343,-10,cs),
(414,-10,o),
(460,14,o),
(489,78,c),
(493,78,l),
(504,-11,l),
(703,1,l),
(703,40,l),
(638,40,o),
(624,47,o),
(618,80,cs),
(613,104,o),
(611,148,o),
(611,223,cs),
(611,530,l),
(386,530,l),
(386,490,l),
(467,482,o),
(473,473,o),
(473,365,cs),
(473,272,ls),
(473,218,o),
(463,161,o),
(450,128,c),
(425,74,o),
(395,55,o),
(347,55,cs),
(276,55,o),
(244,115,o),
(244,257,cs),
(244,530,l),
(20,530,l),
(20,490,l),
(101,483,o),
(105,474,o),
(105,365,cs),
(105,-178,ls),
(105,-225,o),
(138,-260,o),
(182,-260,cs),
(224,-260,o),
(251,-233,o),
(251,-189,cs),
(251,-142,o),
(213,10,o),
(188,91,c),
(192,92,l)
);
}
);
width = 720;
}
);
unicode = 956;
},
{
glyphname = zero;
layers = (
{
layerId = m001;
shapes = (
{
closed = 1;
nodes = (
(195,780,o),
(47,605,o),
(47,379,cs),
(47,162,o),
(195,-10,o),
(375,-10,cs),
(558,-10,o),
(708,162,o),
(708,379,cs),
(708,605,o),
(558,780,o),
(375,780,cs)
);
},
{
closed = 1;
nodes = (
(279,48,o),
(221,123,o),
(221,376,cs),
(221,640,o),
(279,722,o),
(375,722,cs),
(471,722,o),
(529,640,o),
(529,376,cs),
(529,123,o),
(471,48,o),
(375,48,cs)
);
}
);
width = 755;
}
);
unicode = 48;
},
{
glyphname = one;
layers = (
{
layerId = m001;
shapes = (
{
closed = 1;
nodes = (
(230,757,o),
(101,741,o),
(30,738,c),
(30,698,l),
(106,698,o),
(142,695,o),
(150,666,cs),
(155,650,o),
(155,597,o),
(155,520,cs),
(155,157,ls),
(155,63,o),
(138,44,o),
(35,40,c),
(35,0,l),
(411,0,l),
(411,40,l),
(316,43,o),
(302,61,o),
(302,164,cs),
(302,780,l)
);
}
);
width = 436;
}
);
unicode = 49;
},
{
glyphname = two;
layers = (
{
layerId = m001;
shapes = (
{
closed = 1;
nodes = (
(437,264,o),
(591,403,o),
(591,564,cs),
(591,691,o),
(481,780,o),
(324,780,cs),
(166,780,o),
(49,692,o),
(49,573,cs),
(49,486,o),
(111,423,o),
(194,423,cs),
(237,423,o),
(270,448,o),
(276,486,c),
(218,486,o),
(181,528,o),
(181,594,cs),
(181,670,o),
(234,723,o),
(307,723,cs),
(383,723,o),
(430,663,o),
(430,566,cs),
(430,426,o),
(356,318,o),
(39,46,c),
(39,0,l),
(563,0,l),
(603,233,l),
(559,233,l),
(529,139,o),
(499,118,o),
(432,118,cs),
(228,118,l),
(227,123,l)
);
}
);
width = 651;
}
);
unicode = 50;
},
{
glyphname = three;
layers = (
{
layerId = m001;
shapes = (
{
closed = 1;
nodes = (
(429,318,o),
(386,378,o),
(315,378,c),
(289,367,o),
(262,360,o),
(245,360,cs),
(208,360,o),
(186,376,o),
(186,404,cs),
(186,428,o),
(207,442,o),
(243,442,cs),
(261,442,o),
(287,436,o),
(306,431,c),
(369,431,o),
(411,481,o),
(411,581,cs),
(411,677,o),
(370,727,o),
(305,727,cs),
(244,727,o),
(208,696,o),
(208,644,cs),
(208,608,o),
(231,581,o),
(263,581,c),
(255,545,o),
(227,523,o),
(186,523,cs),
(121,523,o),
(68,575,o),
(68,638,cs),
(68,723,o),
(163,780,o),
(306,780,cs),
(463,780,o),
(564,710,o),
(564,602,cs),
(564,516,o),
(504,439,o),
(420,417,c),
(420,411,l),
(522,383,o),
(589,302,o),
(589,207,cs),
(589,81,o),
(468,-10,o),
(301,-10,cs),
(149,-10,o),
(37,65,o),
(37,168,cs),
(37,242,o),
(97,304,o),
(169,304,cs),
(213,304,o),
(246,279,o),
(254,240,c),
(214,240,o),
(184,203,o),
(184,155,cs),
(184,90,o),
(230,47,o),
(300,47,cs),
(375,47,o),
(429,114,o),
(429,216,cs)
);
}
);
width = 637;
}
);
unicode = 51;
},
{
glyphname = four;
layers = (
{
layerId = m001;
shapes = (
{
closed = 1;
nodes = (
(373,780,l),
(468,780,l),
(468,271,l),
(565,274,o),
(586,290,o),
(586,367,c),
(623,367,l),
(623,124,l),
(586,124,l),
(586,197,o),
(565,210,o),
(468,212,c),
(468,181,ls),
(468,88,o),
(483,43,o),
(561,40,c),
(561,0,l),
(218,0,l),
(218,40,l),
(312,44,o),
(327,90,o),
(327,174,cs),
(327,208,l),
(8,208,l),
(8,268,l)
);
},
{
closed = 1;
nodes = (
(323,595,l),
(93,271,l),
(327,271,l),
(327,595,l)
);
}
);
width = 664;
}
);
unicode = 52;
},
{
glyphname = five;
layers = (
{
layerId = m001;
shapes = (
{
closed = 1;
nodes = (
(346,651,ls),
(444,651,o),
(511,698,o),
(530,780,c),
(524,781,l),
(494,769,o),
(438,762,o),
(364,762,cs),
(302,762,o),
(258,768,o),
(221,780,c),
(109,367,ls),
(108,363,o),
(107,359,o),
(107,355,cs),
(107,339,o),
(118,329,o),
(135,329,cs),
(153,329,o),
(165,336,o),
(176,367,cs),
(199,429,o),
(236,457,o),
(294,457,cs),
(364,457,o),
(391,407,o),
(391,297,cs),
(391,144,o),
(330,44,o),
(227,44,cs),
(95,44,o),
(157,195,o),
(70,195,cs),
(32,195,o),
(10,170,o),
(10,128,cs),
(10,48,o),
(99,-10,o),
(224,-10,cs),
(408,-10,o),
(551,115,o),
(551,274,cs),
(551,411,o),
(449,515,o),
(314,515,cs),
(271,515,o),
(226,498,o),
(204,474,c),
(202,477,l),
(249,651,l)
);
}
);
width = 595;
}
);
unicode = 53;
},
{
glyphname = six;
layers = (
{
layerId = m001;
shapes = (
{
closed = 1;
nodes = (
(629,404,o),
(517,513,o),
(370,513,cs),
(306,513,o),
(261,491,o),
(219,443,c),
(216,445,l),
(216,604,o),
(283,725,o),
(370,725,cs),
(477,725,o),
(444,606,o),
(526,606,cs),
(566,606,o),
(592,630,o),
(592,668,cs),
(592,731,o),
(508,780,o),
(401,780,cs),
(207,780,o),
(48,580,o),
(48,337,cs),
(48,133,o),
(168,-10,o),
(341,-10,cs),
(500,-10,o),
(629,109,o),
(629,259,cs)
);
},
{
closed = 1;
nodes = (
(256,418,o),
(298,454,o),
(356,454,cs),
(429,454,o),
(468,385,o),
(468,255,cs),
(468,112,o),
(429,45,o),
(345,45,cs),
(260,45,o),
(214,126,o),
(214,283,cs),
(214,337,l)
);
}
);
width = 674;
}
);
unicode = 54;
},
{
glyphname = seven;
layers = (
{
layerId = m001;
shapes = (
{
closed = 1;
nodes = (
(352,521,o),
(327,475,o),
(207,277,cs),
(110,117,o),
(97,89,o),
(97,53,cs),
(97,13,o),
(121,-10,o),
(161,-10,cs),
(207,-10,o),
(237,20,o),
(264,97,cs),
(362,384,o),
(376,418,o),
(528,730,c),
(528,770,l),
(210,770,ls),
(149,770,o),
(130,777,o),
(130,801,cs),
(130,809,o),
(132,818,o),
(135,830,c),
(93,830,l),
(19,550,l),
(59,550,l),
(76,589,ls),
(99,643,o),
(118,651,o),
(228,651,cs),
(418,651,l)
);
}
);
width = 516;
}
);
unicode = 55;
},
{
glyphname = eight;
layers = (
{
layerId = m001;
shapes = (
{
closed = 1;
nodes = (
(430,276,o),
(470,234,o),
(470,179,cs),
(470,102,o),
(406,46,o),
(316,46,cs),
(230,46,o),
(175,104,o),
(175,194,cs),
(175,258,o),
(205,313,o),
(260,350,c),
(342,314,ls)
);
},
{
closed = 1;
nodes = (
(521,497,o),
(550,542,o),
(550,603,cs),
(550,657,o),
(525,706,o),
(480,738,cs),
(436,765,o),
(377,780,o),
(313,780,cs),
(240,780,o),
(178,761,o),
(135,724,cs),
(91,686,o),
(68,635,o),
(68,575,cs),
(68,495,o),
(111,422,o),
(186,371,c),
(98,325,o),
(50,257,o),
(50,181,cs),
(50,72,o),
(164,-10,o),
(314,-10,cs),
(475,-10,o),
(590,86,o),
(590,220,cs),
(590,309,o),
(539,393,o),
(452,448,c)
);
},
{
closed = 1;
nodes = (
(227,528,o),
(183,570,o),
(183,616,cs),
(183,678,o),
(237,725,o),
(308,725,cs),
(382,725,o),
(438,666,o),
(438,588,cs),
(438,544,o),
(417,501,o),
(378,469,c),
(310,496,ls)
);
}
);
width = 635;
}
);
unicode = 56;
},
{
glyphname = nine;
layers = (
{
layerId = m001;
shapes = (
{
closed = 1;
nodes = (
(45,366,o),
(157,257,o),
(304,257,cs),
(370,257,o),
(417,279,o),
(460,327,c),
(463,325,l),
(463,166,o),
(394,45,o),
(304,45,cs),
(197,45,o),
(230,164,o),
(148,164,cs),
(108,164,o),
(82,140,o),
(82,102,cs),
(82,39,o),
(166,-10,o),
(273,-10,cs),
(467,-10,o),
(626,190,o),
(626,433,cs),
(626,637,o),
(506,780,o),
(333,780,cs),
(174,780,o),
(45,661,o),
(45,511,cs)
);
},
{
closed = 1;
nodes = (
(418,352,o),
(376,316,o),
(318,316,cs),
(245,316,o),
(206,385,o),
(206,515,cs),
(206,658,o),
(245,725,o),
(329,725,cs),
(414,725,o),
(460,643,o),
(460,482,cs),
(460,433,l)
);
}
);
width = 674;
}
);
unicode = 57;
},
{
glyphname = fraction;
layers = (
{
layerId = m001;
shapes = (
{
closed = 1;
nodes = (
(275,770,l),
(-305,0,l),
(-225,0,l),
(346,770,l)
);
}
);
width = 40;
}
);
unicode = 8260;
},
{
glyphname = onehalf;
layers = (
{
layerId = m001;
shapes = (
{
closed = 1;
nodes = (
(608,770,l),
(28,0,l),
(108,0,l),
(679,770,l)
);
},
{
pos = (85,0);
ref = onesuperior;
},
{
pos = (364,0);
ref = twoinferior;
}
);
width = 716;
}
);
unicode = 189;
},
{
glyphname = onethird;
layers = (
{
layerId = m001;
shapes = (
{
closed = 1;
nodes = (
(608,770,l),
(28,0,l),
(108,0,l),
(679,770,l)
);
},
{
pos = (85,0);
ref = onesuperior;
},
{
pos = (364,0);
ref = threeinferior;
}
);
width = 715;
}
);
unicode = 8531;
},
{
glyphname = twothirds;
layers = (
{
layerId = m001;
shapes = (
{
closed = 1;
nodes = (
(616,770,l),
(36,0,l),
(116,0,l),
(687,770,l)
);
},
{
pos = (372,0);
ref = threeinferior;
},
{
pos = (61,0);
ref = twosuperior;
}
);
width = 717;
}
);
unicode = 8532;
},
{
glyphname = onequarter;
layers = (
{
layerId = m001;
shapes = (
{
closed = 1;
nodes = (
(608,770,l),
(28,0,l),
(108,0,l),
(679,770,l)
);
},
{
pos = (85,0);
ref = onesuperior;
},
{
pos = (357,0);
ref = fourinferior;
}
);
width = 712;
}
);
unicode = 188;
},
{
glyphname = threequarters;
layers = (
{
layerId = m001;
shapes = (
{
closed = 1;
nodes = (
(614,770,l),
(34,0,l),
(114,0,l),
(685,770,l)
);
},
{
pos = (363,0);
ref = fourinferior;
},
{
pos = (67,0);
ref = threesuperior;
}
);
width = 714;
}
);
unicode = 190;
},
{
glyphname = oneeighth;
layers = (
{
layerId = m001;
shapes = (
{
closed = 1;
nodes = (
(608,770,l),
(28,0,l),
(108,0,l),
(679,770,l)
);
},
{
pos = (85,0);
ref = onesuperior;
},
{
pos = (364,0);
ref = eightinferior;
}
);
width = 715;
}
);
unicode = 8539;
},
{
glyphname = threeeighths;
layers = (
{
layerId = m001;
shapes = (
{
closed = 1;
nodes = (
(615,770,l),
(35,0,l),
(115,0,l),
(686,770,l)
);
},
{
pos = (371,0);
ref = eightinferior;
},
{
pos = (57,0);
ref = threesuperior;
}
);
width = 716;
}
);
unicode = 8540;
},
{
glyphname = fiveeighths;
layers = (
{
layerId = m001;
shapes = (
{
closed = 1;
nodes = (
(612,770,l),
(32,0,l),
(112,0,l),
(683,770,l)
);
},
{
pos = (368,0);
ref = eightinferior;
},
{
pos = (67,0);
ref = fivesuperior;
}
);
width = 713;
}
);
unicode = 8541;
},
{
glyphname = seveneighths;
layers = (
{
layerId = m001;
shapes = (
{
closed = 1;
nodes = (
(608,770,l),
(28,0,l),
(108,0,l),
(679,770,l)
);
},
{
pos = (364,0);
ref = eightinferior;
},
{
pos = (107,0);
ref = sevensuperior;
}
);
width = 715;
}
);
unicode = 8542;
},
{
glyphname = zeroinferior;
layers = (
{
layerId = m001;
shapes = (
{
closed = 1;
nodes = (
(88,306,o),
(29,236,o),
(29,146,cs),
(29,59,o),
(88,-10,o),
(158,-10,cs),
(228,-10,o),
(287,59,o),
(287,146,cs),
(287,236,o),
(228,306,o),
(158,306,cs)
);
},
{
closed = 1;
nodes = (
(123,25,o),
(104,52,o),
(104,144,cs),
(104,241,o),
(123,271,o),
(158,271,cs),
(193,271,o),
(212,241,o),
(212,144,cs),
(212,52,o),
(192,25,o),
(158,25,cs)
);
}
);
width = 316;
}
);
unicode = 8320;
},
{
glyphname = oneinferior;
layers = (
{
layerId = m001;
shapes = (
{
closed = 1;
nodes = (
(124,303,o),
(84,296,o),
(51,295,c),
(51,270,l),
(79,270,o),
(93,268,o),
(95,257,c),
(97,252,o),
(97,230,o),
(97,199,cs),
(97,72,ls),
(97,34,o),
(91,27,o),
(53,25,c),
(53,0,l),
(201,0,l),
(201,25,l),
(163,26,o),
(157,34,o),
(157,75,cs),
(157,312,l)
);
}
);
width = 249;
}
);
unicode = 8321;
},
{
glyphname = twoinferior;
layers = (
{
layerId = m001;
shapes = (
{
closed = 1;
nodes = (
(184,104,o),
(248,162,o),
(248,226,cs),
(248,276,o),
(202,312,o),
(137,312,cs),
(74,312,o),
(28,277,o),
(28,229,cs),
(28,194,o),
(53,169,o),
(86,169,cs),
(107,169,o),
(122,180,o),
(124,195,c),
(103,195,o),
(88,212,o),
(88,238,cs),
(88,261,o),
(106,279,o),
(129,279,cs),
(159,279,o),
(177,259,o),
(177,226,cs),
(177,171,o),
(149,124,o),
(29,18,c),
(29,0,l),
(240,0,l),
(255,85,l),
(229,85,l),
(219,52,o),
(208,44,o),
(184,44,cs),
(105,44,l),
(105,48,l)
);
}
);
width = 284;
}
);
unicode = 8322;
},
{
glyphname = threeinferior;
layers = (
{
layerId = m001;
shapes = (
{
closed = 1;
nodes = (
(180,119,o),
(164,142,o),
(137,142,c),
(127,138,o),
(116,135,o),
(108,135,cs),
(94,135,o),
(85,144,o),
(85,156,cs),
(85,168,o),
(94,175,o),
(107,175,cs),
(115,175,o),
(124,173,o),
(134,170,c),
(157,170,o),
(173,196,o),
(173,231,cs),
(173,260,o),
(161,274,o),
(135,274,cs),
(111,274,o),
(97,263,o),
(97,245,cs),
(97,231,o),
(106,222,o),
(121,222,c),
(119,211,o),
(103,202,o),
(86,202,cs),
(60,202,o),
(39,223,o),
(39,249,cs),
(39,284,o),
(76,306,o),
(135,306,cs),
(201,306,o),
(244,278,o),
(244,234,cs),
(244,200,o),
(217,170,o),
(180,162,c),
(180,158,l),
(225,147,o),
(254,115,o),
(254,77,cs),
(254,27,o),
(203,-10,o),
(134,-10,cs),
(72,-10,o),
(27,20,o),
(27,61,cs),
(27,90,o),
(50,112,o),
(79,112,cs),
(98,112,o),
(114,103,o),
(118,89,c),
(103,89,o),
(91,74,o),
(91,57,cs),
(91,37,o),
(107,24,o),
(132,24,cs),
(164,24,o),
(180,44,o),
(180,82,cs)
);
}
);
width = 284;
}
);
unicode = 8323;
},
{
glyphname = fourinferior;
layers = (
{
layerId = m001;
shapes = (
{
closed = 1;
nodes = (
(167,312,l),
(198,312,l),
(198,101,l),
(233,102,o),
(237,106,o),
(237,137,c),
(256,137,l),
(256,43,l),
(237,43,l),
(237,68,o),
(232,72,o),
(198,73,c),
(198,65,ls),
(198,28,o),
(203,21,o),
(231,20,c),
(231,0,l),
(87,0,l),
(87,20,l),
(125,22,o),
(131,28,o),
(131,62,cs),
(131,72,l),
(12,72,l),
(12,102,l)
);
},
{
closed = 1;
nodes = (
(127,213,l),
(47,102,l),
(131,102,l),
(131,213,l)
);
}
);
width = 283;
}
);
unicode = 8324;
},
{
glyphname = fiveinferior;
layers = (
{
layerId = m001;
shapes = (
{
closed = 1;
nodes = (
(148,253,ls),
(191,253,o),
(221,273,o),
(228,306,c),
(224,306,l),
(210,302,o),
(184,299,o),
(154,299,cs),
(129,299,o),
(111,302,o),
(101,306,c),
(56,141,ls),
(55,139,o),
(55,137,o),
(55,135,cs),
(55,128,o),
(60,125,o),
(68,125,cs),
(76,125,o),
(80,129,o),
(85,141,cs),
(94,160,o),
(111,171,o),
(132,171,cs),
(152,171,o),
(164,151,o),
(164,119,cs),
(164,56,o),
(142,23,o),
(100,23,cs),
(46,23,o),
(75,78,o),
(35,78,cs),
(20,78,o),
(12,70,o),
(12,54,cs),
(12,17,o),
(50,-10,o),
(102,-10,cs),
(177,-10,o),
(237,41,o),
(237,105,cs),
(237,159,o),
(194,203,o),
(142,203,cs),
(123,203,o),
(107,197,o),
(98,186,c),
(97,190,l),
(113,253,l)
);
}
);
width = 265;
}
);
unicode = 8325;
},
{
glyphname = sixinferior;
layers = (
{
layerId = m001;
shapes = (
{
closed = 1;
nodes = (
(270,157,o),
(226,202,o),
(170,202,cs),
(142,202,o),
(116,191,o),
(99,166,c),
(95,167,l),
(95,230,o),
(126,273,o),
(160,273,cs),
(195,273,o),
(191,234,o),
(221,234,cs),
(236,234,o),
(246,244,o),
(246,259,cs),
(246,285,o),
(212,306,o),
(170,306,cs),
(92,306,o),
(29,228,o),
(29,131,cs),
(29,47,o),
(78,-10,o),
(150,-10,cs),
(217,-10,o),
(270,38,o),
(270,100,cs)
);
},
{
closed = 1;
nodes = (
(119,154,o),
(135,168,o),
(156,168,cs),
(184,168,o),
(198,143,o),
(198,93,cs),
(198,41,o),
(182,13,o),
(151,13,cs),
(118,13,o),
(102,43,o),
(102,102,cs),
(102,122,l)
);
}
);
width = 297;
}
);
unicode = 8326;
},
{
glyphname = seveninferior;
layers = (
{
layerId = m001;
shapes = (
{
closed = 1;
nodes = (
(57,43,o),
(49,27,o),
(49,13,cs),
(49,0,o),
(55,-10,o),
(73,-10,cs),
(91,-10,o),
(107,0,o),
(120,34,cs),
(154,123,o),
(168,166,o),
(227,294,c),
(227,302,l),
(99,302,ls),
(72,302,o),
(66,304,o),
(66,314,cs),
(66,317,o),
(67,324,o),
(68,326,c),
(46,326,l),
(17,214,l),
(38,214,l),
(44,230,l),
(56,254,o),
(62,257,o),
(106,257,cs),
(174,257,l),
(122,158,l)
);
}
);
width = 231;
}
);
unicode = 8327;
},
{
glyphname = eightinferior;
layers = (
{
layerId = m001;
shapes = (
{
closed = 1;
nodes = (
(189,97,o),
(195,86,o),
(195,72,cs),
(195,43,o),
(171,23,o),
(144,23,cs),
(107,23,o),
(84,43,o),
(84,78,cs),
(84,104,o),
(101,123,o),
(127,135,c),
(153,121,l)
);
},
{
closed = 1;
nodes = (
(216,184,o),
(240,202,o),
(240,236,cs),
(240,258,o),
(228,277,o),
(209,289,cs),
(190,301,o),
(164,306,o),
(140,306,cs),
(114,306,o),
(86,300,o),
(67,284,cs),
(50,269,o),
(39,248,o),
(39,227,cs),
(39,188,o),
(67,165,o),
(99,148,c),
(62,132,o),
(29,107,o),
(29,65,cs),
(29,14,o),
(91,-10,o),
(140,-10,cs),
(200,-10,o),
(253,24,o),
(253,79,cs),
(253,121,o),
(223,149,o),
(186,167,c)
);
},
{
closed = 1;
nodes = (
(113,204,o),
(101,218,o),
(101,234,cs),
(101,257,o),
(118,273,o),
(146,273,cs),
(178,273,o),
(191,254,o),
(191,230,cs),
(191,212,o),
(174,191,o),
(158,181,c),
(138,191,ls)
);
}
);
width = 282;
}
);
unicode = 8328;
},
{
glyphname = nineinferior;
layers = (
{
layerId = m001;
shapes = (
{
closed = 1;
nodes = (
(28,145,o),
(72,104,o),
(128,104,cs),
(156,104,o),
(181,115,o),
(198,140,c),
(202,137,l),
(202,68,o),
(172,23,o),
(137,23,cs),
(98,23,o),
(101,62,o),
(67,62,cs),
(52,62,o),
(42,52,o),
(42,37,cs),
(42,11,o),
(81,-10,o),
(127,-10,cs),
(206,-10,o),
(269,68,o),
(269,164,cs),
(269,249,o),
(220,306,o),
(148,306,cs),
(81,306,o),
(28,258,o),
(28,196,cs)
);
},
{
closed = 1;
nodes = (
(178,151,o),
(162,138,o),
(141,138,cs),
(113,138,o),
(100,160,o),
(100,205,cs),
(100,256,o),
(117,283,o),
(148,283,cs),
(180,283,o),
(196,256,o),
(196,204,cs),
(196,184,l)
);
}
);
width = 298;
}
);
unicode = 8329;
},
{
glyphname = zerosuperior;
layers = (
{
layerId = m001;
shapes = (
{
closed = 1;
nodes = (
(87,780,o),
(28,710,o),
(28,620,cs),
(28,533,o),
(87,464,o),
(157,464,cs),
(228,464,o),
(286,533,o),
(286,620,cs),
(286,710,o),
(228,780,o),
(157,780,cs)
);
},
{
closed = 1;
nodes = (
(122,499,o),
(103,526,o),
(103,618,cs),
(103,715,o),
(122,745,o),
(157,745,cs),
(192,745,o),
(211,715,o),
(211,618,cs),
(211,526,o),
(191,499,o),
(157,499,cs)
);
}
);
width = 314;
}
);
unicode = 8304;
},
{
glyphname = onesuperior;
layers = (
{
layerId = m001;
shapes = (
{
closed = 1;
nodes = (
(124,771,o),
(84,764,o),
(51,763,c),
(51,738,l),
(79,738,o),
(93,736,o),
(95,725,cs),
(97,720,o),
(97,698,o),
(97,667,cs),
(97,540,ls),
(97,502,o),
(91,495,o),
(53,493,c),
(53,468,l),
(201,468,l),
(201,493,l),
(163,494,o),
(157,502,o),
(157,543,cs),
(157,780,l)
);
}
);
width = 249;
}
);
unicode = 185;
},
{
glyphname = twosuperior;
layers = (
{
layerId = m001;
shapes = (
{
closed = 1;
nodes = (
(184,572,o),
(248,630,o),
(248,694,cs),
(248,744,o),
(202,780,o),
(137,780,cs),
(74,780,o),
(28,745,o),
(28,697,cs),
(28,662,o),
(53,637,o),
(86,637,cs),
(107,637,o),
(122,648,o),
(124,663,c),
(103,663,o),
(88,680,o),
(88,706,cs),
(88,729,o),
(106,747,o),
(129,747,cs),
(159,747,o),
(177,727,o),
(177,694,cs),
(177,639,o),
(149,592,o),
(29,486,c),
(29,468,l),
(240,468,l),
(255,553,l),
(229,553,l),
(219,520,o),
(208,512,o),
(184,512,cs),
(105,512,l),
(105,516,l)
);
}
);
width = 284;
}
);
unicode = 178;
},
{
glyphname = threesuperior;
layers = (
{
layerId = m001;
shapes = (
{
closed = 1;
nodes = (
(180,593,o),
(164,616,o),
(137,616,c),
(127,612,o),
(116,609,o),
(108,609,cs),
(94,609,o),
(85,618,o),
(85,630,cs),
(85,642,o),
(94,649,o),
(107,649,cs),
(115,649,o),
(124,647,o),
(134,644,c),
(157,644,o),
(173,670,o),
(173,705,cs),
(173,734,o),
(161,748,o),
(135,748,cs),
(111,748,o),
(97,737,o),
(97,719,cs),
(97,705,o),
(106,696,o),
(121,696,c),
(119,685,o),
(103,676,o),
(86,676,cs),
(60,676,o),
(39,697,o),
(39,723,cs),
(39,758,o),
(76,780,o),
(135,780,cs),
(201,780,o),
(244,752,o),
(244,708,cs),
(244,674,o),
(217,644,o),
(180,636,c),
(180,632,l),
(225,621,o),
(254,589,o),
(254,551,cs),
(254,501,o),
(203,464,o),
(134,464,cs),
(72,464,o),
(27,494,o),
(27,535,cs),
(27,564,o),
(50,586,o),
(79,586,cs),
(98,586,o),
(114,577,o),
(118,563,c),
(103,563,o),
(91,548,o),
(91,531,cs),
(91,511,o),
(107,498,o),
(132,498,cs),
(164,498,o),
(180,518,o),
(180,556,cs)
);
}
);
width = 283;
}
);
unicode = 179;
},
{
glyphname = foursuperior;
layers = (
{
layerId = m001;
shapes = (
{
closed = 1;
nodes = (
(167,780,l),
(198,780,l),
(198,569,l),
(233,570,o),
(237,574,o),
(237,605,c),
(256,605,l),
(256,511,l),
(237,511,l),
(237,536,o),
(232,540,o),
(198,541,c),
(198,533,ls),
(198,496,o),
(203,489,o),
(231,488,c),
(231,468,l),
(87,468,l),
(87,488,l),
(125,490,o),
(131,496,o),
(131,530,cs),
(131,540,l),
(12,540,l),
(12,570,l)
);
},
{
closed = 1;
nodes = (
(127,681,l),
(47,570,l),
(131,570,l),
(131,681,l)
);
}
);
width = 283;
}
);
unicode = 8308;
},
{
glyphname = fivesuperior;
layers = (
{
layerId = m001;
shapes = (
{
closed = 1;
nodes = (
(148,727,ls),
(191,727,o),
(221,747,o),
(228,780,c),
(224,780,l),
(210,776,o),
(184,773,o),
(154,773,cs),
(129,773,o),
(111,776,o),
(101,780,c),
(56,615,ls),
(55,613,o),
(55,611,o),
(55,609,cs),
(55,602,o),
(60,599,o),
(68,599,cs),
(76,599,o),
(80,603,o),
(85,615,cs),
(94,634,o),
(111,645,o),
(132,645,cs),
(152,645,o),
(164,625,o),
(164,593,cs),
(164,530,o),
(142,497,o),
(100,497,cs),
(46,497,o),
(75,552,o),
(35,552,cs),
(20,552,o),
(12,544,o),
(12,528,cs),
(12,491,o),
(50,464,o),
(102,464,cs),
(177,464,o),
(237,515,o),
(237,579,cs),
(237,633,o),
(194,677,o),
(142,677,cs),
(123,677,o),
(107,671,o),
(98,660,c),
(97,664,l),
(113,727,l)
);
}
);
width = 265;
}
);
unicode = 8309;
},
{
glyphname = sixsuperior;
layers = (
{
layerId = m001;
shapes = (
{
closed = 1;
nodes = (
(270,631,o),
(226,676,o),
(170,676,cs),
(142,676,o),
(116,665,o),
(99,640,c),
(95,641,l),
(95,704,o),
(126,747,o),
(160,747,cs),
(195,747,o),
(191,708,o),
(221,708,cs),
(236,708,o),
(246,718,o),
(246,733,cs),
(246,759,o),
(212,780,o),
(170,780,cs),
(92,780,o),
(29,702,o),
(29,605,cs),
(29,521,o),
(78,464,o),
(150,464,cs),
(217,464,o),
(270,512,o),
(270,574,cs)
);
},
{
closed = 1;
nodes = (
(119,628,o),
(135,642,o),
(156,642,cs),
(184,642,o),
(198,617,o),
(198,567,cs),
(198,515,o),
(182,487,o),
(151,487,cs),
(118,487,o),
(102,517,o),
(102,576,cs),
(102,596,l)
);
}
);
width = 296;
}
);
unicode = 8310;
},
{
glyphname = sevensuperior;
layers = (
{
layerId = m001;
shapes = (
{
closed = 1;
nodes = (
(57,511,o),
(49,495,o),
(49,481,cs),
(49,468,o),
(55,458,o),
(73,458,cs),
(91,458,o),
(107,468,o),
(120,502,cs),
(154,591,o),
(168,634,o),
(227,762,c),
(227,770,l),
(99,770,ls),
(72,770,o),
(66,772,o),
(66,782,cs),
(66,785,o),
(67,792,o),
(68,794,c),
(46,794,l),
(17,682,l),
(38,682,l),
(44,698,ls),
(56,722,o),
(62,725,o),
(106,725,cs),
(174,725,l),
(122,626,ls)
);
}
);
width = 231;
}
);
unicode = 8311;
},
{
glyphname = eightsuperior;
layers = (
{
layerId = m001;
shapes = (
{
closed = 1;
nodes = (
(189,571,o),
(195,560,o),
(195,546,cs),
(195,517,o),
(171,497,o),
(144,497,cs),
(107,497,o),
(84,517,o),
(84,552,cs),
(84,578,o),
(101,597,o),
(127,609,c),
(153,595,ls)
);
},
{
closed = 1;
nodes = (
(216,658,o),
(240,676,o),
(240,710,cs),
(240,732,o),
(228,751,o),
(209,763,cs),
(190,775,o),
(164,780,o),
(140,780,cs),
(114,780,o),
(86,774,o),
(67,758,cs),
(50,743,o),
(39,722,o),
(39,701,cs),
(39,662,o),
(67,639,o),
(99,622,c),
(62,606,o),
(29,581,o),
(29,539,cs),
(29,488,o),
(91,464,o),
(140,464,cs),
(200,464,o),
(253,498,o),
(253,553,cs),
(253,595,o),
(223,623,o),
(186,641,c)
);
},
{
closed = 1;
nodes = (
(113,678,o),
(101,692,o),
(101,708,cs),
(101,731,o),
(118,747,o),
(146,747,cs),
(178,747,o),
(191,728,o),
(191,704,cs),
(191,686,o),
(174,665,o),
(158,655,c),
(138,665,ls)
);
}
);
width = 282;
}
);
unicode = 8312;
},
{
glyphname = ninesuperior;
layers = (
{
layerId = m001;
shapes = (
{
closed = 1;
nodes = (
(28,619,o),
(72,578,o),
(128,578,cs),
(156,578,o),
(181,589,o),
(198,614,c),
(202,611,l),
(202,542,o),
(172,497,o),
(137,497,cs),
(98,497,o),
(101,536,o),
(67,536,cs),
(52,536,o),
(42,526,o),
(42,511,cs),
(42,485,o),
(81,464,o),
(127,464,cs),
(206,464,o),
(269,542,o),
(269,638,cs),
(269,723,o),
(220,780,o),
(148,780,cs),
(81,780,o),
(28,732,o),
(28,670,cs)
);
},
{
closed = 1;
nodes = (
(178,625,o),
(162,612,o),
(141,612,cs),
(113,612,o),
(100,634,o),
(100,679,cs),
(100,730,o),
(117,757,o),
(148,757,cs),
(180,757,o),
(196,730,o),
(196,678,cs),
(196,658,l)
);
}
);
width = 298;
}
);
unicode = 8313;
},
{
glyphname = .notdef;
layers = (
{
layerId = m001;
shapes = (
{
closed = 1;
nodes = (
(626,-260,l),
(626,970,l),
(130,970,l),
(130,-260,l)
);
},
{
closed = 1;
nodes = (
(515,911,l),
(515,-199,l),
(240,-199,l),
(240,911,l)
);
}
);
width = 756;
}
);
},
{
glyphname = period;
kernLeft = KERN_period_2ND;
kernRight = KERN_period_1ST;
layers = (
{
layerId = m001;
shapes = (
{
closed = 1;
nodes = (
(54,23,o),
(87,-10,o),
(129,-10,cs),
(173,-10,o),
(206,23,o),
(206,64,cs),
(206,107,o),
(173,141,o),
(129,141,cs),
(87,141,o),
(54,107,o),
(54,64,cs)
);
}
);
width = 260;
}
);
unicode = 46;
},
{
glyphname = comma;
kernLeft = KERN_period_2ND;
kernRight = KERN_period_1ST;
layers = (
{
layerId = m001;
shapes = (
{
closed = 1;
nodes = (
(159,-89,o),
(206,-24,o),
(206,48,cs),
(206,105,o),
(176,141,o),
(129,141,cs),
(87,141,o),
(54,108,o),
(54,64,cs),
(54,29,o),
(77,0,o),
(105,0,cs),
(115,0,o),
(128,4,o),
(135,8,c),
(135,-28,o),
(102,-65,o),
(30,-113,c),
(59,-155,l)
);
}
);
width = 262;
}
);
unicode = 44;
},
{
glyphname = colon;
kernLeft = KERN_colon;
kernRight = KERN_colon;
layers = (
{
layerId = m001;
shapes = (
{
closed = 1;
nodes = (
(66,23,o),
(99,-10,o),
(141,-10,cs),
(185,-10,o),
(218,23,o),
(218,64,cs),
(218,107,o),
(185,141,o),
(141,141,cs),
(99,141,o),
(66,107,o),
(66,64,cs)
);
},
{
closed = 1;
nodes = (
(66,339,o),
(99,306,o),
(141,306,cs),
(185,306,o),
(218,339,o),
(218,380,cs),
(218,423,o),
(185,457,o),
(141,457,cs),
(99,457,o),
(66,423,o),
(66,380,cs)
);
}
);
width = 284;
}
);
unicode = 58;
},
{
glyphname = semicolon;
kernLeft = KERN_colon;
kernRight = KERN_colon;
layers = (
{
layerId = m001;
shapes = (
{
closed = 1;
nodes = (
(178,-89,o),
(225,-24,o),
(225,48,cs),
(225,105,o),
(195,141,o),
(148,141,cs),
(106,141,o),
(73,108,o),
(73,64,cs),
(73,29,o),
(96,0,o),
(124,0,cs),
(134,0,o),
(147,4,o),
(154,8,c),
(154,-28,o),
(121,-65,o),
(49,-113,c),
(78,-155,l)
);
},
{
closed = 1;
nodes = (
(73,339,o),
(106,306,o),
(148,306,cs),
(192,306,o),
(225,339,o),
(225,380,cs),
(225,423,o),
(192,457,o),
(148,457,cs),
(106,457,o),
(73,423,o),
(73,380,cs)
);
}
);
width = 295;
}
);
unicode = 59;
},
{
glyphname = ellipsis;
kernLeft = KERN_period_2ND;
layers = (
{
layerId = m001;
shapes = (
{
closed = 1;
nodes = (
(54,23,o),
(87,-10,o),
(129,-10,cs),
(173,-10,o),
(206,23,o),
(206,64,cs),
(206,107,o),
(173,141,o),
(129,141,cs),
(87,141,o),
(54,107,o),
(54,64,cs)
);
},
{
closed = 1;
nodes = (
(301,23,o),
(334,-10,o),
(376,-10,cs),
(420,-10,o),
(453,23,o),
(453,64,cs),
(453,107,o),
(420,141,o),
(376,141,cs),
(334,141,o),
(301,107,o),
(301,64,cs)
);
},
{
closed = 1;
nodes = (
(548,23,o),
(581,-10,o),
(623,-10,cs),
(667,-10,o),
(700,23,o),
(700,64,cs),
(700,107,o),
(667,141,o),
(623,141,cs),
(581,141,o),
(548,107,o),
(548,64,cs)
);
}
);
width = 754;
}
);
unicode = 8230;
},
{
glyphname = exclam;
layers = (
{
layerId = m001;
shapes = (
{
closed = 1;
nodes = (
(185,329,o),
(195,408,o),
(205,472,cs),
(218,553,o),
(233,608,o),
(233,690,cs),
(233,750,o),
(207,780,o),
(155,780,cs),
(103,780,o),
(77,750,o),
(77,690,cs),
(77,608,o),
(92,553,o),
(105,472,cs),
(115,408,o),
(125,328,o),
(125,207,c),
(185,207,l)
);
},
{
closed = 1;
nodes = (
(80,22,o),
(113,-10,o),
(156,-10,cs),
(199,-10,o),
(232,23,o),
(232,65,cs),
(232,107,o),
(198,141,o),
(156,141,cs),
(113,141,o),
(80,107,o),
(80,65,cs)
);
}
);
width = 311;
}
);
unicode = 33;
},
{
glyphname = exclamdown;
layers = (
{
layerId = m001;
shapes = (
{
closed = 1;
nodes = (
(126,441,o),
(116,362,o),
(106,298,cs),
(93,217,o),
(78,162,o),
(78,80,cs),
(78,20,o),
(104,-10,o),
(156,-10,cs),
(208,-10,o),
(234,20,o),
(234,80,cs),
(234,162,o),
(219,217,o),
(206,298,cs),
(196,362,o),
(186,442,o),
(186,563,c),
(126,563,l)
);
},
{
closed = 1;
nodes = (
(231,748,o),
(198,780,o),
(155,780,cs),
(112,780,o),
(79,747,o),
(79,705,cs),
(79,663,o),
(113,629,o),
(155,629,cs),
(198,629,o),
(231,663,o),
(231,705,c)
);
}
);
width = 311;
}
);
unicode = 161;
},
{
glyphname = question;
layers = (
{
layerId = m001;
shapes = (
{
closed = 1;
nodes = (
(186,360,l),
(294,360,o),
(357,423,o),
(357,530,cs),
(357,661,o),
(248,780,o),
(129,780,cs),
(81,780,o),
(54,759,o),
(54,719,cs),
(54,684,o),
(81,660,o),
(120,660,cs),
(143,660,o),
(173,671,o),
(199,671,cs),
(249,671,o),
(290,623,o),
(290,565,cs),
(290,507,o),
(244,476,o),
(153,476,cs),
(118,476,l),
(118,239,l),
(186,239,l)
);
},
{
closed = 1;
nodes = (
(72,22,o),
(105,-10,o),
(148,-10,cs),
(191,-10,o),
(224,23,o),
(224,65,cs),
(224,107,o),
(190,141,o),
(148,141,cs),
(105,141,o),
(72,107,o),
(72,65,cs)
);
}
);
width = 403;
}
);
unicode = 63;
},
{
glyphname = questiondown;
layers = (
{
layerId = m001;
shapes = (
{
closed = 1;
nodes = (
(216,410,l),
(108,410,o),
(45,347,o),
(45,240,cs),
(45,109,o),
(154,-10,o),
(273,-10,cs),
(321,-10,o),
(348,11,o),
(348,51,cs),
(348,86,o),
(321,110,o),
(282,110,cs),
(259,110,o),
(229,99,o),
(203,99,cs),
(153,99,o),
(112,147,o),
(112,205,cs),
(112,263,o),
(158,294,o),
(249,294,cs),
(284,294,l),
(284,531,l),
(216,531,l)
);
},
{
closed = 1;
nodes = (
(330,748,o),
(297,780,o),
(254,780,cs),
(211,780,o),
(178,747,o),
(178,705,cs),
(178,663,o),
(212,629,o),
(254,629,cs),
(297,629,o),
(330,663,o),
(330,705,c)
);
}
);
width = 401;
}
);
unicode = 191;
},
{
glyphname = periodcentered;
layers = (
{
layerId = m001;
shapes = (
{
closed = 1;
nodes = (
(65,233,o),
(98,200,o),
(140,200,cs),
(184,200,o),
(217,233,o),
(217,274,cs),
(217,317,o),
(184,351,o),
(140,351,cs),
(98,351,o),
(65,317,o),
(65,274,cs)
);
}
);
width = 281;
}
);
unicode = 183;
},
{
glyphname = bullet;
layers = (
{
layerId = m001;
shapes = (
{
closed = 1;
nodes = (
(321,211,o),
(395,284,o),
(395,369,cs),
(395,454,o),
(321,526,o),
(235,526,cs),
(146,526,o),
(71,454,o),
(71,369,cs),
(71,284,o),
(146,211,o),
(230,211,cs)
);
}
);
width = 466;
}
);
unicode = 8226;
},
{
glyphname = asterisk;
layers = (
{
layerId = m001;
shapes = (
{
closed = 1;
nodes = (
(269,434,o),
(297,452,o),
(297,405,cs),
(297,371,o),
(275,349,o),
(246,349,cs),
(216,349,o),
(193,372,o),
(193,406,cs),
(193,444,o),
(224,452,o),
(225,527,c),
(162,497,o),
(155,430,o),
(101,430,cs),
(76,430,o),
(52,452,o),
(52,481,cs),
(52,500,o),
(62,519,o),
(83,531,cs),
(116,550,o),
(139,526,o),
(203,564,c),
(170,580,o),
(145,589,o),
(115,589,cs),
(83,589,o),
(52,617,o),
(52,646,cs),
(52,676,o),
(77,698,o),
(103,698,cs),
(165,698,o),
(148,644,o),
(224,601,c),
(221,693,o),
(193,677,o),
(193,722,cs),
(193,757,o),
(215,780,o),
(245,780,cs),
(275,780,o),
(298,757,o),
(298,722,cs),
(298,684,o),
(266,676,o),
(266,601,c),
(342,644,o),
(324,698,o),
(387,698,cs),
(412,698,o),
(438,676,o),
(438,646,cs),
(438,617,o),
(406,589,o),
(375,589,cs),
(343,589,o),
(321,582,o),
(287,564,c),
(351,526,o),
(374,550,o),
(407,531,cs),
(427,519,o),
(438,500,o),
(438,481,cs),
(438,452,o),
(414,430,o),
(389,430,cs),
(328,430,o),
(331,501,o),
(267,528,c)
);
}
);
width = 492;
}
);
unicode = 42;
},
{
glyphname = numbersign;
layers = (
{
layerId = m001;
shapes = (
{
closed = 1;
nodes = (
(491,310,l),
(514,470,l),
(655,470,l),
(666,530,l),
(525,530,l),
(560,770,l),
(487,770,l),
(452,530,l),
(303,530,l),
(339,770,l),
(266,770,l),
(230,530,l),
(79,530,l),
(69,470,l),
(219,470,l),
(196,310,l),
(47,310,l),
(36,250,l),
(183,250,l),
(144,0,l),
(217,0,l),
(256,250,l),
(405,250,l),
(369,0,l),
(441,0,l),
(479,250,l),
(625,250,l),
(635,310,l)
);
},
{
closed = 1;
nodes = (
(417,310,l),
(269,310,l),
(292,470,l),
(439,470,l)
);
}
);
width = 702;
}
);
unicode = 35;
},
{
glyphname = slash;
layers = (
{
layerId = m001;
shapes = (
{
closed = 1;
nodes = (
(394,770,l),
(23,0,l),
(94,0,l),
(455,770,l)
);
}
);
width = 477;
}
);
unicode = 47;
},
{
glyphname = backslash;
layers = (
{
layerId = m001;
shapes = (
{
closed = 1;
nodes = (
(454,0,l),
(83,770,l),
(22,770,l),
(383,0,l)
);
}
);
width = 477;
}
);
unicode = 92;
},
{
glyphname = hyphen;
kernLeft = KERN_hyphen;
kernRight = KERN_hyphen;
layers = (
{
layerId = m001;
shapes = (
{
closed = 1;
nodes = (
(391,336,l),
(66,336,l),
(66,243,l),
(391,243,l)
);
}
);
width = 457;
}
);
unicode = 45;
},
{
glyphname = softhyphen;
kernLeft = KERN_hyphen;
kernRight = KERN_hyphen;
layers = (
{
layerId = m001;
shapes = (
{
closed = 1;
nodes = (
(401,337,l),
(66,337,l),
(66,242,l),
(401,242,l)
);
}
);
width = 467;
}
);
unicode = 173;
},
{
glyphname = endash;
kernLeft = KERN_hyphen;
kernRight = KERN_hyphen;
layers = (
{
layerId = m001;
shapes = (
{
closed = 1;
nodes = (
(664,336,l),
(66,336,l),
(66,243,l),
(664,243,l)
);
}
);
width = 730;
}
);
unicode = 8211;
},
{
glyphname = emdash;
kernLeft = KERN_hyphen;
kernRight = KERN_hyphen;
layers = (
{
layerId = m001;
shapes = (
{
closed = 1;
nodes = (
(1072,336,l),
(66,336,l),
(66,243,l),
(1072,243,l)
);
}
);
width = 1138;
}
);
unicode = 8212;
},
{
glyphname = underscore;
layers = (
{
layerId = m001;
shapes = (
{
closed = 1;
nodes = (
(664,-70,l),
(66,-70,l),
(66,-148,l),
(664,-148,l)
);
}
);
width = 730;
}
);
unicode = 95;
},
{
glyphname = parenleft;
layers = (
{
layerId = m001;
shapes = (
{
closed = 1;
nodes = (
(122,677,o),
(35,503,o),
(35,323,cs),
(35,138,o),
(126,-40,o),
(299,-194,c),
(332,-161,l),
(217,-24,o),
(170,169,o),
(170,342,cs),
(170,480,o),
(205,630,o),
(323,803,c),
(291,831,l)
);
}
);
width = 343;
}
);
unicode = 40;
},
{
glyphname = parenright;
layers = (
{
layerId = m001;
shapes = (
{
closed = 1;
nodes = (
(138,630,o),
(173,480,o),
(173,342,cs),
(173,169,o),
(126,-24,o),
(11,-161,c),
(44,-194,l),
(217,-40,o),
(308,138,o),
(308,323,cs),
(308,503,o),
(221,677,o),
(52,831,c),
(20,803,l)
);
}
);
width = 343;
}
);
unicode = 41;
},
{
glyphname = braceleft;
layers = (
{
layerId = m001;
shapes = (
{
closed = 1;
nodes = (
(237,278,o),
(215,326,o),
(114,340,c),
(114,345,l),
(222,363,o),
(237,419,o),
(237,501,cs),
(237,675,ls),
(237,743,o),
(258,782,o),
(323,797,c),
(323,830,l),
(150,830,o),
(113,786,o),
(113,659,cs),
(113,489,ls),
(113,413,o),
(98,375,o),
(19,360,c),
(19,325,l),
(91,319,o),
(113,255,o),
(113,195,cs),
(113,4,ls),
(113,-117,o),
(163,-150,o),
(328,-150,c),
(328,-118,l),
(256,-100,o),
(237,-64,o),
(237,5,cs),
(237,198,ls)
);
}
);
width = 354;
}
);
unicode = 123;
},
{
glyphname = braceright;
layers = (
{
layerId = m001;
shapes = (
{
closed = 1;
nodes = (
(117,-64,o),
(98,-100,o),
(26,-118,c),
(26,-150,l),
(191,-150,o),
(241,-117,o),
(241,4,cs),
(241,195,ls),
(241,255,o),
(263,319,o),
(335,325,c),
(335,360,l),
(256,375,o),
(241,413,o),
(241,489,cs),
(241,659,ls),
(241,786,o),
(204,830,o),
(31,830,c),
(31,797,l),
(96,782,o),
(117,743,o),
(117,675,cs),
(117,501,ls),
(117,419,o),
(132,363,o),
(240,345,c),
(240,340,l),
(139,326,o),
(117,278,o),
(117,198,cs),
(117,5,l)
);
}
);
width = 354;
}
);
unicode = 125;
},
{
glyphname = bracketleft;
layers = (
{
layerId = m001;
shapes = (
{
closed = 1;
nodes = (
(379,820,l),
(96,820,l),
(96,-150,l),
(379,-150,l),
(379,-98,l),
(220,-98,l),
(220,768,l),
(379,768,l)
);
}
);
width = 392;
}
);
unicode = 91;
},
{
glyphname = bracketright;
layers = (
{
layerId = m001;
shapes = (
{
closed = 1;
nodes = (
(172,-98,l),
(13,-98,l),
(13,-150,l),
(296,-150,l),
(296,820,l),
(13,820,l),
(13,768,l),
(172,768,l)
);
}
);
width = 392;
}
);
unicode = 93;
},
{
glyphname = quotesinglbase;
kernLeft = KERN_period_2ND;
kernRight = KERN_period_1ST;
layers = (
{
layerId = m001;
shapes = (
{
closed = 1;
nodes = (
(165,-124,o),
(207,-56,o),
(207,12,cs),
(207,69,o),
(178,106,o),
(132,106,cs),
(88,106,o),
(55,73,o),
(55,29,cs),
(55,-7,o),
(78,-35,o),
(109,-35,cs),
(116,-35,o),
(126,-34,o),
(131,-32,c),
(131,-65,o),
(104,-105,o),
(56,-142,c),
(85,-184,l)
);
}
);
width = 261;
}
);
unicode = 8218;
},
{
glyphname = quotedblbase;
kernLeft = KERN_period_2ND;
kernRight = KERN_period_1ST;
layers = (
{
layerId = m001;
shapes = (
{
closed = 1;
nodes = (
(165,-124,o),
(207,-56,o),
(207,12,cs),
(207,69,o),
(178,106,o),
(132,106,cs),
(88,106,o),
(55,73,o),
(55,29,cs),
(55,-7,o),
(78,-35,o),
(109,-35,cs),
(116,-35,o),
(126,-34,o),
(131,-32,c),
(131,-65,o),
(104,-105,o),
(56,-142,c),
(85,-184,l)
);
},
{
closed = 1;
nodes = (
(371,-124,o),
(413,-56,o),
(413,12,cs),
(413,69,o),
(384,106,o),
(338,106,cs),
(294,106,o),
(261,73,o),
(261,29,cs),
(261,-7,o),
(284,-35,o),
(315,-35,cs),
(322,-35,o),
(332,-34,o),
(337,-32,c),
(337,-65,o),
(310,-105,o),
(262,-142,c),
(291,-184,l)
);
}
);
width = 467;
}
);
unicode = 8222;
},
{
glyphname = quotedblleft;
kernLeft = KERN_quoteleft;
kernRight = KERN_quoteleft;
layers = (
{
layerId = m001;
shapes = (
{
closed = 1;
nodes = (
(292,770,o),
(250,702,o),
(250,634,cs),
(250,577,o),
(279,540,o),
(325,540,cs),
(369,540,o),
(402,573,o),
(402,617,cs),
(402,653,o),
(379,681,o),
(348,681,cs),
(341,681,o),
(331,680,o),
(326,678,c),
(326,711,o),
(353,751,o),
(401,788,c),
(372,830,l)
);
},
{
closed = 1;
nodes = (
(86,770,o),
(44,702,o),
(44,634,cs),
(44,577,o),
(73,540,o),
(119,540,cs),
(163,540,o),
(196,573,o),
(196,617,cs),
(196,653,o),
(173,681,o),
(142,681,cs),
(135,681,o),
(125,680,o),
(120,678,c),
(120,711,o),
(147,751,o),
(195,788,c),
(166,830,l)
);
}
);
width = 453;
}
);
unicode = 8220;
},
{
glyphname = quotedblright;
kernLeft = KERN_quoteright;
kernRight = KERN_quoteright;
layers = (
{
layerId = m001;
shapes = (
{
closed = 1;
nodes = (
(164,600,o),
(206,668,o),
(206,736,cs),
(206,793,o),
(177,830,o),
(131,830,cs),
(87,830,o),
(54,797,o),
(54,753,cs),
(54,717,o),
(77,689,o),
(108,689,cs),
(115,689,o),
(125,690,o),
(130,692,c),
(130,659,o),
(103,619,o),
(55,582,c),
(84,540,l)
);
},
{
closed = 1;
nodes = (
(370,600,o),
(412,668,o),
(412,736,cs),
(412,793,o),
(383,830,o),
(337,830,cs),
(293,830,o),
(260,797,o),
(260,753,cs),
(260,717,o),
(283,689,o),
(314,689,cs),
(321,689,o),
(331,690,o),
(336,692,c),
(336,659,o),
(309,619,o),
(261,582,c),
(290,540,l)
);
}
);
width = 448;
}
);
unicode = 8221;
},
{
glyphname = quoteleft;
kernLeft = KERN_quoteleft;
kernRight = KERN_quoteleft;
layers = (
{
layerId = m001;
shapes = (
{
closed = 1;
nodes = (
(86,770,o),
(44,702,o),
(44,634,cs),
(44,577,o),
(73,540,o),
(119,540,cs),
(163,540,o),
(196,573,o),
(196,617,cs),
(196,653,o),
(173,681,o),
(142,681,cs),
(135,681,o),
(125,680,o),
(120,678,c),
(120,711,o),
(147,751,o),
(195,788,c),
(166,830,l)
);
}
);
width = 247;
}
);
unicode = 8216;
},
{
glyphname = quoteright;
kernLeft = KERN_quoteright;
kernRight = KERN_quoteright;
layers = (
{
layerId = m001;
shapes = (
{
closed = 1;
nodes = (
(164,600,o),
(206,668,o),
(206,736,cs),
(206,793,o),
(177,830,o),
(131,830,cs),
(87,830,o),
(54,797,o),
(54,753,cs),
(54,717,o),
(77,689,o),
(108,689,cs),
(115,689,o),
(125,690,o),
(130,692,c),
(130,659,o),
(103,619,o),
(55,582,c),
(84,540,l)
);
}
);
width = 242;
}
);
unicode = 8217;
},
{
glyphname = guillemetleft;
kernLeft = KERN_guilsinglleft;
kernRight = KERN_guilsinglleft;
layers = (
{
layerId = m001;
shapes = (
{
closed = 1;
nodes = (
(272,101,l),
(182,262,l),
(274,424,l),
(242,447,l),
(46,262,l),
(238,77,l)
);
},
{
closed = 1;
nodes = (
(492,101,l),
(402,262,l),
(494,424,l),
(462,447,l),
(266,262,l),
(458,77,l)
);
}
);
width = 553;
}
);
unicode = 171;
},
{
glyphname = guillemetright;
kernLeft = KERN_guilsinglright;
kernRight = KERN_guilsinglright;
layers = (
{
layerId = m001;
shapes = (
{
closed = 1;
nodes = (
(311,447,l),
(279,424,l),
(371,262,l),
(281,101,l),
(315,77,l),
(507,262,l)
);
},
{
closed = 1;
nodes = (
(91,447,l),
(59,424,l),
(151,262,l),
(61,101,l),
(95,77,l),
(287,262,l)
);
}
);
width = 553;
}
);
unicode = 187;
},
{
glyphname = guilsinglleft;
kernLeft = KERN_guilsinglleft;
kernRight = KERN_guilsinglleft;
layers = (
{
layerId = m001;
shapes = (
{
closed = 1;
nodes = (
(272,101,l),
(182,262,l),
(274,424,l),
(242,447,l),
(46,262,l),
(238,77,l)
);
}
);
width = 333;
}
);
unicode = 8249;
},
{
glyphname = guilsinglright;
kernLeft = KERN_guilsinglright;
kernRight = KERN_guilsinglright;
layers = (
{
layerId = m001;
shapes = (
{
closed = 1;
nodes = (
(91,447,l),
(59,424,l),
(151,262,l),
(61,101,l),
(95,77,l),
(287,262,l)
);
}
);
width = 333;
}
);
unicode = 8250;
},
{
glyphname = quotedbl;
kernLeft = KERN_quotesingle;
kernRight = KERN_quotesingle;
layers = (
{
layerId = m001;
shapes = (
{
closed = 1;
nodes = (
(139,626,o),
(165,739,o),
(165,770,cs),
(165,805,o),
(140,830,o),
(106,830,cs),
(73,830,o),
(48,805,o),
(48,771,cs),
(48,740,o),
(74,626,o),
(86,554,c),
(127,554,l)
);
},
{
closed = 1;
nodes = (
(318,626,o),
(344,739,o),
(344,770,cs),
(344,805,o),
(319,830,o),
(286,830,cs),
(252,830,o),
(227,805,o),
(227,771,cs),
(227,740,o),
(254,626,o),
(266,554,c),
(307,554,l)
);
}
);
width = 392;
}
);
unicode = 34;
},
{
glyphname = quotesingle;
kernLeft = KERN_quotesingle;
kernRight = KERN_quotesingle;
layers = (
{
layerId = m001;
shapes = (
{
closed = 1;
nodes = (
(139,626,o),
(165,739,o),
(165,770,cs),
(165,805,o),
(140,830,o),
(106,830,cs),
(73,830,o),
(48,805,o),
(48,771,cs),
(48,740,o),
(74,626,o),
(86,554,c),
(127,554,l)
);
}
);
width = 213;
}
);
unicode = 39;
},
{
glyphname = florin;
layers = (
{
layerId = m001;
shapes = (
{
closed = 1;
nodes = (
(30,-201,o),
(27,-198,o),
(-11,-148,cs),
(-35,-116,o),
(-52,-104,o),
(-75,-104,cs),
(-105,-104,o),
(-126,-126,o),
(-126,-156,cs),
(-126,-213,o),
(-50,-260,o),
(40,-260,cs),
(133,-260,o),
(202,-209,o),
(258,-99,cs),
(293,-30,o),
(313,45,o),
(345,226,cs),
(380,425,l),
(502,425,l),
(516,480,l),
(386,480,l),
(394,523,ls),
(419,662,o),
(457,722,o),
(519,722,cs),
(545,722,o),
(558,713,o),
(603,664,cs),
(623,642,o),
(635,635,o),
(657,635,cs),
(689,635,o),
(707,652,o),
(707,681,cs),
(707,739,o),
(639,780,o),
(544,780,cs),
(397,780,o),
(288,683,o),
(256,525,cs),
(247,480,l),
(142,480,l),
(127,425,l),
(237,425,l),
(182,82,ls),
(148,-127,o),
(115,-201,o),
(55,-201,cs)
);
}
);
width = 723;
}
);
unicode = 402;
},
{
glyphname = at;
layers = (
{
layerId = m001;
shapes = (
{
closed = 1;
nodes = (
(834,530,l),
(764,303,ls),
(744,238,o),
(736,196,o),
(736,177,cs),
(736,153,o),
(754,137,o),
(782,137,cs),
(865,137,o),
(953,282,o),
(953,418,cs),
(953,595,o),
(802,725,o),
(597,725,cs),
(353,725,o),
(166,540,o),
(166,300,cs),
(166,75,o),
(330,-76,o),
(573,-76,cs),
(688,-76,o),
(794,-43,o),
(893,24,c),
(925,-17,l),
(800,-99,o),
(690,-134,o),
(557,-134,cs),
(255,-134,o),
(40,47,o),
(40,301,cs),
(40,569,o),
(280,780,o),
(587,780,cs),
(840,780,o),
(1010,636,o),
(1010,422,cs),
(1010,237,o),
(885,77,o),
(740,77,cs),
(668,77,o),
(629,118,o),
(623,192,c),
(619,192,l),
(575,119,o),
(511,77,o),
(446,77,cs),
(354,77,o),
(279,161,o),
(279,263,cs),
(279,402,o),
(423,540,o),
(568,540,cs),
(633,540,o),
(666,513,o),
(686,442,c),
(690,442,l),
(713,530,l)
);
},
{
closed = 1;
nodes = (
(493,488,o),
(412,367,o),
(412,236,cs),
(412,168,o),
(433,132,o),
(472,132,cs),
(552,132,o),
(651,276,o),
(651,393,cs),
(651,454,o),
(626,488,o),
(580,488,cs)
);
}
);
width = 1061;
}
);
unicode = 64;
},
{
glyphname = ampersand;
layers = (
{
layerId = m001;
shapes = (
{
closed = 1;
nodes = (
(319,516,o),
(298,566,o),
(298,618,cs),
(298,677,o),
(320,709,o),
(362,709,cs),
(408,709,o),
(438,673,o),
(438,617,cs),
(438,563,o),
(413,517,o),
(356,473,c)
);
},
{
closed = 1;
nodes = (
(406,89,o),
(342,63,o),
(290,63,cs),
(225,63,o),
(177,112,o),
(177,179,cs),
(177,244,o),
(215,309,o),
(282,354,c),
(460,133,l)
);
},
{
closed = 1;
nodes = (
(503,499,o),
(551,559,o),
(551,631,cs),
(551,718,o),
(478,780,o),
(377,780,cs),
(263,780,o),
(184,699,o),
(184,582,cs),
(184,523,o),
(204,470,o),
(248,408,c),
(89,330,o),
(20,257,o),
(20,167,cs),
(20,65,o),
(113,-10,o),
(241,-10,cs),
(336,-10,o),
(435,34,o),
(503,97,c),
(590,22,o),
(643,-10,o),
(712,-10,cs),
(797,-10,o),
(852,31,o),
(867,105,c),
(841,112,l),
(818,75,o),
(801,65,o),
(764,65,cs),
(706,65,o),
(639,108,o),
(585,177,c),
(724,370,ls),
(754,412,o),
(779,432,o),
(840,432,c),
(840,472,l),
(598,472,l),
(598,432,l),
(644,432,o),
(662,423,o),
(662,402,cs),
(662,370,o),
(616,297,o),
(551,224,c),
(391,425,l)
);
}
);
width = 891;
}
);
unicode = 38;
},
{
glyphname = paragraph;
layers = (
{
layerId = m001;
shapes = (
{
closed = 1;
nodes = (
(512,640,o),
(516,670,o),
(524,691,cs),
(534,719,o),
(553,727,o),
(612,727,c),
(612,770,l),
(322,770,ls),
(135,770,o),
(33,695,o),
(33,559,cs),
(33,429,o),
(108,352,o),
(235,352,cs),
(251,352,o),
(260,353,o),
(271,353,c),
(271,68,ls),
(271,3,o),
(267,-66,o),
(261,-83,cs),
(251,-111,o),
(220,-122,o),
(146,-122,c),
(146,-165,l),
(368,-165,l),
(368,716,l),
(416,716,l),
(416,-165,l),
(612,-165,l),
(612,-122,l),
(558,-122,o),
(534,-112,o),
(526,-86,cs),
(517,-65,o),
(512,-7,o),
(512,68,cs),
(512,568,ls)
);
}
);
width = 659;
}
);
unicode = 182;
},
{
glyphname = section;
layers = (
{
layerId = m001;
shapes = (
{
closed = 1;
nodes = (
(170,328,o),
(143,359,o),
(143,392,cs),
(143,417,o),
(159,443,o),
(200,466,c),
(340,387,ls),
(387,361,o),
(424,319,o),
(425,279,cs),
(425,255,o),
(411,232,o),
(378,211,c),
(208,307,ls)
);
},
{
closed = 1;
nodes = (
(389,46,o),
(410,23,o),
(410,-19,cs),
(410,-82,o),
(361,-119,o),
(276,-119,cs),
(204,-119,o),
(139,-93,o),
(139,-64,cs),
(139,-40,o),
(185,-22,o),
(185,22,cs),
(185,58,o),
(153,88,o),
(114,88,cs),
(73,88,o),
(47,54,o),
(47,0,cs),
(47,-102,o),
(141,-174,o),
(272,-174,cs),
(409,-174,o),
(503,-96,o),
(503,16,cs),
(503,77,o),
(476,134,o),
(427,177,c),
(488,219,o),
(513,264,o),
(513,328,cs),
(513,400,o),
(482,453,o),
(392,508,cs),
(287,572,ls),
(178,638,o),
(167,660,o),
(167,691,cs),
(167,750,o),
(206,780,o),
(275,780,cs),
(332,780,o),
(374,760,o),
(374,734,cs),
(374,713,o),
(344,708,o),
(344,671,cs),
(344,635,o),
(372,610,o),
(410,610,cs),
(451,610,o),
(476,639,o),
(476,685,cs),
(476,770,o),
(393,830,o),
(275,830,cs),
(150,830,o),
(69,763,o),
(69,660,cs),
(69,597,o),
(100,535,o),
(149,499,c),
(84,468,o),
(50,417,o),
(50,346,cs),
(50,269,o),
(90,215,o),
(173,168,cs),
(281,107,ls)
);
}
);
width = 560;
}
);
unicode = 167;
},
{
glyphname = copyright;
layers = (
{
layerId = m001;
shapes = (
{
closed = 1;
nodes = (
(857,605,o),
(675,780,o),
(448,780,cs),
(224,780,o),
(45,602,o),
(45,385,cs),
(45,168,o),
(225,-10,o),
(449,-10,cs),
(675,-10,o),
(857,166,o),
(857,386,cs)
);
},
{
closed = 1;
nodes = (
(797,200,o),
(640,48,o),
(449,48,cs),
(257,48,o),
(105,200,o),
(105,385,cs),
(105,570,o),
(256,722,o),
(448,722,cs),
(640,722,o),
(797,573,o),
(797,386,cs)
);
},
{
closed = 1;
nodes = (
(589,242,o),
(543,208,o),
(475,208,cs),
(383,208,o),
(333,268,o),
(333,379,cs),
(333,492,o),
(384,559,o),
(473,559,cs),
(541,559,o),
(593,526,o),
(610,472,c),
(637,472,l),
(632,603,l),
(610,603,l),
(600,558,l),
(551,594,o),
(513,609,o),
(467,609,cs),
(319,609,o),
(217,514,o),
(217,375,cs),
(217,243,o),
(312,157,o),
(461,157,cs),
(565,157,o),
(623,217,o),
(643,305,c),
(608,305,l)
);
}
);
width = 902;
}
);
unicode = 169;
},
{
glyphname = registered;
layers = (
{
layerId = m001;
shapes = (
{
closed = 1;
nodes = (
(857,605,o),
(675,780,o),
(448,780,cs),
(224,780,o),
(45,602,o),
(45,385,cs),
(45,168,o),
(225,-10,o),
(449,-10,cs),
(675,-10,o),
(857,166,o),
(857,386,cs)
);
},
{
closed = 1;
nodes = (
(797,200,o),
(640,48,o),
(449,48,cs),
(257,48,o),
(105,200,o),
(105,385,cs),
(105,570,o),
(256,722,o),
(448,722,cs),
(640,722,o),
(797,573,o),
(797,386,cs)
);
},
{
closed = 1;
nodes = (
(616,574,o),
(548,615,o),
(430,615,cs),
(246,615,l),
(246,585,l),
(283,583,o),
(289,573,o),
(289,522,cs),
(289,273,ls),
(289,222,o),
(282,212,o),
(240,210,c),
(240,183,l),
(448,183,l),
(448,210,l),
(385,210,o),
(377,222,o),
(377,276,cs),
(377,383,l),
(393,383,o),
(405,377,o),
(425,354,cs),
(570,183,l),
(694,183,l),
(694,210,l),
(662,215,o),
(643,225,o),
(623,248,cs),
(493,393,l),
(579,405,o),
(616,447,o),
(616,507,cs)
);
},
{
closed = 1;
nodes = (
(377,576,o),
(379,580,o),
(387,580,cs),
(430,580,ls),
(489,580,o),
(514,559,o),
(514,504,cs),
(514,442,o),
(482,416,o),
(414,416,cs),
(377,416,l),
(377,571,ls)
);
}
);
width = 902;
}
);
unicode = 174;
},
{
glyphname = trademark;
layers = (
{
layerId = m001;
shapes = (
{
closed = 1;
nodes = (
(61,770,l),
(61,689,l),
(82,689,l),
(84,740,o),
(111,743,o),
(147,743,cs),
(182,743,o),
(189,740,o),
(189,730,cs),
(189,536,ls),
(189,502,o),
(182,489,o),
(139,487,c),
(139,462,l),
(302,462,l),
(302,487,l),
(259,489,o),
(253,501,o),
(253,536,cs),
(253,730,ls),
(253,740,o),
(259,743,o),
(300,743,cs),
(343,743,o),
(352,731,o),
(356,689,c),
(378,689,l),
(378,770,l)
);
},
{
closed = 1;
nodes = (
(836,770,l),
(836,745,l),
(800,745,o),
(794,733,o),
(794,684,cs),
(794,548,ls),
(794,495,o),
(800,488,o),
(840,487,c),
(840,462,l),
(685,462,l),
(685,487,l),
(725,488,o),
(731,495,o),
(731,545,cs),
(731,720,l),
(727,720,l),
(611,458,l),
(598,458,l),
(489,720,l),
(485,720,l),
(485,548,ls),
(485,495,o),
(491,488,o),
(531,487,c),
(531,462,l),
(403,462,l),
(403,487,l),
(443,488,o),
(449,495,o),
(449,545,cs),
(449,687,ls),
(449,732,o),
(440,745,o),
(407,745,c),
(407,770,l),
(539,770,l),
(624,559,l),
(715,770,l)
);
}
);
width = 906;
}
);
unicode = 8482;
},
{
glyphname = degree;
layers = (
{
layerId = m001;
shapes = (
{
closed = 1;
nodes = (
(41,594,o),
(98,540,o),
(167,540,cs),
(236,540,o),
(293,594,o),
(293,660,cs),
(293,726,o),
(236,780,o),
(167,780,cs),
(98,780,o),
(41,726,o),
(41,660,cs)
);
},
{
closed = 1;
nodes = (
(87,701,o),
(124,734,o),
(167,734,cs),
(210,734,o),
(245,701,o),
(245,660,cs),
(245,619,o),
(210,585,o),
(167,585,cs),
(124,585,o),
(87,619,o),
(87,660,cs)
);
}
);
width = 334;
}
);
unicode = 176;
},
{
glyphname = bar;
layers = (
{
layerId = m001;
shapes = (
{
closed = 1;
nodes = (
(94,-250,l),
(201,-250,l),
(201,820,l),
(94,820,l)
);
}
);
width = 295;
}
);
unicode = 124;
},
{
glyphname = brokenbar;
layers = (
{
layerId = m001;
shapes = (
{
closed = 1;
nodes = (
(98,365,l),
(206,365,l),
(206,750,l),
(98,750,l)
);
},
{
closed = 1;
nodes = (
(98,-180,l),
(206,-180,l),
(206,205,l),
(98,205,l)
);
}
);
width = 304;
}
);
unicode = 166;
},
{
glyphname = dagger;
layers = (
{
layerId = m001;
shapes = (
{
closed = 1;
nodes = (
(140,424,o),
(169,458,o),
(265,466,c),
(264,368,o),
(243,317,o),
(197,261,c),
(233,153,o),
(265,-93,o),
(265,-260,c),
(317,-260,l),
(317,-93,o),
(349,153,o),
(385,261,c),
(339,317,o),
(317,368,o),
(317,466,c),
(410,458,o),
(440,424,o),
(488,424,cs),
(525,424,o),
(553,453,o),
(553,491,cs),
(553,529,o),
(525,558,o),
(488,558,cs),
(440,558,o),
(412,524,o),
(317,515,c),
(322,631,o),
(361,659,o),
(361,713,cs),
(361,751,o),
(331,780,o),
(291,780,cs),
(251,780,o),
(221,751,o),
(221,713,cs),
(221,658,o),
(261,630,o),
(264,515,c),
(168,523,o),
(139,558,o),
(92,558,cs),
(55,558,o),
(27,529,o),
(27,491,cs),
(27,453,o),
(55,424,o),
(92,424,cs)
);
}
);
width = 580;
}
);
unicode = 8224;
},
{
glyphname = daggerdbl;
layers = (
{
layerId = m001;
shapes = (
{
closed = 1;
nodes = (
(346,316,o),
(323,367,o),
(323,464,c),
(409,455,o),
(437,419,o),
(481,419,cs),
(524,419,o),
(556,450,o),
(556,491,cs),
(556,532,o),
(524,563,o),
(481,563,cs),
(437,563,o),
(410,527,o),
(323,517,c),
(329,629,o),
(374,657,o),
(374,708,cs),
(374,749,o),
(342,780,o),
(299,780,cs),
(256,780,o),
(224,749,o),
(224,708,cs),
(224,656,o),
(270,628,o),
(274,517,c),
(186,526,o),
(158,563,o),
(115,563,cs),
(72,563,o),
(40,532,o),
(40,491,cs),
(40,450,o),
(72,419,o),
(115,419,cs),
(159,419,o),
(187,455,o),
(275,464,c),
(274,367,o),
(252,316,o),
(205,261,c),
(251,204,o),
(272,153,o),
(273,56,c),
(186,65,o),
(159,101,o),
(115,101,cs),
(72,101,o),
(40,70,o),
(40,29,cs),
(40,-12,o),
(72,-43,o),
(115,-43,cs),
(158,-43,o),
(185,-6,o),
(272,3,c),
(268,-108,o),
(224,-136,o),
(224,-188,cs),
(224,-229,o),
(256,-260,o),
(299,-260,cs),
(342,-260,o),
(374,-229,o),
(374,-188,cs),
(374,-137,o),
(330,-109,o),
(325,3,c),
(411,-7,o),
(437,-43,o),
(481,-43,cs),
(524,-43,o),
(556,-12,o),
(556,29,cs),
(556,70,o),
(524,101,o),
(481,101,cs),
(437,101,o),
(410,65,o),
(325,56,c),
(325,153,o),
(347,206,o),
(393,261,c)
);
}
);
width = 596;
}
);
unicode = 8225;
},
{
glyphname = servicemark;
layers = (
{
layerId = m001;
shapes = (
{
closed = 1;
nodes = (
(83,472,l),
(94,492,l),
(117,473,o),
(139,464,o),
(170,464,cs),
(226,464,o),
(286,493,o),
(286,554,cs),
(286,602,o),
(265,627,o),
(178,664,cs),
(137,681,o),
(125,694,o),
(125,716,cs),
(125,740,o),
(147,750,o),
(170,750,cs),
(201,750,o),
(221,736,o),
(235,695,c),
(258,695,l),
(258,774,l),
(247,774,l),
(235,756,l),
(213,773,o),
(192,780,o),
(169,780,cs),
(120,780,o),
(74,750,o),
(74,696,cs),
(74,651,o),
(95,623,o),
(166,594,cs),
(217,573,o),
(229,559,o),
(229,536,cs),
(229,508,o),
(203,494,o),
(171,494,cs),
(122,494,o),
(99,526,o),
(92,562,c),
(68,562,l),
(68,472,l)
);
},
{
closed = 1;
nodes = (
(736,770,l),
(736,745,l),
(700,745,o),
(694,733,o),
(694,684,cs),
(694,548,ls),
(694,495,o),
(700,488,o),
(740,487,c),
(740,462,l),
(585,462,l),
(585,487,l),
(626,488,o),
(631,495,o),
(631,545,cs),
(631,720,l),
(627,720,l),
(511,458,l),
(498,458,l),
(389,720,l),
(385,720,l),
(385,548,ls),
(385,495,o),
(391,488,o),
(431,487,c),
(431,462,l),
(303,462,l),
(303,487,l),
(343,488,o),
(349,495,o),
(349,545,cs),
(349,687,ls),
(349,732,o),
(343,745,o),
(307,745,c),
(307,770,l),
(439,770,l),
(524,559,l),
(615,770,l)
);
}
);
width = 806;
}
);
unicode = 8480;
},
{
glyphname = cent;
layers = (
{
layerId = m001;
shapes = (
{
closed = 1;
nodes = (
(285,537,l),
(139,518,o),
(44,414,o),
(44,261,cs),
(44,103,o),
(142,-4,o),
(285,-10,c),
(285,-147,l),
(349,-147,l),
(349,-6,l),
(423,4,o),
(492,36,o),
(533,83,c),
(507,121,l),
(459,82,o),
(410,63,o),
(349,62,c),
(349,476,l),
(370,467,o),
(386,446,o),
(405,411,c),
(431,369,o),
(455,359,o),
(480,359,cs),
(523,359,o),
(541,390,o),
(541,419,cs),
(541,474,o),
(478,536,o),
(349,540,c),
(349,683,l),
(285,683,l)
);
},
{
closed = 1;
nodes = (
(198,393,o),
(227,462,o),
(285,479,c),
(285,73,l),
(228,98,o),
(198,167,o),
(198,276,cs)
);
}
);
width = 579;
}
);
unicode = 162;
},
{
glyphname = currency;
layers = (
{
layerId = m001;
shapes = (
{
closed = 1;
nodes = (
(88,23,l),
(162,94,l),
(201,63,o),
(249,46,o),
(305,46,cs),
(360,46,o),
(408,62,o),
(448,93,c),
(522,22,l),
(559,57,l),
(485,128,l),
(516,165,o),
(534,211,o),
(534,263,cs),
(534,315,o),
(516,361,o),
(483,399,c),
(559,471,l),
(522,506,l),
(447,434,l),
(407,464,o),
(360,481,o),
(305,481,cs),
(250,481,o),
(202,464,o),
(163,434,c),
(88,506,l),
(51,471,l),
(126,399,l),
(94,361,o),
(77,315,o),
(77,263,cs),
(77,211,o),
(95,165,o),
(126,128,c),
(52,57,l)
);
},
{
closed = 1;
nodes = (
(140,350,o),
(214,421,o),
(305,421,cs),
(396,421,o),
(471,350,o),
(471,263,cs),
(471,177,o),
(396,106,o),
(305,106,cs),
(214,106,o),
(140,177,o),
(140,263,cs)
);
}
);
width = 610;
}
);
unicode = 164;
},
{
glyphname = dollar;
layers = (
{
layerId = m001;
shapes = (
{
closed = 1;
nodes = (
(285,779,l),
(174,779,o),
(64,697,o),
(64,562,cs),
(64,461,o),
(133,389,o),
(285,328,c),
(285,52,l),
(224,57,o),
(189,88,o),
(174,146,cs),
(154,225,o),
(133,250,o),
(96,250,cs),
(59,250,o),
(37,224,o),
(37,178,cs),
(37,79,o),
(143,-1,o),
(285,-9,c),
(285,-170,l),
(353,-170,l),
(353,-8,l),
(509,5,o),
(607,94,o),
(607,220,cs),
(607,327,o),
(533,401,o),
(353,473,c),
(353,717,l),
(460,717,o),
(423,552,o),
(518,552,cs),
(553,552,o),
(576,575,o),
(576,610,cs),
(576,698,o),
(468,777,o),
(353,777,c),
(353,900,l),
(285,900,l)
);
},
{
closed = 1;
nodes = (
(480,106,o),
(434,64,o),
(353,54,c),
(353,301,l),
(445,261,o),
(480,224,o),
(480,168,cs)
);
},
{
closed = 1;
nodes = (
(177,670,o),
(227,716,o),
(285,716,c),
(285,501,l),
(212,534,o),
(177,571,o),
(177,616,cs)
);
}
);
width = 644;
}
);
unicode = 36;
},
{
glyphname = euro;
layers = (
{
layerId = m001;
shapes = (
{
closed = 1;
nodes = (
(295,358,l),
(295,367,o),
(295,377,o),
(294,387,cs),
(294,401,o),
(295,416,o),
(297,430,c),
(520,430,l),
(520,490,l),
(300,490,l),
(318,645,o),
(377,722,o),
(468,722,cs),
(546,722,o),
(600,655,o),
(623,534,c),
(678,534,l),
(678,770,l),
(639,770,l),
(621,719,l),
(562,769,o),
(528,780,o),
(464,780,cs),
(295,780,o),
(169,677,o),
(131,490,c),
(37,490,l),
(37,430,l),
(125,430,l),
(123,416,o),
(122,402,o),
(122,388,cs),
(122,378,o),
(122,368,o),
(123,358,c),
(38,358,l),
(38,298,l),
(128,298,l),
(161,108,o),
(285,-10,o),
(452,-10,cs),
(527,-10,o),
(588,16,o),
(636,69,c),
(648,0,l),
(694,0,l),
(694,270,l),
(639,270,l),
(627,138,o),
(556,48,o),
(460,48,cs),
(365,48,o),
(298,149,o),
(298,298,c),
(520,298,l),
(520,358,l)
);
}
);
width = 762;
}
);
unicode = 8364;
},
{
glyphname = sterling;
layers = (
{
layerId = m001;
shapes = (
{
closed = 1;
nodes = (
(219,59,o),
(188,49,o),
(158,49,cs),
(128,49,o),
(113,59,o),
(113,81,cs),
(113,101,o),
(127,113,o),
(151,113,cs),
(173,113,o),
(199,103,o),
(242,77,c)
);
},
{
closed = 1;
nodes = (
(300,555,o),
(293,598,o),
(293,621,cs),
(293,682,o),
(341,722,o),
(413,722,cs),
(536,722,o),
(487,604,o),
(579,604,cs),
(614,604,o),
(633,621,o),
(633,655,cs),
(633,728,o),
(545,780,o),
(422,780,cs),
(265,780,o),
(165,696,o),
(165,564,cs),
(165,526,o),
(173,481,o),
(189,431,c),
(78,431,l),
(78,370,l),
(209,370,l),
(245,304,o),
(267,240,o),
(267,199,cs),
(267,184,o),
(265,152,o),
(263,143,c),
(226,160,o),
(184,170,o),
(150,170,cs),
(83,170,o),
(35,129,o),
(35,72,cs),
(35,21,o),
(75,-11,o),
(141,-11,cs),
(200,-11,o),
(266,15,o),
(293,49,c),
(394,6,o),
(451,-10,o),
(507,-10,cs),
(612,-10,o),
(665,45,o),
(665,154,c),
(654,158,l),
(616,124,o),
(568,109,o),
(499,109,cs),
(451,109,o),
(381,116,o),
(332,126,c),
(360,164,o),
(372,208,o),
(372,271,cs),
(372,306,o),
(368,331,o),
(358,370,c),
(557,370,l),
(557,431,l),
(344,431,l),
(307,534,ls)
);
}
);
width = 708;
}
);
unicode = 163;
},
{
glyphname = yen;
layers = (
{
layerId = m001;
shapes = (
{
closed = 1;
nodes = (
(497,235,l),
(497,299,l),
(661,299,l),
(661,364,l),
(538,364,l),
(657,568,ls),
(740,710,o),
(766,730,o),
(825,730,c),
(825,770,l),
(574,770,l),
(574,730,l),
(628,730,o),
(642,720,o),
(642,698,cs),
(642,674,o),
(633,653,o),
(580,563,cs),
(462,363,l),
(458,363,l),
(315,638,ls),
(301,665,o),
(294,684,o),
(294,698,cs),
(294,721,o),
(309,730,o),
(371,730,c),
(371,770,l),
(28,770,l),
(28,730,l),
(86,730,o),
(103,717,o),
(143,646,cs),
(304,364,l),
(185,364,l),
(185,299,l),
(350,299,l),
(350,235,l),
(185,235,l),
(185,170,l),
(350,170,l),
(349,64,o),
(338,41,o),
(245,38,c),
(245,0,l),
(605,0,l),
(605,38,l),
(512,41,o),
(498,61,o),
(497,170,c),
(661,170,l),
(661,235,l)
);
}
);
width = 851;
}
);
unicode = 165;
},
{
glyphname = bulletoperator;
layers = (
{
layerId = m001;
shapes = (
{
closed = 1;
nodes = (
(65,233,o),
(98,200,o),
(140,200,cs),
(184,200,o),
(217,233,o),
(217,274,cs),
(217,317,o),
(184,351,o),
(140,351,cs),
(98,351,o),
(65,317,o),
(65,274,cs)
);
}
);
width = 281;
}
);
unicode = 8729;
},
{
glyphname = divisionslash;
layers = (
{
layerId = m001;
shapes = (
{
closed = 1;
nodes = (
(546,770,l),
(-34,0,l),
(46,0,l),
(617,770,l)
);
}
);
width = 582;
}
);
unicode = 8725;
},
{
glyphname = plus;
layers = (
{
layerId = m001;
shapes = (
{
closed = 1;
nodes = (
(314,307,l),
(526,307,l),
(526,369,l),
(314,369,l),
(314,590,l),
(246,590,l),
(246,369,l),
(34,369,l),
(34,307,l),
(246,307,l),
(246,86,l),
(314,86,l)
);
}
);
width = 560;
}
);
unicode = 43;
},
{
glyphname = minus;
layers = (
{
layerId = m001;
shapes = (
{
closed = 1;
nodes = (
(71,370,l),
(71,306,l),
(563,306,l),
(563,370,l)
);
}
);
width = 634;
}
);
unicode = 8722;
},
{
glyphname = multiply;
layers = (
{
layerId = m001;
shapes = (
{
closed = 1;
nodes = (
(309,331,l),
(473,495,l),
(427,541,l),
(263,377,l),
(101,539,l),
(53,491,l),
(215,329,l),
(51,165,l),
(97,119,l),
(261,283,l),
(423,121,l),
(471,169,l)
);
}
);
width = 524;
}
);
unicode = 215;
},
{
glyphname = divide;
layers = (
{
layerId = m001;
shapes = (
{
closed = 1;
nodes = (
(47,370,l),
(47,306,l),
(539,306,l),
(539,370,l)
);
},
{
closed = 1;
nodes = (
(220,480,o),
(253,447,o),
(295,447,cs),
(339,447,o),
(372,480,o),
(372,521,cs),
(372,564,o),
(339,598,o),
(295,598,cs),
(253,598,o),
(220,564,o),
(220,521,cs)
);
},
{
closed = 1;
nodes = (
(220,110,o),
(253,77,o),
(295,77,cs),
(339,77,o),
(372,110,o),
(372,151,cs),
(372,194,o),
(339,228,o),
(295,228,cs),
(253,228,o),
(220,194,o),
(220,151,cs)
);
}
);
width = 585;
}
);
unicode = 247;
},
{
glyphname = equal;
layers = (
{
layerId = m001;
shapes = (
{
closed = 1;
nodes = (
(71,482,l),
(71,422,l),
(547,422,l),
(547,482,l)
);
},
{
closed = 1;
nodes = (
(71,302,l),
(71,242,l),
(547,242,l),
(547,302,l)
);
}
);
width = 618;
}
);
unicode = 61;
},
{
glyphname = greater;
layers = (
{
layerId = m001;
shapes = (
{
closed = 1;
nodes = (
(77,72,l),
(557,304,l),
(557,368,l),
(77,600,l),
(77,531,l),
(497,336,l),
(77,141,l)
);
}
);
width = 593;
}
);
unicode = 62;
},
{
glyphname = less;
layers = (
{
layerId = m001;
shapes = (
{
closed = 1;
nodes = (
(516,531,l),
(516,600,l),
(36,368,l),
(36,304,l),
(516,72,l),
(516,141,l),
(96,336,l)
);
}
);
width = 593;
}
);
unicode = 60;
},
{
glyphname = plusminus;
layers = (
{
layerId = m001;
shapes = (
{
closed = 1;
nodes = (
(348,436,l),
(560,436,l),
(560,500,l),
(348,500,l),
(348,709,l),
(280,709,l),
(280,500,l),
(68,500,l),
(68,436,l),
(280,436,l),
(280,227,l),
(348,227,l)
);
},
{
closed = 1;
nodes = (
(68,152,l),
(68,88,l),
(560,88,l),
(560,152,l)
);
}
);
width = 628;
}
);
unicode = 177;
},
{
glyphname = asciitilde;
layers = (
{
layerId = m001;
shapes = (
{
closed = 1;
nodes = (
(130,282,o),
(139,289,o),
(167,289,cs),
(239,289,o),
(306,241,o),
(369,241,cs),
(433,241,o),
(477,291,o),
(492,379,c),
(447,379,l),
(437,348,o),
(423,337,o),
(395,337,cs),
(336,337,o),
(254,383,o),
(196,383,cs),
(134,383,o),
(86,331,o),
(73,249,c),
(119,249,l)
);
}
);
width = 562;
}
);
unicode = 126;
},
{
glyphname = logicalnot;
layers = (
{
layerId = m001;
shapes = (
{
closed = 1;
nodes = (
(561,110,l),
(561,373,l),
(71,373,l),
(71,303,l),
(489,303,l),
(489,110,l)
);
}
);
width = 637;
}
);
unicode = 172;
},
{
glyphname = asciicircum;
layers = (
{
layerId = m001;
shapes = (
{
closed = 1;
nodes = (
(64,230,l),
(121,230,l),
(246,329,l),
(371,230,l),
(428,230,l),
(293,410,l),
(199,410,l)
);
}
);
width = 492;
}
);
unicode = 94;
},
{
glyphname = micro;
layers = (
{
anchors = (
{
name = bottom;
pos = (343,0);
},
{
name = top;
pos = (366,651);
}
);
layerId = m001;
shapes = (
{
closed = 1;
nodes = (
(237,22,o),
(291,-10,o),
(353,-10,cs),
(424,-10,o),
(470,14,o),
(499,78,c),
(503,78,l),
(514,-11,l),
(713,1,l),
(713,40,l),
(648,40,o),
(634,47,o),
(628,80,cs),
(623,104,o),
(621,148,o),
(621,223,cs),
(621,530,l),
(396,530,l),
(396,490,l),
(477,482,o),
(483,473,o),
(483,365,cs),
(483,272,ls),
(483,218,o),
(473,161,o),
(460,128,cs),
(435,74,o),
(405,55,o),
(357,55,cs),
(286,55,o),
(254,115,o),
(254,257,cs),
(254,530,l),
(30,530,l),
(30,490,l),
(111,483,o),
(117,474,o),
(117,365,cs),
(117,-178,ls),
(117,-225,o),
(148,-260,o),
(192,-260,cs),
(234,-260,o),
(261,-233,o),
(261,-189,cs),
(261,-142,o),
(223,10,o),
(198,91,c),
(202,92,l)
);
}
);
width = 744;
}
);
unicode = 181;
},
{
glyphname = percent;
layers = (
{
layerId = m001;
shapes = (
{
closed = 1;
nodes = (
(611,770,l),
(31,0,l),
(111,0,l),
(682,770,l)
);
},
{
pos = (58,0);
ref = zerosuperior;
},
{
pos = (341,0);
ref = zeroinferior;
}
);
width = 712;
}
);
unicode = 37;
},
{
glyphname = perthousand;
layers = (
{
layerId = m001;
shapes = (
{
closed = 1;
nodes = (
(611,770,l),
(31,0,l),
(111,0,l),
(682,770,l)
);
},
{
pos = (58,0);
ref = zerosuperior;
},
{
pos = (647,0);
ref = zeroinferior;
},
{
pos = (341,0);
ref = zeroinferior;
}
);
width = 968;
}
);
unicode = 8240;
},
{
glyphname = dieresis;
layers = (
{
anchors = (
{
name = _top;
pos = (184,651);
}
);
layerId = m001;
shapes = (
{
closed = 1;
nodes = (
(20,704,o),
(48,676,o),
(84,676,cs),
(121,676,o),
(149,704,o),
(149,740,cs),
(149,777,o),
(121,805,o),
(84,805,cs),
(48,805,o),
(20,777,o),
(20,740,cs)
);
},
{
closed = 1;
nodes = (
(216,704,o),
(244,676,o),
(280,676,cs),
(317,676,o),
(345,704,o),
(345,740,cs),
(345,777,o),
(317,805,o),
(280,805,cs),
(244,805,o),
(216,777,o),
(216,740,cs)
);
}
);
width = 365;
}
);
unicode = 168;
},
{
glyphname = dotaccent;
layers = (
{
anchors = (
{
name = _top;
pos = (97,651);
}
);
layerId = m001;
shapes = (
{
closed = 1;
nodes = (
(20,709,o),
(54,675,o),
(97,675,cs),
(141,675,o),
(175,709,o),
(175,752,cs),
(175,796,o),
(141,830,o),
(97,830,cs),
(54,830,o),
(20,796,o),
(20,752,cs)
);
}
);
width = 195;
}
);
unicode = 729;
},
{
glyphname = grave;
layers = (
{
anchors = (
{
name = _top;
pos = (163,651);
}
);
layerId = m001;
shapes = (
{
closed = 1;
nodes = (
(156,770,ls),
(124,800,o),
(98,813,o),
(71,813,cs),
(38,813,o),
(16,796,o),
(16,768,cs),
(16,745,o),
(43,730,o),
(85,711,cs),
(219,651,l),
(283,651,l)
);
}
);
width = 299;
}
);
unicode = 96;
},
{
glyphname = acute;
layers = (
{
anchors = (
{
name = _top;
pos = (116,651);
}
);
layerId = m001;
shapes = (
{
closed = 1;
nodes = (
(214,711,ls),
(256,729,o),
(283,745,o),
(283,768,cs),
(283,796,o),
(261,813,o),
(228,813,cs),
(201,813,o),
(175,800,o),
(143,770,cs),
(16,651,l),
(75,651,l)
);
}
);
width = 299;
}
);
unicode = 180;
},
{
glyphname = hungarumlaut;
layers = (
{
anchors = (
{
name = _top;
pos = (239,651);
}
);
layerId = m001;
shapes = (
{
closed = 1;
nodes = (
(214,711,ls),
(256,729,o),
(283,745,o),
(283,768,cs),
(283,796,o),
(261,813,o),
(228,813,cs),
(201,813,o),
(175,800,o),
(143,770,cs),
(16,651,l),
(75,651,l)
);
},
{
closed = 1;
nodes = (
(451,711,ls),
(493,729,o),
(520,745,o),
(520,768,cs),
(520,796,o),
(498,813,o),
(465,813,cs),
(438,813,o),
(412,800,o),
(380,770,cs),
(253,651,l),
(312,651,l)
);
}
);
width = 536;
}
);
unicode = 733;
},
{
glyphname = circumflex;
layers = (
{
anchors = (
{
name = _top;
pos = (193,651);
}
);
layerId = m001;
shapes = (
{
closed = 1;
nodes = (
(21,651,l),
(73,651,l),
(193,719,l),
(313,651,l),
(365,651,l),
(245,800,l),
(141,800,l)
);
}
);
width = 386;
}
);
unicode = 710;
},
{
glyphname = caron;
layers = (
{
anchors = (
{
name = _top;
pos = (193,651);
}
);
layerId = m001;
shapes = (
{
closed = 1;
nodes = (
(365,800,l),
(313,800,l),
(193,732,l),
(73,800,l),
(21,800,l),
(141,651,l),
(245,651,l)
);
}
);
width = 386;
}
);
unicode = 711;
},
{
glyphname = breve;
layers = (
{
anchors = (
{
name = _top;
pos = (166,651);
}
);
layerId = m001;
shapes = (
{
closed = 1;
nodes = (
(260,755,o),
(217,735,o),
(165,735,cs),
(113,735,o),
(71,755,o),
(59,786,c),
(16,786,l),
(19,705,o),
(82,646,o),
(166,646,cs),
(248,646,o),
(311,704,o),
(316,786,c),
(272,786,l)
);
}
);
width = 332;
}
);
unicode = 728;
},
{
glyphname = ring;
layers = (
{
anchors = (
{
name = _top;
pos = (111,651);
}
);
layerId = m001;
shapes = (
{
closed = 1;
nodes = (
(21,693,o),
(59,656,o),
(111,656,cs),
(164,656,o),
(203,693,o),
(203,742,cs),
(203,793,o),
(164,830,o),
(111,830,cs),
(59,830,o),
(21,793,o),
(21,742,cs)
);
},
{
closed = 1;
nodes = (
(70,763,o),
(88,779,o),
(111,779,cs),
(133,779,o),
(150,763,o),
(150,742,cs),
(150,720,o),
(133,703,o),
(111,703,cs),
(88,703,o),
(70,720,o),
(70,742,cs)
);
}
);
width = 224;
}
);
unicode = 730;
},
{
glyphname = tilde;
layers = (
{
anchors = (
{
name = _top;
pos = (202,651);
}
);
layerId = m001;
shapes = (
{
closed = 1;
nodes = (
(67,690,o),
(78,700,o),
(101,700,cs),
(123,700,o),
(158,691,o),
(188,677,cs),
(226,659,o),
(249,652,o),
(273,652,cs),
(303,652,o),
(325,663,o),
(346,688,cs),
(367,714,o),
(385,755,o),
(390,790,c),
(345,790,l),
(335,759,o),
(321,748,o),
(296,748,cs),
(278,748,o),
(258,754,o),
(217,770,cs),
(167,789,o),
(149,794,o),
(130,794,cs),
(73,794,o),
(24,738,o),
(11,660,c),
(57,660,l)
);
}
);
width = 401;
}
);
unicode = 732;
},
{
glyphname = macron;
layers = (
{
anchors = (
{
name = _top;
pos = (163,651);
}
);
layerId = m001;
shapes = (
{
closed = 1;
nodes = (
(305,757,l),
(21,757,l),
(21,692,l),
(305,692,l)
);
}
);
width = 326;
}
);
unicode = 175;
},
{
glyphname = cedilla;
layers = (
{
anchors = (
{
name = _bottom;
pos = (128,0);
}
);
layerId = m001;
shapes = (
{
closed = 1;
nodes = (
(101,12,l),
(46,-112,l),
(48,-115,l),
(57,-114,o),
(76,-113,o),
(87,-113,cs),
(136,-113,o),
(163,-132,o),
(163,-167,cs),
(163,-194,o),
(146,-212,o),
(119,-212,cs),
(97,-212,o),
(86,-202,o),
(73,-170,cs),
(61,-142,o),
(51,-133,o),
(32,-133,cs),
(10,-133,o),
(-4,-148,o),
(-4,-174,cs),
(-4,-224,o),
(51,-260,o),
(127,-260,cs),
(210,-260,o),
(269,-217,o),
(269,-155,cs),
(269,-98,o),
(217,-62,o),
(134,-62,c),
(166,12,l)
);
}
);
width = 243;
}
);
unicode = 184;
},
{
glyphname = ogonek;
layers = (
{
anchors = (
{
name = _bottom;
pos = (174,0);
}
);
layerId = m001;
shapes = (
{
closed = 1;
nodes = (
(205,-149,o),
(171,-169,o),
(142,-169,cs),
(113,-169,o),
(93,-150,o),
(93,-124,cs),
(93,-83,o),
(144,-32,o),
(217,0,c),
(217,5,l),
(155,5,l),
(50,-33,o),
(-10,-89,o),
(-10,-151,cs),
(-10,-210,o),
(26,-239,o),
(100,-239,cs),
(164,-239,o),
(223,-208,o),
(266,-152,c),
(231,-116,l)
);
}
);
width = 278;
}
);
unicode = 731;
},
{
glyphname = caron.alt;
layers = (
{
anchors = (
{
name = _top;
pos = (83,651);
}
);
layerId = m001;
shapes = (
{
closed = 1;
nodes = (
(123,604,o),
(149,648,o),
(149,701,cs),
(149,751,o),
(125,780,o),
(83,780,cs),
(40,780,o),
(11,751,o),
(11,720,cs),
(11,690,o),
(32,670,o),
(57,670,cs),
(69,670,o),
(78,673,o),
(84,678,c),
(84,645,o),
(66,618,o),
(26,590,c),
(54,559,l)
);
}
);
width = 170;
}
);
},
{
glyphname = dieresis.cap;
layers = (
{
anchors = (
{
name = _topcap;
pos = (169,830);
}
);
layerId = m001;
shapes = (
{
closed = 1;
nodes = (
(0,868,o),
(26,844,o),
(60,844,cs),
(96,844,o),
(122,868,o),
(122,903,cs),
(122,936,o),
(96,960,o),
(60,960,cs),
(26,960,o),
(0,936,o),
(0,903,cs)
);
},
{
closed = 1;
nodes = (
(217,868,o),
(243,844,o),
(279,844,cs),
(312,844,o),
(339,868,o),
(339,903,cs),
(339,936,o),
(312,960,o),
(279,960,cs),
(243,960,o),
(217,936,o),
(217,903,cs)
);
}
);
width = 339;
}
);
},
{
glyphname = dotaccent.cap;
layers = (
{
anchors = (
{
name = _topcap;
pos = (86,830);
}
);
layerId = m001;
shapes = (
{
closed = 1;
nodes = (
(20,859,o),
(51,830,o),
(86,830,cs),
(125,830,o),
(156,859,o),
(156,893,cs),
(156,930,o),
(125,959,o),
(86,959,cs),
(51,959,o),
(20,930,o),
(20,893,cs)
);
}
);
width = 173;
}
);
},
{
glyphname = grave.cap;
layers = (
{
anchors = (
{
name = _topcap;
pos = (177,830);
}
);
layerId = m001;
shapes = (
{
closed = 1;
nodes = (
(171,927,ls),
(145,947,o),
(111,960,o),
(77,960,cs),
(40,960,o),
(20,945,o),
(20,923,cs),
(20,893,o),
(39,875,o),
(108,858,cs),
(224,830,l),
(297,830,l)
);
}
);
width = 317;
}
);
},
{
glyphname = acute.cap;
layers = (
{
anchors = (
{
name = _topcap;
pos = (126,830);
}
);
layerId = m001;
shapes = (
{
closed = 1;
nodes = (
(209,858,ls),
(278,875,o),
(297,893,o),
(297,923,cs),
(297,945,o),
(277,960,o),
(240,960,cs),
(206,960,o),
(172,947,o),
(146,927,cs),
(20,830,l),
(93,830,l)
);
}
);
width = 317;
}
);
},
{
glyphname = hungarumlaut.cap;
layers = (
{
anchors = (
{
name = _topcap;
pos = (216,830);
}
);
layerId = m001;
shapes = (
{
closed = 1;
nodes = (
(189,858,ls),
(257,878,o),
(277,893,o),
(277,923,cs),
(277,945,o),
(257,960,o),
(220,960,cs),
(186,960,o),
(150,949,o),
(126,927,cs),
(20,830,l),
(93,830,l)
);
},
{
closed = 1;
nodes = (
(413,858,ls),
(481,878,o),
(501,893,o),
(501,923,cs),
(501,945,o),
(481,960,o),
(444,960,cs),
(410,960,o),
(374,949,o),
(350,927,cs),
(244,830,l),
(317,830,l)
);
}
);
width = 521;
}
);
},
{
glyphname = circumflex.cap;
layers = (
{
anchors = (
{
name = _topcap;
pos = (193,830);
}
);
layerId = m001;
shapes = (
{
closed = 1;
nodes = (
(11,830,l),
(78,830,l),
(193,879,l),
(308,830,l),
(375,830,l),
(251,960,l),
(135,960,l)
);
}
);
width = 386;
}
);
},
{
glyphname = caron.cap;
layers = (
{
anchors = (
{
name = _topcap;
pos = (193,830);
}
);
layerId = m001;
shapes = (
{
closed = 1;
nodes = (
(375,960,l),
(308,960,l),
(193,911,l),
(78,960,l),
(11,960,l),
(135,830,l),
(251,830,l)
);
}
);
width = 386;
}
);
},
{
glyphname = breve.cap;
layers = (
{
anchors = (
{
name = _topcap;
pos = (166,830);
}
);
layerId = m001;
shapes = (
{
closed = 1;
nodes = (
(260,935,o),
(217,919,o),
(165,919,cs),
(113,919,o),
(71,935,o),
(59,960,c),
(16,960,l),
(19,885,o),
(82,830,o),
(166,830,cs),
(248,830,o),
(311,884,o),
(316,960,c),
(272,960,l)
);
}
);
width = 332;
}
);
},
{
glyphname = ring.cap;
layers = (
{
anchors = (
{
name = _topcap;
pos = (89,830);
}
);
layerId = m001;
shapes = (
{
closed = 1;
nodes = (
(21,858,o),
(50,830,o),
(89,830,cs),
(128,830,o),
(157,858,o),
(157,895,cs),
(157,932,o),
(128,960,o),
(89,960,cs),
(50,960,o),
(21,932,o),
(21,895,cs)
);
},
{
closed = 1;
nodes = (
(63,908,o),
(74,918,o),
(89,918,cs),
(103,918,o),
(114,908,o),
(114,895,cs),
(114,881,o),
(103,871,o),
(89,871,cs),
(74,871,o),
(63,881,o),
(63,895,cs)
);
}
);
width = 178;
}
);
},
{
glyphname = tilde.cap;
layers = (
{
anchors = (
{
name = _topcap;
pos = (202,830);
}
);
layerId = m001;
shapes = (
{
closed = 1;
nodes = (
(67,858,o),
(78,868,o),
(101,868,cs),
(123,868,o),
(158,859,o),
(188,845,cs),
(226,827,o),
(249,820,o),
(273,820,cs),
(303,820,o),
(325,831,o),
(346,856,cs),
(367,882,o),
(385,923,o),
(390,958,c),
(345,958,l),
(335,927,o),
(321,916,o),
(296,916,cs),
(278,916,o),
(258,922,o),
(217,938,cs),
(167,957,o),
(149,962,o),
(130,962,cs),
(73,962,o),
(24,906,o),
(11,828,c),
(57,828,l)
);
}
);
width = 401;
}
);
},
{
glyphname = macron.cap;
layers = (
{
anchors = (
{
name = _topcap;
pos = (163,830);
}
);
layerId = m001;
shapes = (
{
closed = 1;
nodes = (
(305,930,l),
(21,930,l),
(21,865,l),
(305,865,l)
);
}
);
width = 326;
}
);
},
{
glyphname = apostrophemod;
layers = (
{
layerId = m001;
shapes = (
{
closed = 1;
nodes = (
(127,622,o),
(134,654,o),
(141,683,cs),
(150,719,o),
(158,751,o),
(158,770,cs),
(158,805,o),
(134,830,o),
(102,830,cs),
(70,830,o),
(46,805,o),
(46,771,cs),
(46,752,o),
(54,719,o),
(63,683,cs),
(70,653,o),
(78,622,o),
(82,596,c),
(123,596,l)
);
}
);
width = 204;
}
);
unicode = 700;
},
{
glyphname = commaaccent;
layers = (
{
anchors = (
{
name = _bottom;
pos = (83,-10);
}
);
layerId = m001;
shapes = (
{
closed = 1;
nodes = (
(123,-221,o),
(149,-179,o),
(149,-134,cs),
(149,-84,o),
(125,-55,o),
(83,-55,cs),
(40,-55,o),
(11,-84,o),
(11,-115,cs),
(11,-145,o),
(32,-165,o),
(57,-165,cs),
(69,-165,o),
(78,-162,o),
(84,-157,c),
(84,-182,o),
(66,-207,o),
(26,-229,c),
(54,-260,l)
);
}
);
width = 170;
}
);
unicode = 63171;
},
